<?xml version="1.0" standalone="no"?>
<!DOCTYPE svg PUBLIC "-//W3C//DTD SVG 1.1//EN" "http://www.w3.org/Graphics/SVG/1.1/DTD/svg11.dtd" >
<svg xmlns="http://www.w3.org/2000/svg" xmlns:xlink="http://www.w3.org/1999/xlink" version="1.1">
<metadata>
Created by FontForge 20160407 at Tue Oct 18 20:17:23 2016
 By Jimmy Warting
Copyright \(c\) 2015, Christian Thalmann and the Cormorant Project Authors \(github.com/CatharsisFonts/Cormorant\)
</metadata>
<defs>
<font id="CormorantInfant-SemiBold" horiz-adv-x="604" >
  <font-face 
    font-family="Cormorant Infant SemiBold"
    font-weight="600"
    font-stretch="normal"
    units-per-em="1000"
    panose-1="0 0 7 0 0 0 0 0 0 0"
    ascent="725"
    descent="-275"
    x-height="386"
    cap-height="625"
    bbox="-365.737 -282.07 1451.68 931.13"
    underline-thickness="50"
    underline-position="-100"
    stemh="12"
    stemv="81"
    unicode-range="U+0020-A729"
  />
<missing-glyph horiz-adv-x="501" 
d="M94 -275v1000h317v-1000h-317zM168 626h65v-38h-66v-32h166v32h-66v38h66v32h-165v-32zM167 426h166v34h-66v69h-100v-103zM200 460v35h33v-35h-33zM167 365h66v-36h-66v-34h100v70h66v33h-166v-33zM301 273h-134v-34h166v99h-32v-65zM233 160h34v24h34v-48h-101v80h-33
v-113h166v113h-100v-56zM167 -70h166v113h-166v-113zM200 -37v48h101v-48h-101zM167 -126h70l-70 -47v-33h166v33h-101l69 47h32v34h-166v-34z" />
    <glyph glyph-name="Aogonek_acutecomb.liga" unicode="&#x104;&#x301;" horiz-adv-x="712" 
d="M256 678c-6 -2 -9 9 -5 11c53 33 94 69 138 100c11 9 112 -29 89 -33c-89 -23 -154 -47 -222 -78zM711 9c6 0 6 -11 0 -11c-43 0 -72 3 -107 3c-69 0 -110 -48 -110 -120s37 -117 93 -117c20 0 36 4 47 10c3 3 10 -4 7 -8c-35 -29 -69 -41 -109 -41
c-76 0 -120 43 -120 108c0 123 168 131 104 257l-109 220h-179l-77 -173c-35 -81 2 -125 82 -125c6 0 6 -12 0 -12c-40 0 -67 4 -118 4s-74 -4 -117 -4c-6 0 -6 12 0 12c53 0 80 25 127 134l215 484c2 4 16 5 17 0l244 -494c46 -90 75 -127 110 -127zM240 336h154l-82 164z
" />
    <glyph glyph-name="Eogonek_acutecomb.liga" unicode="&#x118;&#x301;" horiz-adv-x="547" 
d="M176 678c-5 -2 -9 9 -4 11c52 33 93 69 138 100c10 9 111 -29 89 -33c-89 -23 -155 -47 -223 -78zM502 -222c3 2 10 -5 7 -8c-39 -32 -75 -45 -111 -45c-69 0 -116 46 -116 107c0 53 37 109 117 168h-357c-3 0 -3 12 0 12c64 0 76 11 76 69v463c0 57 -12 69 -76 69
c-3 0 -3 12 0 12h416c7 0 10 -3 10 -9l2 -129c0 -4 -10 -5 -12 -2c-16 76 -63 114 -139 114h-41c-49 0 -65 -15 -65 -57v-204h97c74 0 109 27 109 74c0 3 11 3 11 0c0 -42 -1 -61 -1 -87c0 -33 3 -62 3 -98c0 -4 -12 -4 -12 0c0 55 -36 85 -112 85h-95v-227
c0 -44 14 -59 57 -59h48c91 0 146 43 171 130c1 3 12 1 12 -3c-5 -37 -10 -95 -10 -138c0 -11 -3 -15 -15 -15h-57c-45 -43 -63 -77 -63 -125c0 -67 35 -111 95 -111c20 0 40 7 51 14z" />
    <glyph glyph-name="IJ_acutecomb.liga" unicode="&#x132;&#x301;" horiz-adv-x="696" 
d="M70 678c-6 -2 -9 9 -5 11c53 33 94 69 139 100c10 9 111 -29 88 -33c-88 -23 -154 -47 -222 -78zM444 678c-5 -2 -9 9 -4 11c52 33 93 69 138 100c10 9 111 -29 89 -33c-89 -23 -155 -47 -223 -78zM212 350c0 -58 10 -69 77 -69c3 0 3 -12 0 -12c-34 0 -75 2 -125 2
c-47 0 -90 -2 -125 -2c-4 0 -4 12 0 12c65 0 77 11 77 69v194c0 57 -12 69 -77 69c-4 0 -4 12 0 12c35 0 78 -3 125 -3c50 0 92 3 125 3c3 0 3 -12 0 -12c-66 0 -77 -14 -77 -71v-192zM665 625c4 0 4 -12 0 -12c-54 0 -64 -14 -64 -71v-284c0 -176 -105 -271 -257 -271
c-136 0 -238 75 -238 144c0 29 18 53 53 53c101 0 8 -178 185 -178c114 0 160 75 160 194v344c0 57 -13 69 -89 69c-3 0 -3 12 0 12c41 0 87 -3 137 -3c46 0 83 3 113 3z" />
    <glyph glyph-name="Iogonek_acutecomb.liga" unicode="&#x12e;&#x301;" horiz-adv-x="338" 
d="M205 789c11 9 112 -29 89 -33c-89 -23 -154 -47 -222 -78c-6 -2 -9 9 -5 11c53 33 94 69 138 100zM294 613c-65 0 -76 -14 -76 -71v-461c0 -58 10 -69 76 -69c3 0 3 -12 0 -12c-32 0 -70 2 -117 2c-20 -35 -28 -72 -28 -108c0 -72 36 -128 84 -128c17 0 29 6 38 12
c4 2 11 -5 7 -8c-32 -32 -59 -45 -100 -45c-66 0 -103 40 -103 104c0 56 28 114 85 173c-43 0 -84 -2 -117 -2c-3 0 -3 12 0 12c66 0 77 11 77 69v463c0 57 -11 69 -77 69c-3 0 -3 12 0 12c35 0 79 -3 125 -3c51 0 93 3 126 3c3 0 3 -12 0 -12z" />
    <glyph glyph-name="J_acutecomb.liga" unicode="J&#x301;" horiz-adv-x="330" 
d="M71 678c-6 -2 -9 9 -4 11c52 33 93 69 138 100c10 9 111 -29 88 -33c-88 -23 -154 -47 -222 -78zM223 67c0 -190 -43 -260 -187 -317c-3 -3 -8 8 -4 10c74 48 95 142 95 280v504c0 57 -12 69 -77 69c-3 0 -3 12 0 12c37 0 79 -3 124 -3c46 0 83 3 114 3c3 0 3 -12 0 -12
c-55 0 -65 -14 -65 -71v-475z" />
    <glyph glyph-name="uni01EA0301.liga" unicode="&#x1ea;&#x301;" horiz-adv-x="766" 
d="M287 678c-6 -2 -10 9 -5 11c53 33 93 69 138 100c10 9 111 -29 89 -33c-89 -23 -155 -47 -222 -78zM440 -4c-42 -41 -59 -75 -59 -121c0 -67 35 -111 96 -111c20 0 40 7 50 14c4 2 11 -5 8 -8c-39 -32 -75 -45 -112 -45c-69 0 -115 46 -115 107c0 50 33 103 105 159
c-16 -2 -31 -3 -47 -3c-192 0 -317 148 -317 324c0 217 190 324 352 324c197 0 316 -156 316 -317s-121 -292 -277 -323zM157 347c0 -193 100 -335 243 -335c118 0 209 99 209 278c0 185 -94 321 -249 321c-131 0 -203 -100 -203 -264z" />
    <glyph glyph-name="aogonek_acutecomb.liga" unicode="&#x105;&#x301;" horiz-adv-x="490" 
d="M256 474c-2 -4 -12 -1 -11 2l39 240c3 8 90 21 86 11zM442 29c-94 -54 -130 -102 -130 -175c0 -62 27 -94 81 -94c27 0 43 10 57 18c4 2 11 -5 7 -8c-38 -32 -76 -45 -117 -45c-72 0 -110 38 -110 96c0 57 40 114 118 168c-10 6 -19 32 -21 71c-39 -37 -85 -72 -146 -72
c-79 0 -148 61 -148 175c0 149 118 235 232 235c37 0 70 -10 98 -27c12 6 23 13 33 25c3 3 11 0 11 -3v-285c0 -43 9 -58 30 -58c11 0 26 5 45 13c6 2 10 -9 7 -12zM227 34c36 0 71 21 99 43v4v209c0 52 -37 88 -86 88c-73 0 -116 -77 -116 -183c0 -99 39 -161 103 -161z
" />
    <glyph glyph-name="eogonek_acutecomb.liga" unicode="&#x119;&#x301;" horiz-adv-x="414" 
d="M205 474c-1 -4 -12 -1 -10 2l38 240c4 8 90 21 87 11zM378 -222c3 2 10 -5 7 -8c-33 -32 -63 -45 -101 -45c-71 0 -111 38 -111 95c0 58 39 116 118 176c-19 -6 -38 -8 -59 -8c-128 0 -199 93 -199 193c0 118 97 214 224 214c80 0 123 -38 123 -99c0 -15 -2 -27 -12 -27
l-242 -1c-2 -14 -3 -30 -3 -46c0 -113 56 -189 154 -189c32 0 70 9 101 29c3 2 10 -6 7 -9c-12 -11 -24 -21 -36 -29c-66 -60 -94 -113 -94 -173c0 -57 26 -91 72 -91c25 0 38 10 51 18zM221 375c-46 0 -78 -34 -91 -90l155 3c-1 53 -22 87 -64 87z" />
    <glyph glyph-name="ij_acutecomb.liga" unicode="&#x133;&#x301;" horiz-adv-x="530" 
d="M133 474c-1 -4 -11 -1 -10 2l38 240c4 8 90 21 87 11zM399 474c-1 -4 -12 -1 -11 2l39 240c3 8 90 21 86 11zM43 0c-3 0 -3 12 0 12c45 0 58 15 58 69v181c0 46 -9 65 -32 65c-9 0 -23 -3 -40 -11c-4 -3 -9 10 -6 11l144 68l4 1c6 0 13 -8 13 -12c0 -14 -3 -52 -3 -120
v-183c0 -54 12 -69 58 -69c4 0 4 -12 0 -12c-26 0 -60 2 -97 2c-38 0 -73 -2 -99 -2zM450 384c0 -14 -2 -52 -2 -120v-312c0 -133 -40 -193 -165 -234c-3 -1 -8 9 -5 11c66 28 89 86 89 200v333c0 46 -8 65 -30 65c-11 0 -24 -3 -41 -11c-5 -3 -11 10 -6 11l144 68
c2 1 2 1 3 1c6 0 13 -8 13 -12z" />
    <glyph glyph-name="iogonek_acutecomb.liga" unicode="&#x12f;&#x301;" horiz-adv-x="266" 
d="M133 474c-1 -4 -12 -1 -10 2l38 240c4 8 90 21 87 11zM244 -217c3 2 10 -5 7 -9c-33 -31 -60 -44 -101 -44c-65 0 -103 40 -103 104c0 54 27 111 81 168c-32 0 -62 -2 -85 -2c-3 0 -3 12 0 12c45 0 58 15 58 69v181c0 46 -9 65 -32 65c-9 0 -23 -3 -40 -11
c-4 -3 -9 10 -6 11l144 68l4 1c6 0 13 -8 13 -12c0 -14 -3 -52 -3 -120v-183c0 -54 12 -69 58 -69c4 0 4 -12 0 -12c-25 0 -57 2 -92 2c-19 -35 -26 -68 -26 -104c0 -71 36 -127 84 -127c18 0 30 6 39 12z" />
    <glyph glyph-name="j_acutecomb.liga" unicode="j&#x301;" horiz-adv-x="261" 
d="M129 474c-1 -4 -11 -1 -10 2l39 240c3 8 90 21 86 11zM181 384c0 -14 -2 -52 -2 -120v-312c0 -133 -40 -193 -165 -234c-3 -1 -8 9 -5 11c66 28 89 86 89 200v333c0 46 -8 65 -30 65c-11 0 -24 -3 -41 -11c-5 -3 -11 10 -6 11l144 68c2 1 2 1 3 1c6 0 13 -8 13 -12z" />
    <glyph glyph-name="uni01EB0301.liga" unicode="&#x1eb;&#x301;" horiz-adv-x="486" 
d="M241 474c-2 -4 -12 -1 -11 2l39 240c3 8 90 21 86 11zM453 192c0 -108 -77 -183 -174 -201c-27 -47 -39 -91 -39 -137c0 -62 27 -94 78 -94c28 0 45 10 59 18c3 2 10 -5 7 -8c-39 -32 -76 -45 -117 -45c-73 0 -109 38 -109 96c0 55 30 110 93 166h-16
c-124 0 -202 98 -202 211c0 138 119 201 220 201c126 0 200 -102 200 -207zM127 233c0 -132 60 -226 137 -226c60 0 93 53 93 152c0 140 -65 220 -138 220c-59 0 -92 -48 -92 -146z" />
    <glyph glyph-name="T_T.liga" unicode="TT" horiz-adv-x="1156" 
d="M1107 650c1 5 12 5 12 0c-5 -43 -9 -163 -9 -196c0 -3 -11 -3 -11 0c-18 106 -63 150 -149 150c-54 0 -64 -8 -64 -62v-461c0 -58 11 -69 88 -69c3 0 3 -12 0 -12c-38 0 -82 2 -137 2c-52 0 -99 -2 -136 -2c-4 0 -4 12 0 12c74 0 89 11 89 69v463c0 52 -11 60 -60 60
c-105 0 -133 -28 -146 -150c0 -3 -11 -3 -11 0c-6 122 -33 150 -145 150c-45 0 -56 -13 -56 -62v-461c0 -58 10 -69 76 -69c3 0 3 -12 0 -12c-35 0 -76 2 -126 2c-51 0 -98 -2 -136 -2c-3 0 -3 12 0 12c74 0 89 11 89 69v463c0 50 -13 60 -64 60c-79 0 -127 -45 -160 -151
c-1 -3 -12 -2 -12 1c6 36 18 145 18 193c0 6 11 7 11 0c0 -20 34 -22 53 -22c57 -2 126 -3 201 -3c88 0 133 3 181 3c76 0 76 0 78 26c0 5 12 5 12 0c-2 -26 -1 -25 54 -26c54 -2 120 -3 190 -3c93 0 141 3 193 3c46 0 70 4 77 25z" />
    <glyph glyph-name="T_h.liga" unicode="Th" horiz-adv-x="1041" 
d="M1022 12c5 0 5 -12 0 -12c-26 0 -60 2 -97 2c-38 0 -72 -2 -98 -2c-3 0 -3 12 0 12c45 0 57 15 57 69v149c0 75 -27 109 -85 109c-35 0 -74 -17 -103 -45v-213c0 -54 12 -69 57 -69c5 0 5 -12 0 -12c-26 0 -60 2 -97 2c-38 0 -72 -2 -98 -2c-3 0 -3 12 0 12
c45 0 57 15 57 69v507c0 12 -4 16 -18 16h-162c-55 0 -64 -11 -64 -62v-461c0 -58 11 -69 87 -69c4 0 4 -12 0 -12c-37 0 -82 2 -137 2c-51 0 -98 -2 -136 -2c-3 0 -3 12 0 12c74 0 89 11 89 69v463c0 50 -11 60 -63 60c-83 0 -132 -51 -160 -151c-1 -3 -12 -2 -12 1
c5 36 14 145 14 193c0 6 12 7 12 0c0 -20 36 -22 55 -22c57 -2 126 -2 201 -2c63 0 150 0 194 2c84 4 141 45 165 100c2 5 16 3 16 -2v-408c45 53 96 82 153 82c73 0 116 -48 116 -124v-192c0 -54 12 -69 57 -69z" />
    <glyph glyph-name="f_b.liga" unicode="fb" horiz-adv-x="827" 
d="M630 399c86 0 164 -61 164 -186c0 -150 -110 -226 -215 -226c-53 0 -100 15 -143 46l-84 -39c-6 -2 -10 7 -5 9c34 21 52 47 52 100v525c-29 51 -68 81 -110 81c-40 0 -71 -24 -91 -78c-15 -43 -25 -106 -25 -192v-62c38 1 75 4 117 9c3 0 7 -11 7 -24
c0 -12 -6 -28 -11 -27c-39 10 -75 15 -113 16v-270c0 -58 11 -69 92 -69c5 0 5 -12 0 -12c-45 0 -89 2 -133 2c-39 0 -75 -2 -104 -2c-4 0 -4 12 0 12c53 0 63 11 63 69v225c0 44 -12 51 -66 51c-5 0 -5 17 0 17c49 0 64 10 65 44c4 100 20 174 52 225c38 57 95 83 174 83
c62 0 107 -17 137 -40c10 14 16 30 16 44c0 4 12 4 12 0l-1 -404c38 37 85 73 150 73zM603 6c66 0 101 62 101 170c0 121 -48 177 -116 177c-40 0 -76 -21 -108 -46v-204c33 -68 78 -97 123 -97z" />
    <glyph glyph-name="f_f.liga" unicode="ff" horiz-adv-x="603" 
d="M617 726c73 0 117 -22 117 -57c0 -28 -23 -43 -46 -43c-29 0 -38 17 -49 37c-12 22 -25 42 -60 42c-62 0 -108 -77 -108 -266v-63c38 1 75 5 117 10c3 0 7 -11 7 -23c0 -13 -6 -28 -11 -27c-39 10 -75 14 -113 15v-270c0 -58 12 -69 92 -69c5 0 5 -12 0 -12
c-45 0 -89 2 -133 2c-39 0 -75 -2 -104 -2c-4 0 -4 12 0 12c53 0 63 11 63 69v225c-1 40 -8 45 -66 47c-34 1 -83 1 -150 1v-273c0 -58 12 -69 92 -69c5 0 5 -12 0 -12c-45 0 -88 2 -133 2c-38 0 -75 -2 -104 -2c-3 0 -3 12 0 12c53 0 63 11 63 69v225c0 45 -13 51 -66 51
c-5 0 -5 17 0 17c49 0 64 10 65 44c8 193 99 273 242 273c54 0 98 -12 127 -26c37 42 90 61 158 61zM173 439v-64c66 0 108 0 149 2c46 1 61 7 65 30c0 1 0 3 1 5v0v6c3 79 14 141 34 188c-32 42 -78 67 -123 67c-73 0 -126 -72 -126 -234z" />
    <glyph glyph-name="f_f_b.liga" unicode="ffb" horiz-adv-x="1125" 
d="M928 399c86 0 164 -61 164 -186c0 -150 -110 -226 -215 -226c-53 0 -101 15 -143 45l-84 -38c-6 -2 -9 7 -5 10c33 19 52 46 52 99v526c-28 50 -69 80 -110 80c-40 0 -72 -24 -90 -79c-17 -43 -26 -105 -26 -191v-63c38 1 75 5 117 10c3 0 7 -11 7 -23
c0 -13 -6 -28 -11 -27c-39 10 -75 14 -113 15v-270c0 -58 12 -69 92 -69c5 0 5 -12 0 -12c-45 0 -89 2 -133 2c-39 0 -75 -2 -104 -2c-4 0 -4 12 0 12c53 0 63 11 63 69v225c-1 40 -8 45 -66 47c-34 1 -83 1 -150 1v-273c0 -58 12 -69 92 -69c5 0 5 -12 0 -12
c-45 0 -88 2 -133 2c-38 0 -75 -2 -104 -2c-3 0 -3 12 0 12c53 0 63 11 63 69v225c0 45 -13 51 -66 51c-5 0 -5 17 0 17c49 0 64 10 65 44c8 193 99 273 242 273c54 0 98 -12 127 -26c36 41 87 61 156 61c61 0 107 -17 136 -40c10 14 16 30 16 44c0 3 12 3 12 0v-403
c37 37 84 72 149 72zM173 439v-64c66 0 108 0 149 2c46 1 61 7 65 30c0 1 0 3 1 5v0v6c2 79 13 141 34 188c-32 42 -78 67 -123 67c-73 0 -126 -72 -126 -234zM901 6c66 0 101 62 101 171c0 120 -48 176 -117 176c-40 0 -76 -20 -106 -45v-208c33 -66 78 -94 122 -94z" />
    <glyph glyph-name="f_f_f.liga" unicode="fff" horiz-adv-x="901" 
d="M915 726c73 0 117 -22 117 -57c0 -28 -23 -43 -45 -43c-30 0 -39 17 -49 37c-13 22 -26 42 -61 42c-62 0 -108 -77 -108 -266v-63c38 1 75 5 117 10c4 0 7 -11 7 -23c0 -13 -6 -28 -10 -27c-40 10 -76 14 -114 15v-270c0 -58 12 -69 93 -69c4 0 4 -12 0 -12
c-46 0 -89 2 -134 2c-38 0 -75 -2 -104 -2c-3 0 -3 12 0 12c53 0 63 11 63 69v225c0 8 0 15 -1 21c-5 21 -19 25 -65 27c-34 1 -83 1 -150 1v-274c0 -58 11 -69 92 -69c5 0 5 -12 0 -12c-46 0 -89 2 -133 2c-39 0 -75 -2 -104 -2c-4 0 -4 12 0 12c53 0 63 11 63 69v225
c-1 40 -8 45 -66 47c-34 1 -83 1 -150 1v-273c0 -58 12 -69 92 -69c5 0 5 -12 0 -12c-45 0 -88 2 -133 2c-38 0 -75 -2 -104 -2c-3 0 -3 12 0 12c53 0 63 11 63 69v225c0 45 -13 51 -66 51c-5 0 -5 17 0 17c49 0 64 10 65 44c8 193 99 273 242 273c63 0 113 -16 140 -33
c40 39 94 57 158 57c56 0 101 -22 130 -46c37 39 89 57 155 57zM471 439v-63c67 0 108 0 148 1c48 1 63 7 66 32c0 1 0 1 1 2v0v7c3 81 14 144 36 192c-32 53 -78 85 -124 85c-74 0 -127 -78 -127 -256zM173 439v-64c66 0 108 0 149 2c47 1 62 7 65 31c0 1 0 2 1 4v6
c3 75 17 135 40 180c-33 46 -81 75 -129 75c-73 0 -126 -72 -126 -234z" />
    <glyph glyph-name="f_f_h.liga" unicode="ffh" horiz-adv-x="1123" 
d="M1104 12c4 0 4 -12 0 -12c-26 0 -60 2 -97 2c-38 0 -72 -2 -97 -2c-4 0 -4 12 0 12c44 0 56 15 56 69v149c0 74 -27 109 -86 109c-34 0 -73 -17 -101 -43v-215c0 -54 11 -69 56 -69c4 0 4 -12 0 -12c-26 0 -60 2 -97 2c-38 0 -72 -2 -97 -2c-4 0 -4 12 0 12
c44 0 56 15 56 69v548c-28 50 -69 80 -110 80c-70 0 -116 -75 -116 -270v-63c38 1 75 5 117 10c3 0 7 -11 7 -23c0 -13 -6 -28 -11 -27c-39 10 -75 14 -113 15v-270c0 -58 12 -69 92 -69c5 0 5 -12 0 -12c-45 0 -89 2 -133 2c-39 0 -75 -2 -104 -2c-4 0 -4 12 0 12
c53 0 63 11 63 69v225c-1 40 -8 45 -66 47c-34 1 -83 1 -150 1v-273c0 -58 12 -69 92 -69c5 0 5 -12 0 -12c-45 0 -88 2 -133 2c-38 0 -75 -2 -104 -2c-3 0 -3 12 0 12c53 0 63 11 63 69v225c0 45 -13 51 -66 51c-5 0 -5 17 0 17c49 0 64 10 65 44c8 193 99 273 242 273
c54 0 98 -12 126 -25c37 41 89 60 157 60c61 0 107 -17 136 -40c10 14 16 30 16 44c0 3 12 3 12 0v-414c45 52 95 82 152 82c73 0 117 -49 117 -124v-193c0 -54 11 -69 56 -69zM173 439v-64c66 0 108 0 149 2c46 1 61 7 65 30c0 1 0 3 1 5v0v6c3 79 14 141 34 189
c-33 41 -78 66 -123 66c-73 0 -126 -72 -126 -234z" />
    <glyph glyph-name="f_f_i.liga" unicode="ffi" horiz-adv-x="867" 
d="M603 708c-71 0 -132 -79 -132 -269v-63c38 1 75 5 117 10c3 0 7 -12 7 -25c0 -12 -7 -28 -11 -26c-39 11 -75 16 -113 17v-271c0 -58 12 -69 92 -69c5 0 5 -12 0 -12c-45 0 -89 2 -133 2c-39 0 -75 -2 -104 -2c-4 0 -4 12 0 12c53 0 63 11 63 69v225c-1 40 -8 45 -66 47
c-34 1 -83 1 -150 1v-273c0 -58 12 -69 92 -69c5 0 5 -12 0 -12c-45 0 -88 2 -133 2c-38 0 -75 -2 -104 -2c-3 0 -3 12 0 12c53 0 63 11 63 69v225c0 45 -13 51 -66 51c-5 0 -5 17 0 17c49 0 64 10 65 44c8 193 99 273 242 273c58 0 105 -14 133 -29c42 44 100 64 171 64
c86 0 139 -32 139 -76c0 -23 -15 -39 -43 -39c-63 0 -47 97 -129 97zM173 439v-64c66 0 108 0 149 2c46 1 61 7 65 30c0 1 0 3 1 5v0v6c3 77 16 138 37 184c-32 44 -79 71 -126 71c-73 0 -126 -72 -126 -234zM839 12c5 0 5 -12 0 -12c-25 0 -59 2 -97 2c-37 0 -71 -2 -98 -2
c-3 0 -3 12 0 12c46 0 57 15 57 69v181c0 67 -16 80 -70 54c-4 -3 -10 10 -7 11l144 68c7 4 16 -6 16 -11c0 -14 -2 -52 -2 -120v-183c0 -54 13 -69 57 -69z" />
    <glyph glyph-name="f_f_j.liga" unicode="ffj" horiz-adv-x="873" 
d="M608 708c-77 0 -137 -79 -137 -269v-63c38 1 75 5 117 10c3 0 7 -11 7 -23c0 -13 -6 -28 -11 -27c-39 10 -75 14 -113 15v-270c0 -58 12 -69 92 -69c5 0 5 -12 0 -12c-45 0 -89 2 -133 2c-39 0 -75 -2 -104 -2c-4 0 -4 12 0 12c53 0 63 11 63 69v225c-1 40 -8 45 -66 47
c-34 1 -83 1 -150 1v-273c0 -58 12 -69 92 -69c5 0 5 -12 0 -12c-45 0 -88 2 -133 2c-38 0 -75 -2 -104 -2c-3 0 -3 12 0 12c53 0 63 11 63 69v225c0 45 -13 51 -66 51c-5 0 -5 17 0 17c49 0 64 10 65 44c8 193 99 273 242 273c58 0 105 -14 133 -29c42 44 99 64 167 64
c100 0 155 -32 155 -76c0 -23 -15 -39 -44 -39c-66 0 -56 97 -135 97zM173 439v-64c66 0 108 0 149 2c46 1 61 7 65 30c0 1 0 3 1 5v0v6c3 77 16 137 37 184c-32 44 -79 71 -126 71c-73 0 -126 -72 -126 -234zM779 395c7 4 16 -6 16 -11c0 -14 -2 -52 -2 -120v-312
c0 -133 -40 -191 -165 -232c-4 -1 -9 10 -5 11c65 28 89 84 89 198v333c0 67 -16 80 -70 54c-6 -3 -11 10 -7 11z" />
    <glyph glyph-name="f_f_k.liga" unicode="ffk" horiz-adv-x="1109" 
d="M1110 12c3 0 3 -12 0 -12c-26 0 -60 2 -98 2c-52 0 -88 -2 -120 -2c-4 0 -4 12 0 12c40 0 50 16 32 41l-117 153l-28 -25v-100c0 -54 11 -69 56 -69c4 0 4 -12 0 -12c-26 0 -60 2 -97 2c-38 0 -72 -2 -97 -2c-4 0 -4 12 0 12c44 0 56 15 56 69v548c-28 50 -67 80 -110 80
c-70 0 -116 -75 -116 -270v-63c38 1 75 5 117 10c3 0 7 -11 7 -23c0 -13 -6 -28 -11 -27c-39 10 -75 14 -113 15v-270c0 -58 12 -69 92 -69c5 0 5 -12 0 -12c-45 0 -89 2 -133 2c-39 0 -75 -2 -104 -2c-4 0 -4 12 0 12c53 0 63 11 63 69v225c-1 40 -8 45 -66 47
c-34 1 -83 1 -150 1v-273c0 -58 12 -69 92 -69c5 0 5 -12 0 -12c-45 0 -88 2 -133 2c-38 0 -75 -2 -104 -2c-3 0 -3 12 0 12c53 0 63 11 63 69v225c0 45 -13 51 -66 51c-5 0 -5 17 0 17c49 0 64 10 65 44c8 193 99 273 242 273c53 0 97 -11 126 -25c37 41 88 60 156 60
c62 0 107 -17 137 -40c10 14 16 30 16 44c0 3 12 3 12 0v-527l106 95c42 38 36 76 -16 76c-4 0 -4 12 0 12c34 0 62 -2 120 -2c54 0 80 2 109 2c3 0 3 -12 0 -12c-50 0 -126 -25 -190 -80l-43 -38l133 -175c39 -51 74 -69 112 -69zM173 439v-64c66 0 108 0 149 2
c46 1 61 7 65 30c0 1 0 3 1 5v0v6c3 79 14 141 34 189c-33 41 -78 66 -123 66c-73 0 -126 -72 -126 -234z" />
    <glyph glyph-name="f_f_l.liga" unicode="ffl" horiz-adv-x="865" 
d="M839 12c5 0 5 -12 0 -12c-25 0 -59 2 -98 2c-37 0 -71 -2 -97 -2c-3 0 -3 12 0 12c44 0 56 15 56 69v547c-29 52 -69 81 -112 81c-69 0 -117 -74 -117 -270v-63c38 1 75 5 117 10c3 0 7 -12 7 -25c0 -12 -7 -28 -11 -26c-39 11 -75 16 -113 17v-271c0 -58 12 -69 92 -69
c5 0 5 -12 0 -12c-45 0 -89 2 -133 2c-39 0 -75 -2 -104 -2c-4 0 -4 12 0 12c53 0 63 11 63 69v225c-1 40 -8 45 -66 47c-34 1 -83 1 -150 1v-273c0 -58 12 -69 92 -69c5 0 5 -12 0 -12c-45 0 -88 2 -133 2c-38 0 -75 -2 -104 -2c-3 0 -3 12 0 12c53 0 63 11 63 69v225
c0 45 -13 51 -66 51c-5 0 -5 17 0 17c49 0 64 10 65 44c8 193 99 273 242 273c54 0 98 -12 127 -25c37 41 89 60 157 60c62 0 107 -17 138 -40c10 14 16 30 16 44c0 3 12 3 12 0v-649c0 -54 12 -69 57 -69zM173 439v-64c66 0 108 0 149 2c46 1 61 7 65 30c0 1 0 3 1 5v0v6
c3 79 14 141 34 188c-32 42 -78 67 -123 67c-73 0 -126 -72 -126 -234z" />
    <glyph glyph-name="f_f_thorn.liga" unicode="ff&#xfe;" horiz-adv-x="1117" 
d="M865 -13c-35 0 -61 4 -90 14v-195c0 -57 14 -69 92 -69c4 0 4 -12 0 -12c-37 0 -83 2 -133 2c-37 0 -72 -2 -99 -2c-4 0 -4 12 0 12c49 0 59 12 59 69v828c-28 47 -66 75 -107 75c-70 0 -116 -75 -116 -270v-63c38 1 75 5 117 10c3 0 7 -11 7 -23c0 -13 -6 -28 -11 -27
c-39 10 -75 14 -113 15v-270c0 -58 12 -69 92 -69c5 0 5 -12 0 -12c-45 0 -89 2 -133 2c-39 0 -75 -2 -104 -2c-4 0 -4 12 0 12c53 0 63 11 63 69v225c-1 40 -8 45 -66 47c-34 1 -83 1 -150 1v-273c0 -58 12 -69 92 -69c5 0 5 -12 0 -12c-45 0 -88 2 -133 2
c-38 0 -75 -2 -104 -2c-3 0 -3 12 0 12c53 0 63 11 63 69v225c0 45 -13 51 -66 51c-5 0 -5 17 0 17c49 0 64 10 65 44c8 193 99 273 242 273c53 0 97 -11 126 -25c37 41 88 60 156 60c61 0 105 -16 135 -38c9 13 14 28 14 42c0 3 12 3 12 0v-401c52 49 101 70 152 70
c82 0 157 -67 157 -184c0 -167 -124 -228 -219 -228zM173 439v-64c66 0 108 0 149 2c46 1 61 7 65 30c0 1 0 3 1 5v0v6c3 79 14 141 34 189c-33 41 -78 66 -123 66c-73 0 -126 -72 -126 -234zM869 349c-38 0 -67 -16 -94 -40v-247c28 -30 59 -51 112 -51
c66 0 109 56 109 173c0 110 -58 165 -127 165z" />
    <glyph glyph-name="f_f_t.liga" unicode="fft" horiz-adv-x="925" 
d="M905 62c5 5 13 -5 8 -8c-49 -46 -90 -66 -139 -66s-103 19 -103 88v230c0 45 -12 50 -200 50v-275c0 -58 12 -69 92 -69c5 0 5 -12 0 -12c-45 0 -89 2 -133 2c-39 0 -75 -2 -104 -2c-4 0 -4 12 0 12c53 0 63 11 63 69v225c-1 40 -8 45 -66 47c-34 1 -83 1 -150 1v-273
c0 -58 12 -69 92 -69c5 0 5 -12 0 -12c-45 0 -88 2 -133 2c-38 0 -75 -2 -104 -2c-3 0 -3 12 0 12c53 0 63 11 63 69v225c0 45 -13 51 -66 51c-5 0 -5 17 0 17c49 0 64 10 65 44c8 193 99 273 242 273c54 0 98 -12 127 -26c37 42 90 61 158 61c73 0 117 -22 117 -57
c0 -28 -23 -43 -47 -43c-28 0 -41 18 -51 42c-13 23 -27 40 -57 40c-62 0 -108 -80 -108 -269v-62c57 0 111 1 141 3c75 4 100 26 127 75c0 5 15 5 15 0v-80c43 2 85 6 132 11c4 0 7 -11 7 -23c0 -13 -6 -28 -10 -27c-44 11 -85 15 -129 16v-242c0 -54 29 -77 74 -77
c31 0 59 13 77 29zM173 439v-64c66 0 108 0 149 2c46 1 61 7 65 30c0 1 0 3 1 5v0v6c3 79 14 141 34 188c-32 42 -78 67 -123 67c-73 0 -126 -72 -126 -234z" />
    <glyph glyph-name="f_h.liga" unicode="fh" horiz-adv-x="825" 
d="M806 12c4 0 4 -12 0 -12c-26 0 -60 2 -97 2c-38 0 -72 -2 -98 -2c-3 0 -3 12 0 12c45 0 57 15 57 69v149c0 75 -27 109 -85 109c-35 0 -74 -17 -103 -45v-213c0 -54 12 -69 57 -69c4 0 4 -12 0 -12c-26 0 -60 2 -97 2c-38 0 -72 -2 -98 -2c-3 0 -3 12 0 12
c45 0 57 15 57 69v547c-29 51 -68 81 -110 81c-71 0 -116 -75 -116 -270v-62c38 1 75 4 117 9c3 0 7 -11 7 -24c0 -12 -6 -28 -11 -27c-39 10 -75 15 -113 16v-270c0 -58 11 -69 92 -69c5 0 5 -12 0 -12c-45 0 -89 2 -133 2c-39 0 -75 -2 -104 -2c-4 0 -4 12 0 12
c53 0 63 11 63 69v225c0 44 -12 51 -66 51c-5 0 -5 17 0 17c49 0 64 10 65 44c7 217 78 308 226 308c62 0 107 -17 137 -40c10 14 15 30 15 44c0 4 12 4 12 0v-416c45 53 96 83 153 83c73 0 116 -48 116 -124v-192c0 -54 12 -69 57 -69z" />
    <glyph glyph-name="f_j.liga" unicode="fj" horiz-adv-x="575" 
d="M310 707c-77 0 -137 -78 -137 -268v-62c38 1 75 4 117 9c3 0 7 -11 7 -24c0 -12 -6 -28 -11 -27c-39 10 -75 15 -113 16v-270c0 -58 11 -69 92 -69c5 0 5 -12 0 -12c-45 0 -89 2 -133 2c-39 0 -75 -2 -104 -2c-4 0 -4 12 0 12c53 0 63 11 63 69v225c0 44 -12 51 -66 51
c-5 0 -5 17 0 17c49 0 64 10 65 44c8 221 100 308 245 308c99 0 154 -33 154 -76c0 -23 -15 -39 -43 -39c-67 0 -56 96 -136 96zM481 395c7 4 16 -6 16 -11c0 -15 -2 -52 -2 -120v-312c0 -133 -40 -191 -165 -232c-4 -1 -8 9 -5 11c66 28 89 84 89 198v333
c0 67 -16 80 -70 54c-5 -2 -11 10 -7 12z" />
    <glyph glyph-name="f_k.liga" unicode="fk" horiz-adv-x="811" 
d="M812 12c3 0 3 -12 0 -12c-26 0 -60 2 -98 2c-52 0 -89 -2 -120 -2c-4 0 -4 12 0 12c40 0 50 16 32 41l-117 153l-29 -25v-100c0 -54 12 -69 57 -69c4 0 4 -12 0 -12c-26 0 -60 2 -97 2c-38 0 -72 -2 -98 -2c-3 0 -3 12 0 12c45 0 57 15 57 69v547c-29 51 -68 81 -110 81
c-71 0 -116 -76 -116 -270v-62c38 1 75 4 117 9c3 0 7 -11 7 -24c0 -12 -6 -28 -11 -27c-39 10 -75 15 -113 16v-270c0 -58 11 -69 92 -69c5 0 5 -12 0 -12c-45 0 -89 2 -133 2c-39 0 -75 -2 -104 -2c-4 0 -4 12 0 12c53 0 63 11 63 69v225c0 44 -12 51 -66 51
c-5 0 -5 17 0 17c49 0 64 10 65 44c7 217 79 308 226 308c62 0 107 -17 137 -40c10 14 15 30 15 44c0 4 12 4 12 0v-528l107 96c42 37 36 76 -17 76c-3 0 -3 12 0 12c34 0 63 -2 121 -2c53 0 80 2 109 2c4 0 4 -12 0 -12c-50 0 -127 -25 -190 -80l-43 -38l134 -175
c38 -50 74 -69 111 -69z" />
    <glyph glyph-name="f_thorn.liga" unicode="f&#xfe;" horiz-adv-x="819" 
d="M567 -13c-35 0 -60 4 -89 14v-195c0 -57 13 -69 92 -69c3 0 3 -12 0 -12c-38 0 -84 2 -134 2c-37 0 -73 -2 -99 -2c-3 0 -3 12 0 12c49 0 59 12 59 69v827c-28 48 -67 76 -107 76c-71 0 -116 -76 -116 -270v-62c38 1 75 4 117 9c3 0 7 -11 7 -24c0 -12 -6 -28 -11 -27
c-39 10 -75 15 -113 16v-270c0 -58 11 -69 92 -69c5 0 5 -12 0 -12c-45 0 -89 2 -133 2c-39 0 -75 -2 -104 -2c-4 0 -4 12 0 12c53 0 63 11 63 69v225c0 44 -12 51 -66 51c-5 0 -5 17 0 17c49 0 64 10 65 44c7 217 79 308 226 308c61 0 106 -17 135 -38c10 13 15 28 15 42
c0 4 12 4 12 0v-400c52 48 100 69 151 69c82 0 157 -67 157 -184c0 -167 -124 -228 -219 -228zM571 349c-38 0 -66 -16 -93 -40v-249c27 -29 59 -50 111 -50c66 0 109 57 109 174c0 109 -58 165 -127 165z" />
    <glyph glyph-name="f_t.liga" unicode="ft" horiz-adv-x="627" 
d="M607 62c5 4 13 -4 9 -9c-50 -45 -90 -65 -140 -65c-49 0 -103 19 -103 88v230c0 45 -12 50 -200 50v-275c0 -58 11 -69 92 -69c5 0 5 -12 0 -12c-45 0 -89 2 -133 2c-39 0 -75 -2 -104 -2c-4 0 -4 12 0 12c53 0 63 11 63 69v225c0 44 -12 51 -66 51c-5 0 -5 17 0 17
c49 0 64 10 65 44c7 221 82 308 229 308c73 0 118 -22 118 -57c0 -28 -24 -44 -48 -44c-28 0 -40 19 -51 42c-13 24 -27 40 -57 40c-63 0 -108 -79 -108 -268v-62c57 0 112 1 141 3c75 4 100 26 127 75c0 5 15 5 15 0v-79c43 2 85 5 133 10c3 0 7 -11 7 -24
c0 -12 -6 -28 -11 -27c-44 11 -85 15 -129 17v-242c0 -54 30 -77 74 -77c32 0 59 12 77 29z" />
    <glyph glyph-name="fi.liga" unicode="fi" horiz-adv-x="569" 
d="M305 707c-71 0 -132 -78 -132 -268v-62c38 1 75 4 117 9c3 0 7 -11 7 -24s-6 -29 -11 -27c-39 10 -75 15 -113 17v-271c0 -58 11 -69 92 -69c5 0 5 -12 0 -12c-45 0 -89 2 -133 2c-39 0 -75 -2 -104 -2c-4 0 -4 12 0 12c53 0 63 11 63 69v225c0 44 -12 51 -66 51
c-5 0 -5 17 0 17c49 0 64 10 65 44c8 221 98 308 248 308c87 0 139 -33 139 -76c0 -23 -15 -39 -43 -39c-63 0 -47 96 -129 96zM542 12c4 0 4 -12 0 -12c-26 0 -61 2 -98 2s-71 -2 -97 -2c-4 0 -4 12 0 12c44 0 57 15 57 69v181c0 67 -17 80 -71 54c-5 -2 -10 10 -6 12
l144 67c6 4 16 -6 16 -11c0 -15 -2 -52 -2 -120v-183c0 -54 12 -69 57 -69z" />
    <glyph glyph-name="fl.liga" unicode="fl" horiz-adv-x="567" 
d="M541 12c5 0 5 -12 0 -12c-26 0 -60 2 -98 2c-37 0 -71 -2 -97 -2c-4 0 -4 12 0 12c45 0 57 15 57 69v545c-30 52 -70 83 -113 83c-69 0 -117 -74 -117 -270v-62c38 1 75 4 117 9c3 0 7 -12 7 -24c0 -13 -6 -29 -11 -27c-39 10 -75 15 -113 17v-271c0 -58 11 -69 92 -69
c5 0 5 -12 0 -12c-45 0 -89 2 -133 2c-39 0 -75 -2 -104 -2c-4 0 -4 12 0 12c53 0 63 11 63 69v225c0 44 -12 51 -66 51c-5 0 -5 17 0 17c49 0 64 10 65 44c7 221 82 308 228 308c62 0 108 -17 139 -40c10 13 16 30 16 44c0 4 12 4 12 0v-649c0 -54 11 -69 56 -69z" />
    <glyph glyph-name="g_g.liga" unicode="gg" horiz-adv-x="936" 
d="M396 396c3 3 11 0 11 -3v-463c0 -123 -74 -211 -208 -211c-83 0 -145 27 -145 76c0 33 22 45 43 45c75 0 48 -100 143 -100c45 0 86 28 86 166v154c-38 -38 -84 -72 -145 -72c-79 0 -148 61 -148 175c0 149 118 235 232 235c37 0 70 -10 98 -27c12 6 23 13 33 25z
M865 396c2 3 10 0 10 -3v-463c0 -123 -74 -211 -208 -211c-83 0 -145 27 -145 76c0 33 22 45 43 45c75 0 48 -100 143 -100c45 0 86 28 86 166v154c-38 -38 -84 -72 -145 -72c-79 0 -148 61 -148 175c0 149 118 235 233 235c37 0 69 -10 97 -27c13 6 23 13 34 25zM227 34
c36 0 71 20 99 43v213c0 52 -37 88 -86 88c-73 0 -116 -77 -116 -183c0 -99 39 -161 103 -161zM695 34c36 0 71 20 99 43v213c0 52 -37 88 -86 88c-73 0 -116 -77 -116 -183c0 -99 39 -161 103 -161z" />
    <glyph glyph-name="longs_b.liga" unicode="&#x17f;b" horiz-adv-x="813" 
d="M616 399c85 0 164 -61 164 -186c0 -150 -110 -226 -215 -226c-53 0 -101 15 -143 46l-85 -39c-6 -2 -9 7 -4 9c33 21 51 47 51 100l1 527c-26 50 -60 79 -101 79c-68 0 -113 -76 -113 -270v-358c0 -58 11 -69 92 -69c4 0 4 -12 0 -12c-46 0 -89 2 -134 2
c-38 0 -75 -2 -103 -2c-4 0 -4 12 0 12c53 0 62 11 62 69v337c0 213 81 308 222 308c62 0 102 -17 130 -40c10 14 15 30 15 44c0 4 12 4 12 0l-1 -404c38 37 85 73 150 73zM589 6c66 0 100 62 100 170c0 121 -47 177 -116 177c-39 0 -75 -21 -107 -46v-204
c33 -68 78 -97 123 -97z" />
    <glyph glyph-name="longs_h.liga" unicode="&#x17f;h" horiz-adv-x="811" 
d="M792 12c4 0 4 -12 0 -12c-26 0 -60 2 -98 2c-37 0 -71 -2 -97 -2c-4 0 -4 12 0 12c45 0 57 15 57 69v149c0 75 -27 109 -85 109c-35 0 -74 -17 -103 -45v-213c0 -54 12 -69 57 -69c4 0 4 -12 0 -12c-26 0 -60 2 -98 2c-37 0 -71 -2 -97 -2c-4 0 -4 12 0 12
c45 0 57 15 57 69v549c-26 50 -60 79 -101 79c-68 0 -113 -76 -113 -270v-358c0 -58 11 -69 92 -69c4 0 4 -12 0 -12c-46 0 -89 2 -134 2c-38 0 -75 -2 -103 -2c-4 0 -4 12 0 12c53 0 63 11 63 69v337c0 213 80 308 221 308c61 0 102 -17 129 -39c10 13 15 29 15 43
c0 4 12 4 12 0v-415c46 52 96 82 153 82c73 0 116 -48 116 -124v-192c0 -54 12 -69 57 -69z" />
    <glyph glyph-name="longs_i.liga" unicode="&#x17f;i" horiz-adv-x="556" 
d="M26 0c-4 0 -4 12 0 12c53 0 63 11 63 69v337c0 216 88 308 231 308c83 0 133 -30 133 -70c0 -23 -16 -39 -45 -39c-60 0 -49 91 -118 91c-65 0 -118 -79 -118 -269v-358c0 -58 9 -69 88 -69c4 0 4 -12 0 -12c-45 0 -87 2 -131 2c-38 0 -75 -2 -103 -2zM323 0
c-3 0 -3 12 0 12c45 0 57 15 57 69v181c0 67 -16 80 -70 54c-5 -2 -11 10 -7 12l144 67c7 4 16 -6 16 -11c0 -15 -2 -52 -2 -120v-183c0 -54 12 -69 57 -69c4 0 4 -12 0 -12c-26 0 -60 2 -97 2c-38 0 -72 -2 -98 -2z" />
    <glyph glyph-name="longs_j.liga" unicode="&#x17f;j" horiz-adv-x="540" 
d="M26 0c-4 0 -4 12 0 12c53 0 63 11 63 69v337c0 216 88 308 231 308c83 0 133 -30 133 -70c0 -23 -16 -39 -45 -39c-60 0 -49 91 -118 91c-65 0 -118 -79 -118 -269v-358c0 -58 9 -69 88 -69c4 0 4 -12 0 -12c-45 0 -87 2 -131 2c-38 0 -75 -2 -103 -2zM295 -280
c-4 -1 -9 9 -5 11c65 28 89 84 89 198v333c0 67 -16 80 -71 54c-5 -2 -10 10 -6 12l144 67c6 4 16 -6 16 -11c0 -15 -2 -52 -2 -120v-312c0 -133 -40 -191 -165 -232z" />
    <glyph glyph-name="longs_k.liga" unicode="&#x17f;k" horiz-adv-x="796" 
d="M798 12c3 0 3 -12 0 -12c-26 0 -60 2 -98 2c-52 0 -89 -2 -121 -2c-3 0 -3 12 0 12c40 0 51 16 32 41l-116 153l-29 -25v-100c0 -54 12 -69 57 -69c4 0 4 -12 0 -12c-26 0 -60 2 -98 2c-37 0 -71 -2 -97 -2c-4 0 -4 12 0 12c45 0 57 15 57 69v549c-26 50 -60 79 -101 79
c-68 0 -113 -76 -113 -270v-358c0 -58 11 -69 92 -69c4 0 4 -12 0 -12c-46 0 -89 2 -134 2c-38 0 -75 -2 -103 -2c-4 0 -4 12 0 12c53 0 63 11 63 69v337c0 213 80 308 221 308c61 0 102 -17 129 -39c10 13 15 29 15 43c0 4 12 4 12 0v-528l106 96c42 37 37 76 -16 76
c-4 0 -4 12 0 12c34 0 63 -2 121 -2c53 0 79 2 109 2c3 0 3 -12 0 -12c-50 0 -127 -25 -190 -80l-43 -38l134 -175c38 -50 73 -69 111 -69z" />
    <glyph glyph-name="longs_l.liga" unicode="&#x17f;l" horiz-adv-x="550" 
d="M524 12c4 0 4 -12 0 -12c-26 0 -60 2 -98 2c-37 0 -72 -2 -97 -2c-4 0 -4 12 0 12c44 0 56 15 56 69v549c-26 50 -60 79 -101 79c-68 0 -113 -76 -113 -270v-358c0 -58 11 -69 92 -69c4 0 4 -12 0 -12c-46 0 -89 2 -134 2c-38 0 -75 -2 -103 -2c-4 0 -4 12 0 12
c53 0 63 11 63 69v337c0 213 80 308 221 308c62 0 102 -17 130 -40c10 14 15 30 15 44c0 4 12 4 12 0v-649c0 -54 12 -69 57 -69z" />
    <glyph glyph-name="longs_thorn.liga" unicode="&#x17f;&#xfe;" horiz-adv-x="808" 
d="M555 -13c-36 0 -62 5 -92 15v-196c0 -57 14 -69 92 -69c4 0 4 -12 0 -12c-37 0 -83 2 -133 2c-38 0 -73 -2 -99 -2c-3 0 -3 12 0 12c49 0 59 12 59 69v830c-25 46 -59 73 -98 73c-68 0 -113 -76 -113 -270v-358c0 -58 11 -69 92 -69c4 0 4 -12 0 -12c-46 0 -89 2 -134 2
c-38 0 -75 -2 -103 -2c-4 0 -4 12 0 12c53 0 63 11 63 69v337c0 213 80 308 221 308c60 0 100 -16 128 -38c9 13 14 29 14 42c0 4 11 4 11 0v-402c53 49 102 71 154 71c83 0 157 -67 157 -184c0 -167 -124 -228 -219 -228zM560 349c-39 0 -69 -17 -97 -42v-243
c28 -32 60 -54 115 -54c65 0 108 57 108 174c0 109 -58 165 -126 165z" />
    <glyph glyph-name="longs_longs.liga" unicode="&#x17f;&#x17f;" horiz-adv-x="540" 
d="M587 726c68 0 109 -22 109 -57c0 -28 -23 -43 -48 -43c-57 0 -40 80 -98 80s-97 -77 -97 -267v-358c0 -58 8 -69 79 -69c5 0 5 -12 0 -12c-42 0 -81 2 -123 2c-37 0 -74 -2 -103 -2c-4 0 -4 12 0 12c53 0 64 11 64 69v337c0 79 10 141 29 187c-27 42 -64 68 -102 68
c-74 0 -126 -72 -126 -234v-358c0 -58 9 -69 75 -69c4 0 4 -12 0 -12c-40 0 -78 2 -117 2c-38 0 -75 -2 -103 -2c-5 0 -5 12 0 12c52 0 63 11 63 69v337c0 183 98 273 241 273c45 0 83 -10 108 -22c36 40 87 57 149 57z" />
    <glyph glyph-name="longs_longs_b.liga" unicode="&#x17f;&#x17f;b" horiz-adv-x="1098" 
d="M901 399c86 0 164 -61 164 -186c0 -150 -109 -226 -215 -226c-53 0 -101 15 -143 46l-85 -39c-6 -2 -9 7 -4 10c33 19 52 46 52 99v527c-25 50 -61 79 -102 79c-66 0 -112 -75 -112 -270v-358c0 -58 11 -69 93 -69c4 0 4 -12 0 -12c-46 0 -89 2 -135 2
c-37 0 -75 -2 -103 -2c-5 0 -5 12 0 12c53 0 63 11 63 69v337c0 74 10 134 28 181c-27 46 -65 74 -105 74c-74 0 -126 -72 -126 -234v-358c0 -58 9 -69 75 -69c4 0 4 -12 0 -12c-40 0 -78 2 -117 2c-38 0 -75 -2 -103 -2c-5 0 -5 12 0 12c52 0 63 11 63 69v337
c0 183 98 273 241 273c49 0 89 -12 114 -25c37 41 88 60 151 60c61 0 102 -17 130 -39c10 13 15 29 15 43c0 3 12 3 12 0v-404c37 37 84 73 149 73zM875 6c65 0 99 62 99 171c0 120 -47 176 -116 176c-39 0 -75 -20 -106 -45v-206c33 -68 79 -96 123 -96z" />
    <glyph glyph-name="longs_longs_h.liga" unicode="&#x17f;&#x17f;h" horiz-adv-x="1097" 
d="M1078 12c5 0 5 -12 0 -12c-25 0 -59 2 -97 2c-37 0 -71 -2 -98 -2c-3 0 -3 12 0 12c46 0 57 15 57 69v149c0 74 -27 109 -85 109c-35 0 -75 -17 -103 -45v-213c0 -54 13 -69 57 -69c5 0 5 -12 0 -12c-25 0 -59 2 -97 2c-37 0 -71 -2 -98 -2c-3 0 -3 12 0 12
c46 0 57 15 57 69v551c-26 48 -61 77 -101 77c-67 0 -113 -75 -113 -270v-358c0 -58 11 -69 93 -69c4 0 4 -12 0 -12c-46 0 -89 2 -135 2c-37 0 -75 -2 -103 -2c-4 0 -4 12 0 12c53 0 63 11 63 69v337c0 74 10 133 28 180c-27 46 -66 75 -106 75c-74 0 -126 -72 -126 -234
v-358c0 -58 9 -69 75 -69c4 0 4 -12 0 -12c-40 0 -78 2 -117 2c-38 0 -75 -2 -103 -2c-5 0 -5 12 0 12c52 0 63 11 63 69v337c0 183 98 273 241 273c50 0 90 -12 114 -25c37 41 89 60 152 60c62 0 102 -17 130 -39c9 13 14 29 14 43c0 3 12 3 12 0v-416c45 53 97 84 153 84
c74 0 116 -49 116 -124v-193c0 -54 13 -69 57 -69z" />
    <glyph glyph-name="longs_longs_i.liga" unicode="&#x17f;&#x17f;i" horiz-adv-x="837" 
d="M571 708c-66 0 -118 -79 -118 -269v-358c0 -58 9 -69 87 -69c5 0 5 -12 0 -12c-44 0 -86 2 -131 2c-37 0 -74 -2 -103 -2c-4 0 -4 12 0 12c53 0 64 11 64 69v337c0 76 11 137 31 183c-27 45 -65 72 -104 72c-74 0 -126 -72 -126 -234v-358c0 -58 9 -69 75 -69
c4 0 4 -12 0 -12c-40 0 -78 2 -117 2c-38 0 -75 -2 -103 -2c-5 0 -5 12 0 12c52 0 63 11 63 69v337c0 183 98 273 241 273c49 0 89 -12 113 -25c39 41 93 60 158 60c82 0 132 -30 132 -70c0 -23 -16 -38 -44 -38c-61 0 -49 90 -118 90zM799 12c5 0 5 -12 0 -12
c-26 0 -61 2 -97 2c-38 0 -73 -2 -98 -2c-4 0 -4 12 0 12c44 0 57 15 57 69v181c0 67 -17 80 -70 54c-6 -3 -11 10 -7 11l143 68c8 4 17 -6 17 -11c0 -14 -2 -52 -2 -120v-183c0 -54 11 -69 57 -69z" />
    <glyph glyph-name="longs_longs_j.liga" unicode="&#x17f;&#x17f;j" horiz-adv-x="820" 
d="M540 12c5 0 5 -12 0 -12c-44 0 -86 2 -131 2c-37 0 -74 -2 -103 -2c-4 0 -4 12 0 12c53 0 64 11 64 69v337c0 76 11 137 31 183c-27 45 -65 72 -104 72c-74 0 -126 -72 -126 -234v-358c0 -58 9 -69 75 -69c4 0 4 -12 0 -12c-40 0 -78 2 -117 2c-38 0 -75 -2 -103 -2
c-5 0 -5 12 0 12c52 0 63 11 63 69v337c0 183 98 273 241 273c49 0 89 -12 113 -25c39 41 93 60 158 60c82 0 132 -30 132 -70c0 -23 -16 -38 -44 -38c-61 0 -49 90 -118 90c-66 0 -118 -79 -118 -269v-358c0 -58 9 -69 87 -69zM726 395c7 4 17 -6 17 -11
c0 -14 -3 -52 -3 -120v-312c0 -133 -39 -191 -165 -232c-3 -1 -8 10 -4 11c65 28 89 84 89 198v333c0 67 -17 80 -71 54c-5 -3 -10 10 -7 11z" />
    <glyph glyph-name="longs_longs_k.liga" unicode="&#x17f;&#x17f;k" horiz-adv-x="1083" 
d="M1084 12c4 0 4 -12 0 -12c-26 0 -59 2 -97 2c-52 0 -89 -2 -122 -2c-3 0 -3 12 0 12c41 0 52 16 33 41l-117 153l-29 -26v-99c0 -54 13 -69 57 -69c5 0 5 -12 0 -12c-25 0 -59 2 -97 2c-37 0 -71 -2 -98 -2c-3 0 -3 12 0 12c46 0 57 15 57 69v551c-26 48 -61 77 -101 77
c-67 0 -113 -75 -113 -270v-358c0 -58 11 -69 93 -69c4 0 4 -12 0 -12c-46 0 -89 2 -135 2c-37 0 -75 -2 -103 -2c-4 0 -4 12 0 12c53 0 63 11 63 69v337c0 74 10 133 28 180c-27 46 -66 75 -106 75c-74 0 -126 -72 -126 -234v-358c0 -58 9 -69 75 -69c4 0 4 -12 0 -12
c-40 0 -78 2 -117 2c-38 0 -75 -2 -103 -2c-5 0 -5 12 0 12c52 0 63 11 63 69v337c0 183 98 273 241 273c50 0 90 -12 114 -25c37 41 89 60 152 60c62 0 102 -17 130 -39c9 13 14 29 14 43c0 3 12 3 12 0v-528l106 96c43 38 38 76 -16 76c-3 0 -3 12 0 12c35 0 63 -2 122 -2
c52 0 79 2 109 2c3 0 3 -12 0 -12c-51 0 -128 -25 -191 -80l-43 -38l134 -175c39 -51 74 -69 111 -69z" />
    <glyph glyph-name="longs_longs_l.liga" unicode="&#x17f;&#x17f;l" horiz-adv-x="836" 
d="M811 12c4 0 4 -12 0 -12c-26 0 -60 2 -99 2c-36 0 -71 -2 -97 -2c-3 0 -3 12 0 12c45 0 58 15 58 69v547c-26 51 -62 81 -103 81c-67 0 -113 -75 -113 -270v-358c0 -58 11 -69 93 -69c4 0 4 -12 0 -12c-46 0 -89 2 -135 2c-37 0 -75 -2 -103 -2c-4 0 -4 12 0 12
c53 0 63 11 63 69v337c0 74 10 133 28 180c-27 46 -66 75 -106 75c-74 0 -126 -72 -126 -234v-358c0 -58 9 -69 75 -69c4 0 4 -12 0 -12c-40 0 -78 2 -117 2c-38 0 -75 -2 -103 -2c-5 0 -5 12 0 12c52 0 63 11 63 69v337c0 183 98 273 241 273c50 0 90 -12 114 -25
c37 41 89 60 152 60s103 -17 131 -40c10 14 15 30 15 44c0 3 11 3 11 0v-649c0 -54 13 -69 58 -69z" />
    <glyph glyph-name="longs_longs_thorn.liga" unicode="&#x17f;&#x17f;&#xfe;" horiz-adv-x="1094" 
d="M842 -13c-36 0 -62 4 -92 15v-196c0 -57 13 -69 92 -69c4 0 4 -12 0 -12c-37 0 -84 2 -133 2c-38 0 -74 -2 -100 -2c-3 0 -3 12 0 12c49 0 59 12 59 69v831c-25 46 -59 72 -98 72c-67 0 -113 -75 -113 -270v-358c0 -58 11 -69 93 -69c4 0 4 -12 0 -12c-46 0 -89 2 -135 2
c-37 0 -75 -2 -103 -2c-4 0 -4 12 0 12c53 0 63 11 63 69v337c0 74 10 133 28 180c-27 46 -66 75 -106 75c-74 0 -126 -72 -126 -234v-358c0 -58 9 -69 75 -69c4 0 4 -12 0 -12c-40 0 -78 2 -117 2c-38 0 -75 -2 -103 -2c-5 0 -5 12 0 12c52 0 63 11 63 69v337
c0 183 98 273 241 273c50 0 90 -12 114 -25c37 41 89 60 152 60c61 0 100 -16 128 -38c9 13 14 29 14 42c0 3 12 3 12 0v-402c53 49 102 71 154 71c82 0 157 -67 157 -184c0 -167 -124 -228 -219 -228zM846 349c-39 0 -68 -17 -96 -42v-243c28 -31 60 -53 114 -53
c66 0 109 56 109 173c0 110 -58 165 -127 165z" />
    <glyph glyph-name=".notdef" horiz-adv-x="501" 
d="M94 -275v1000h317v-1000h-317zM168 626h65v-38h-66v-32h166v32h-66v38h66v32h-165v-32zM167 426h166v34h-66v69h-100v-103zM200 460v35h33v-35h-33zM167 365h66v-36h-66v-34h100v70h66v33h-166v-33zM301 273h-134v-34h166v99h-32v-65zM233 160h34v24h34v-48h-101v80h-33
v-113h166v113h-100v-56zM167 -70h166v113h-166v-113zM200 -37v48h101v-48h-101zM167 -126h70l-70 -47v-33h166v33h-101l69 47h32v34h-166v-34z" />
    <glyph glyph-name="A" unicode="A" horiz-adv-x="711" 
d="M711 12c6 0 6 -12 0 -12c-39 0 -83 4 -122 4c-45 0 -72 -4 -112 -4c-6 0 -6 12 0 12c60 0 70 17 39 79l-108 219h-181l-77 -173c-35 -81 3 -125 82 -125c6 0 6 -12 0 -12c-39 0 -66 4 -118 4c-50 0 -73 -4 -116 -4c-6 0 -6 12 0 12c54 0 79 26 128 135l214 484
c1 3 15 4 17 0l244 -494c48 -96 74 -125 110 -125zM238 336h157l-82 167z" />
    <glyph glyph-name="Aacute" unicode="&#xc1;" horiz-adv-x="711" 
d="M253 678c-6 -2 -9 9 -5 11c53 33 94 69 138 100c11 9 111 -29 89 -33c-89 -23 -154 -47 -222 -78zM711 12c6 0 6 -12 0 -12c-40 0 -83 4 -123 4c-44 0 -71 -4 -111 -4c-6 0 -6 12 0 12c61 0 70 17 39 79l-108 219h-181l-76 -173c-36 -81 2 -125 82 -125c6 0 6 -12 0 -12
c-40 0 -67 4 -118 4s-74 -4 -117 -4c-6 0 -6 12 0 12c53 0 79 25 127 134l215 484c2 4 16 5 17 0l244 -493c48 -96 74 -125 110 -125zM239 336h156l-83 167z" />
    <glyph glyph-name="Abreve" unicode="&#x102;" horiz-adv-x="711" 
d="M350 690c-63 0 -99 42 -103 119c0 5 11 6 11 3c3 -28 43 -56 92 -56c48 0 88 28 91 56c0 3 11 2 11 -3c-4 -77 -39 -119 -102 -119zM711 12c6 0 6 -12 0 -12c-40 0 -83 4 -123 4c-44 0 -71 -4 -111 -4c-6 0 -6 12 0 12c61 0 70 17 39 79l-108 219h-181l-76 -173
c-36 -81 2 -125 82 -125c6 0 6 -12 0 -12c-40 0 -67 4 -118 4s-74 -4 -117 -4c-6 0 -6 12 0 12c53 0 79 25 127 134l215 484c2 4 16 5 17 0l244 -493c48 -96 74 -125 110 -125zM239 336h156l-83 167z" />
    <glyph glyph-name="uni1EAE" unicode="&#x1eae;" horiz-adv-x="711" 
d="M294 771c-5 -4 -11 6 -9 9c24 34 47 70 65 102c6 12 111 -26 90 -34c-59 -22 -102 -47 -146 -77zM350 663c-63 0 -100 42 -103 121c0 4 10 4 10 1c4 -27 44 -56 93 -56c48 0 87 29 91 56c0 3 10 3 10 -1c-3 -79 -38 -121 -101 -121zM711 12c6 0 6 -12 0 -12
c-40 0 -83 4 -123 4c-44 0 -71 -4 -111 -4c-6 0 -6 12 0 12c61 0 70 17 39 79l-108 219h-181l-76 -173c-36 -81 2 -125 82 -125c6 0 6 -12 0 -12c-40 0 -67 4 -118 4s-74 -4 -117 -4c-6 0 -6 12 0 12c53 0 79 25 127 134l215 484c2 4 16 5 17 0l244 -493
c48 -96 74 -125 110 -125zM239 336h156l-83 167z" />
    <glyph glyph-name="uni1EB6" unicode="&#x1eb6;" horiz-adv-x="711" 
d="M350 690c-63 0 -99 42 -103 119c0 5 11 6 11 3c3 -28 43 -56 92 -56c48 0 88 28 91 56c0 3 11 2 11 -3c-4 -77 -39 -119 -102 -119zM711 12c6 0 6 -12 0 -12c-40 0 -83 4 -123 4c-44 0 -71 -4 -111 -4c-6 0 -6 12 0 12c61 0 70 17 39 79l-108 219h-181l-76 -173
c-36 -81 2 -125 82 -125c6 0 6 -12 0 -12c-40 0 -67 4 -118 4s-74 -4 -117 -4c-6 0 -6 12 0 12c53 0 79 25 127 134l215 484c2 4 16 5 17 0l244 -493c48 -96 74 -125 110 -125zM239 336h156l-83 167zM357 -95c34 0 52 -20 52 -51c0 -35 -18 -55 -52 -55s-55 20 -55 55
c0 31 21 51 55 51z" />
    <glyph glyph-name="uni1EB0" unicode="&#x1eb0;" horiz-adv-x="711" 
d="M258 848c-22 8 84 46 89 34c18 -32 39 -68 62 -101c3 -4 -2 -13 -8 -10c-44 30 -84 54 -143 77zM350 663c-63 0 -100 42 -103 121c0 4 10 4 10 1c4 -27 44 -56 93 -56c48 0 87 29 91 56c0 3 10 3 10 -1c-3 -79 -38 -121 -101 -121zM711 12c6 0 6 -12 0 -12
c-40 0 -83 4 -123 4c-44 0 -71 -4 -111 -4c-6 0 -6 12 0 12c61 0 70 17 39 79l-108 219h-181l-76 -173c-36 -81 2 -125 82 -125c6 0 6 -12 0 -12c-40 0 -67 4 -118 4s-74 -4 -117 -4c-6 0 -6 12 0 12c53 0 79 25 127 134l215 484c2 4 16 5 17 0l244 -493
c48 -96 74 -125 110 -125zM239 336h156l-83 167z" />
    <glyph glyph-name="uni1EB2" unicode="&#x1eb2;" horiz-adv-x="711" 
d="M308 875c-4 -2 -12 6 -7 8c21 13 43 19 60 19c33 0 53 -21 53 -44c0 -42 -68 -63 -64 -98c0 -2 -11 -3 -12 0c-9 34 21 58 21 87c0 23 -17 31 -32 31c-7 0 -14 -1 -19 -3zM350 663c-63 0 -100 42 -103 121c0 4 10 4 10 1c4 -27 44 -56 93 -56c48 0 87 29 91 56
c0 3 10 3 10 -1c-3 -79 -38 -121 -101 -121zM711 12c6 0 6 -12 0 -12c-40 0 -83 4 -123 4c-44 0 -71 -4 -111 -4c-6 0 -6 12 0 12c61 0 70 17 39 79l-108 219h-181l-76 -173c-36 -81 2 -125 82 -125c6 0 6 -12 0 -12c-40 0 -67 4 -118 4s-74 -4 -117 -4c-6 0 -6 12 0 12
c53 0 79 25 127 134l215 484c2 4 16 5 17 0l244 -493c48 -96 74 -125 110 -125zM239 336h156l-83 167z" />
    <glyph glyph-name="uni1EB4" unicode="&#x1eb4;" horiz-adv-x="711" 
d="M226 805c-3 -3 -10 3 -7 7c16 27 49 73 86 73c30 0 77 -24 123 -24c23 0 34 9 50 27c3 2 10 -4 7 -7c-36 -60 -53 -74 -81 -74c-39 0 -81 25 -128 25c-28 0 -35 -12 -50 -27zM442 792c0 3 11 2 11 -3c-4 -77 -39 -119 -102 -119s-100 42 -103 119c0 5 10 6 10 3
c4 -28 44 -56 93 -56c48 0 88 28 91 56zM711 12c6 0 6 -12 0 -12c-40 0 -83 4 -123 4c-44 0 -71 -4 -111 -4c-6 0 -6 12 0 12c61 0 70 17 39 79l-108 219h-181l-76 -173c-36 -81 2 -125 82 -125c6 0 6 -12 0 -12c-40 0 -67 4 -118 4s-74 -4 -117 -4c-6 0 -6 12 0 12
c53 0 79 25 127 134l215 484c2 4 16 5 17 0l244 -493c48 -96 74 -125 110 -125zM239 336h156l-83 167z" />
    <glyph glyph-name="uni01CD" unicode="&#x1cd;" horiz-adv-x="711" 
d="M338 687l-103 109c-3 3 4 9 6 8l109 -46l108 46c3 2 8 -4 5 -8l-102 -109c-6 -6 -17 -6 -23 0zM711 12c6 0 6 -12 0 -12c-40 0 -83 4 -123 4c-44 0 -71 -4 -111 -4c-6 0 -6 12 0 12c61 0 70 17 39 79l-108 219h-181l-76 -173c-36 -81 2 -125 82 -125c6 0 6 -12 0 -12
c-40 0 -67 4 -118 4s-74 -4 -117 -4c-6 0 -6 12 0 12c53 0 79 25 127 134l215 484c2 4 16 5 17 0l244 -493c48 -96 74 -125 110 -125zM239 336h156l-83 167z" />
    <glyph glyph-name="Acircumflex" unicode="&#xc2;" horiz-adv-x="711" 
d="M241 648c-2 -1 -9 5 -6 7l103 110c6 6 17 6 23 0l102 -110c4 -2 -2 -9 -5 -7l-108 44zM711 12c6 0 6 -12 0 -12c-40 0 -83 4 -123 4c-44 0 -71 -4 -111 -4c-6 0 -6 12 0 12c61 0 70 17 39 79l-108 219h-181l-76 -173c-36 -81 2 -125 82 -125c6 0 6 -12 0 -12
c-40 0 -67 4 -118 4s-74 -4 -117 -4c-6 0 -6 12 0 12c53 0 79 25 127 134l215 484c2 4 16 5 17 0l244 -493c48 -96 74 -125 110 -125zM239 336h156l-83 167z" />
    <glyph glyph-name="uni1EA4" unicode="&#x1ea4;" horiz-adv-x="711" 
d="M416 739c-4 -3 -10 6 -8 10c24 33 47 70 65 101c5 12 111 -25 90 -34c-59 -22 -102 -46 -147 -77zM241 648c-2 -1 -9 5 -6 7l103 110c6 6 16 6 22 0l103 -110c4 -2 -2 -9 -6 -7l-107 44zM711 12c6 0 6 -12 0 -12c-40 0 -83 4 -123 4c-44 0 -71 -4 -111 -4
c-6 0 -6 12 0 12c61 0 70 17 39 79l-108 219h-181l-76 -173c-36 -81 2 -125 82 -125c6 0 6 -12 0 -12c-40 0 -67 4 -118 4s-74 -4 -117 -4c-6 0 -6 12 0 12c53 0 79 25 127 134l215 484c2 4 16 5 17 0l244 -493c48 -96 74 -125 110 -125zM239 336h156l-83 167z" />
    <glyph glyph-name="uni1EAC" unicode="&#x1eac;" horiz-adv-x="711" 
d="M241 648c-2 -1 -9 5 -6 7l103 110c6 6 17 6 23 0l102 -110c4 -2 -2 -9 -5 -7l-108 44zM711 12c6 0 6 -12 0 -12c-40 0 -83 4 -123 4c-44 0 -71 -4 -111 -4c-6 0 -6 12 0 12c61 0 70 17 39 79l-108 219h-181l-76 -173c-36 -81 2 -125 82 -125c6 0 6 -12 0 -12
c-40 0 -67 4 -118 4s-74 -4 -117 -4c-6 0 -6 12 0 12c53 0 79 25 127 134l215 484c2 4 16 5 17 0l244 -493c48 -96 74 -125 110 -125zM239 336h156l-83 167zM357 -95c34 0 52 -20 52 -51c0 -35 -18 -55 -52 -55s-55 20 -55 55c0 31 21 51 55 51z" />
    <glyph glyph-name="uni1EA6" unicode="&#x1ea6;" horiz-adv-x="711" 
d="M365 796c-22 9 83 46 89 34c17 -31 38 -67 62 -100c2 -5 -3 -13 -8 -11c-45 31 -85 54 -143 77zM241 648c-2 -1 -9 5 -6 7l103 110c6 6 16 6 22 0l103 -110c4 -2 -2 -9 -6 -7l-107 44zM711 12c6 0 6 -12 0 -12c-40 0 -83 4 -123 4c-44 0 -71 -4 -111 -4c-6 0 -6 12 0 12
c61 0 70 17 39 79l-108 219h-181l-76 -173c-36 -81 2 -125 82 -125c6 0 6 -12 0 -12c-40 0 -67 4 -118 4s-74 -4 -117 -4c-6 0 -6 12 0 12c53 0 79 25 127 134l215 484c2 4 16 5 17 0l244 -493c48 -96 74 -125 110 -125zM239 336h156l-83 167z" />
    <glyph glyph-name="uni1EA8" unicode="&#x1ea8;" horiz-adv-x="711" 
d="M406 842c-4 -2 -12 6 -7 8c21 13 43 19 61 19c32 0 52 -21 52 -43c0 -42 -68 -63 -64 -99c0 -2 -11 -3 -12 0c-9 34 21 58 21 87c0 23 -17 32 -31 32c-7 0 -14 -2 -20 -4zM241 648c-2 -1 -9 5 -6 7l103 110c6 6 16 6 22 0l103 -110c4 -2 -2 -9 -6 -7l-107 44zM711 12
c6 0 6 -12 0 -12c-40 0 -83 4 -123 4c-44 0 -71 -4 -111 -4c-6 0 -6 12 0 12c61 0 70 17 39 79l-108 219h-181l-76 -173c-36 -81 2 -125 82 -125c6 0 6 -12 0 -12c-40 0 -67 4 -118 4s-74 -4 -117 -4c-6 0 -6 12 0 12c53 0 79 25 127 134l215 484c2 4 16 5 17 0l244 -493
c48 -96 74 -125 110 -125zM239 336h156l-83 167z" />
    <glyph glyph-name="uni1EAA" unicode="&#x1eaa;" horiz-adv-x="711" 
d="M232 782c-3 -2 -10 4 -7 7c16 27 49 74 86 74c29 0 77 -24 123 -24c23 0 34 9 50 26c3 3 10 -3 7 -7c-36 -59 -54 -73 -82 -73c-38 0 -80 24 -127 24c-28 0 -35 -11 -50 -27zM360 765l103 -110c4 -2 -2 -9 -6 -7l-107 44l-109 -44c-2 -1 -9 5 -6 7l103 110c6 6 16 6 22 0
zM711 12c6 0 6 -12 0 -12c-40 0 -83 4 -123 4c-44 0 -71 -4 -111 -4c-6 0 -6 12 0 12c61 0 70 17 39 79l-108 219h-181l-76 -173c-36 -81 2 -125 82 -125c6 0 6 -12 0 -12c-40 0 -67 4 -118 4s-74 -4 -117 -4c-6 0 -6 12 0 12c53 0 79 25 127 134l215 484c2 4 16 5 17 0
l244 -493c48 -96 74 -125 110 -125zM239 336h156l-83 167z" />
    <glyph glyph-name="Adieresis" unicode="&#xc4;" horiz-adv-x="711" 
d="M263 708c-31 0 -51 17 -51 50c0 29 20 48 51 48s50 -19 50 -48c0 -33 -19 -50 -50 -50zM438 708c-32 0 -51 17 -51 50c0 29 19 47 51 47c30 0 48 -18 48 -47c0 -33 -18 -50 -48 -50zM711 12c6 0 6 -12 0 -12c-40 0 -83 4 -123 4c-44 0 -71 -4 -111 -4c-6 0 -6 12 0 12
c61 0 70 17 39 79l-108 219h-181l-76 -173c-36 -81 2 -125 82 -125c6 0 6 -12 0 -12c-40 0 -67 4 -118 4s-74 -4 -117 -4c-6 0 -6 12 0 12c53 0 79 25 127 134l215 484c2 4 16 5 17 0l244 -493c48 -96 74 -125 110 -125zM239 336h156l-83 167z" />
    <glyph glyph-name="uni1EA0" unicode="&#x1ea0;" horiz-adv-x="711" 
d="M711 12c6 0 6 -12 0 -12c-40 0 -83 4 -123 4c-44 0 -71 -4 -111 -4c-6 0 -6 12 0 12c61 0 70 17 39 79l-108 219h-181l-76 -173c-36 -81 2 -125 82 -125c6 0 6 -12 0 -12c-40 0 -67 4 -118 4s-74 -4 -117 -4c-6 0 -6 12 0 12c53 0 79 25 127 134l215 484c2 4 16 5 17 0
l244 -493c48 -96 74 -125 110 -125zM239 336h156l-83 167zM357 -95c34 0 52 -20 52 -51c0 -35 -18 -55 -52 -55s-55 20 -55 55c0 31 21 51 55 51z" />
    <glyph glyph-name="Agrave" unicode="&#xc0;" horiz-adv-x="711" 
d="M227 756c-23 4 79 42 89 33c43 -31 85 -67 138 -100c5 -2 1 -13 -5 -11c-67 31 -133 55 -222 78zM711 12c6 0 6 -12 0 -12c-40 0 -83 4 -123 4c-44 0 -71 -4 -111 -4c-6 0 -6 12 0 12c61 0 70 17 39 79l-108 219h-181l-76 -173c-36 -81 2 -125 82 -125c6 0 6 -12 0 -12
c-40 0 -67 4 -118 4s-74 -4 -117 -4c-6 0 -6 12 0 12c53 0 79 25 127 134l215 484c2 4 16 5 17 0l244 -493c48 -96 74 -125 110 -125zM239 336h156l-83 167z" />
    <glyph glyph-name="uni1EA2" unicode="&#x1ea2;" horiz-adv-x="711" 
d="M303 814c-3 -2 -10 6 -7 8c24 18 51 26 77 26c41 0 68 -21 68 -52c0 -58 -93 -95 -89 -145c0 -2 -10 -3 -11 0c-14 60 29 88 29 135c0 26 -13 37 -33 37c-10 0 -22 -3 -34 -9zM711 12c6 0 6 -12 0 -12c-40 0 -83 4 -123 4c-44 0 -71 -4 -111 -4c-6 0 -6 12 0 12
c61 0 70 17 39 79l-108 219h-181l-76 -173c-36 -81 2 -125 82 -125c6 0 6 -12 0 -12c-40 0 -67 4 -118 4s-74 -4 -117 -4c-6 0 -6 12 0 12c53 0 79 25 127 134l215 484c2 4 16 5 17 0l244 -493c48 -96 74 -125 110 -125zM239 336h156l-83 167z" />
    <glyph glyph-name="Amacron" unicode="&#x100;" horiz-adv-x="711" 
d="M224 716c-12 0 -12 34 0 34h251c12 0 12 -34 0 -34h-251zM711 12c6 0 6 -12 0 -12c-40 0 -83 4 -123 4c-44 0 -71 -4 -111 -4c-6 0 -6 12 0 12c61 0 70 17 39 79l-108 219h-181l-76 -173c-36 -81 2 -125 82 -125c6 0 6 -12 0 -12c-40 0 -67 4 -118 4s-74 -4 -117 -4
c-6 0 -6 12 0 12c53 0 79 25 127 134l215 484c2 4 16 5 17 0l244 -493c48 -96 74 -125 110 -125zM239 336h156l-83 167z" />
    <glyph glyph-name="Aogonek" unicode="&#x104;" horiz-adv-x="712" 
d="M711 9c6 0 6 -11 0 -11c-44 0 -73 3 -107 3c-69 0 -110 -48 -110 -120s37 -118 94 -118c19 0 35 5 46 12c4 2 11 -5 7 -9c-35 -29 -69 -41 -109 -41c-76 0 -120 44 -120 107c0 124 168 131 104 258l-109 220h-180l-77 -173c-34 -81 3 -125 82 -125c6 0 6 -12 0 -12
c-39 0 -66 4 -118 4c-50 0 -73 -4 -116 -4c-6 0 -6 12 0 12c54 0 80 26 127 135l215 484c1 3 15 4 17 0l244 -495c45 -91 75 -127 110 -127zM238 336h156l-82 165z" />
    <glyph glyph-name="Aring" unicode="&#xc5;" horiz-adv-x="711" 
d="M343 661c-63 0 -101 38 -101 79c0 52 60 78 110 78c55 0 101 -36 101 -80c0 -49 -57 -77 -110 -77zM332 805c-18 0 -26 -14 -26 -45c0 -40 18 -86 52 -86c21 0 31 15 31 46c0 46 -25 85 -57 85zM711 12c6 0 6 -12 0 -12c-40 0 -83 4 -123 4c-44 0 -71 -4 -111 -4
c-6 0 -6 12 0 12c61 0 70 17 39 79l-108 219h-181l-76 -173c-36 -81 2 -125 82 -125c6 0 6 -12 0 -12c-40 0 -67 4 -118 4s-74 -4 -117 -4c-6 0 -6 12 0 12c53 0 79 25 127 134l215 484c2 4 16 5 17 0l244 -493c48 -96 74 -125 110 -125zM239 336h156l-83 167z" />
    <glyph glyph-name="Aringacute" unicode="&#x1fa;" horiz-adv-x="711" 
d="M259 819c-6 -1 -10 8 -5 10c53 27 84 45 132 69c11 6 88 -41 73 -42c-80 -12 -138 -23 -200 -37zM252 743c0 43 54 65 100 65c55 0 101 -30 101 -68c0 -42 -57 -65 -110 -65c-57 0 -91 33 -91 68zM389 723c0 40 -23 72 -54 72c-19 0 -29 -10 -29 -32c0 -36 18 -75 52 -75
c21 0 31 10 31 35zM711 12c6 0 6 -12 0 -12c-40 0 -83 4 -123 4c-44 0 -71 -4 -111 -4c-6 0 -6 12 0 12c61 0 70 17 39 79l-108 219h-181l-76 -173c-36 -81 2 -125 82 -125c6 0 6 -12 0 -12c-40 0 -67 4 -118 4s-74 -4 -117 -4c-6 0 -6 12 0 12c53 0 79 25 127 134l215 484
c2 4 16 5 17 0l244 -493c48 -96 74 -125 110 -125zM239 336h156l-83 167z" />
    <glyph glyph-name="Atilde" unicode="&#xc3;" horiz-adv-x="711" 
d="M228 697c-2 -2 -9 4 -7 7c17 27 48 75 87 75c29 0 77 -25 122 -25c24 0 35 9 51 27c2 3 9 -3 7 -7c-36 -61 -55 -75 -82 -75c-38 0 -81 25 -127 25c-28 0 -35 -12 -51 -27zM711 12c6 0 6 -12 0 -12c-40 0 -83 4 -123 4c-44 0 -71 -4 -111 -4c-6 0 -6 12 0 12
c61 0 70 17 39 79l-108 219h-181l-76 -173c-36 -81 2 -125 82 -125c6 0 6 -12 0 -12c-40 0 -67 4 -118 4s-74 -4 -117 -4c-6 0 -6 12 0 12c53 0 79 25 127 134l215 484c2 4 16 5 17 0l244 -493c48 -96 74 -125 110 -125zM239 336h156l-83 167z" />
    <glyph glyph-name="AE" unicode="&#xc6;" horiz-adv-x="883" 
d="M825 156c1 3 12 1 12 -2c-5 -38 -9 -95 -9 -139c0 -11 -4 -15 -16 -15h-426c-4 0 -4 12 0 12c64 0 76 11 76 69v231h-158l-116 -178c-49 -77 -32 -122 48 -122c6 0 6 -12 0 -12c-46 0 -76 4 -135 4c-46 0 -66 -4 -105 -4c-6 0 -6 12 0 12c52 0 97 36 152 120l293 442
c25 35 19 39 -64 39c-4 0 -4 12 0 12h418c7 0 9 -3 9 -9l3 -130c0 -3 -11 -4 -12 -1c-9 51 -63 114 -131 114h-46c-49 0 -65 -15 -65 -56v-205h93c74 0 109 26 109 74c0 4 12 4 12 0c0 -43 -1 -61 -1 -87c0 -33 2 -62 2 -98c0 -4 -12 -4 -12 0c0 55 -36 85 -112 85h-91v-227
c0 -43 14 -59 56 -59h54c70 0 143 58 162 130zM321 338h141v217z" />
    <glyph glyph-name="AEacute" unicode="&#x1fc;" horiz-adv-x="883" 
d="M482 678c-6 -2 -9 9 -5 11c53 33 94 69 138 100c11 9 111 -29 89 -33c-89 -23 -154 -47 -222 -78zM826 156c0 3 11 1 11 -3c-4 -37 -9 -95 -9 -138c0 -11 -3 -15 -15 -15h-427c-4 0 -4 12 0 12c64 0 76 11 76 69v231h-159l-115 -177c-49 -78 -31 -123 48 -123
c6 0 6 -12 0 -12c-45 0 -76 4 -135 4c-46 0 -66 -4 -105 -4c-5 0 -5 12 0 12c52 0 96 36 153 120l292 442c24 35 19 39 -64 39c-4 0 -4 12 0 12h418c7 0 10 -3 10 -9l2 -129c0 -4 -12 -5 -12 -2c-9 51 -63 114 -131 114h-46c-48 0 -65 -15 -65 -56v-205h93
c73 0 110 27 110 74c0 3 11 3 11 0c0 -42 -1 -61 -1 -87c0 -33 2 -62 2 -98c0 -4 -11 -4 -11 0c0 55 -38 85 -113 85h-91v-227c0 -43 13 -59 56 -59h54c70 0 143 58 163 130zM320 338h142v217z" />
    <glyph glyph-name="uni01E2" unicode="&#x1e2;" horiz-adv-x="883" 
d="M453 716c-12 0 -12 34 0 34h251c12 0 12 -34 0 -34h-251zM826 156c0 3 11 1 11 -3c-4 -37 -9 -95 -9 -138c0 -11 -3 -15 -15 -15h-427c-4 0 -4 12 0 12c64 0 76 11 76 69v231h-159l-115 -177c-49 -78 -31 -123 48 -123c6 0 6 -12 0 -12c-45 0 -76 4 -135 4
c-46 0 -66 -4 -105 -4c-5 0 -5 12 0 12c52 0 96 36 153 120l292 442c24 35 19 39 -64 39c-4 0 -4 12 0 12h418c7 0 10 -3 10 -9l2 -129c0 -4 -12 -5 -12 -2c-9 51 -63 114 -131 114h-46c-48 0 -65 -15 -65 -56v-205h93c73 0 110 27 110 74c0 3 11 3 11 0
c0 -42 -1 -61 -1 -87c0 -33 2 -62 2 -98c0 -4 -11 -4 -11 0c0 55 -38 85 -113 85h-91v-227c0 -43 13 -59 56 -59h54c70 0 143 58 163 130zM320 338h142v217z" />
    <glyph glyph-name="B" unicode="B" horiz-adv-x="583" 
d="M351 351c110 -12 180 -78 180 -169c0 -106 -94 -186 -220 -186c-38 0 -100 6 -145 6c-46 0 -90 -2 -124 -2c-4 0 -4 12 0 12c61 0 77 11 77 69v463c0 57 -15 69 -76 69c-3 0 -3 12 0 12c34 0 77 -3 123 -3c37 0 82 6 121 6c119 0 183 -49 183 -130
c0 -63 -42 -117 -119 -147zM270 608c-41 0 -55 -11 -55 -66v-190c24 -1 40 -1 42 -1c82 0 119 61 119 138c0 74 -35 119 -106 119zM294 19c95 0 136 51 136 139c0 98 -50 168 -155 168c-14 0 -36 0 -60 -2v-243c0 -43 10 -62 79 -62z" />
    <glyph glyph-name="C" unicode="C" horiz-adv-x="669" 
d="M419 636c58 0 131 -11 170 -29c12 -6 14 -10 15 -24l12 -130c0 -3 -9 -6 -11 -1c-39 104 -120 160 -225 160c-141 0 -222 -109 -222 -269c0 -186 107 -336 251 -336c87 0 157 53 205 168c2 5 12 2 12 -1l-15 -128c-3 -16 -4 -19 -15 -23c-63 -25 -125 -35 -186 -35
c-257 0 -361 177 -361 328c0 194 177 320 370 320z" />
    <glyph glyph-name="Cacute" unicode="&#x106;" horiz-adv-x="669" 
d="M282 678c-6 -2 -9 9 -5 11c53 33 94 69 138 100c11 9 111 -29 89 -33c-89 -23 -154 -47 -222 -78zM419 636c58 0 131 -11 170 -29c12 -6 13 -9 15 -23l12 -131c0 -4 -9 -6 -11 -2c-39 105 -120 161 -225 161c-141 0 -222 -109 -222 -269c0 -186 106 -336 251 -336
c87 0 157 53 205 168c2 5 12 3 12 -1l-15 -128c-3 -17 -4 -19 -16 -24c-62 -24 -125 -34 -186 -34c-257 0 -360 177 -360 328c0 194 177 320 370 320z" />
    <glyph glyph-name="Ccaron" unicode="&#x10c;" horiz-adv-x="669" 
d="M367 687l-103 109c-3 3 4 9 6 8l109 -46l108 46c3 2 8 -4 5 -8l-103 -109c-5 -6 -16 -6 -22 0zM419 636c58 0 131 -11 170 -29c12 -6 13 -9 15 -23l12 -131c0 -4 -9 -6 -11 -2c-39 105 -120 161 -225 161c-141 0 -222 -109 -222 -269c0 -186 106 -336 251 -336
c87 0 157 53 205 168c2 5 12 3 12 -1l-15 -128c-3 -17 -4 -19 -16 -24c-62 -24 -125 -34 -186 -34c-257 0 -360 177 -360 328c0 194 177 320 370 320z" />
    <glyph glyph-name="Ccedilla" unicode="&#xc7;" horiz-adv-x="669" 
d="M614 175c2 5 12 3 12 -1l-15 -128c-3 -17 -4 -19 -16 -24c-62 -24 -125 -34 -186 -34h-16c-11 -44 -3 -61 36 -84c28 -16 55 -37 55 -77c0 -46 -32 -102 -116 -102c-45 0 -72 14 -72 45c0 18 17 36 37 36c50 0 23 -59 71 -59c16 0 27 10 27 30c0 35 -21 58 -84 93
c-12 6 -13 11 -6 28c16 42 19 48 34 91c-232 15 -326 183 -326 327c0 194 177 320 370 320c58 0 131 -11 170 -29c12 -6 13 -9 15 -23l12 -131c0 -4 -9 -6 -11 -2c-39 105 -120 161 -225 161c-141 0 -222 -109 -222 -269c0 -186 106 -336 251 -336c87 0 157 53 205 168z" />
    <glyph glyph-name="Ccircumflex" unicode="&#x108;" horiz-adv-x="669" 
d="M265 698l103 110c6 6 17 6 23 0l103 -110c3 -2 -3 -9 -6 -7l-108 46l-109 -46c-2 -1 -9 5 -6 7zM419 636c58 0 131 -11 170 -29c12 -6 13 -9 15 -23l12 -131c0 -4 -9 -6 -11 -2c-39 105 -120 161 -225 161c-141 0 -222 -109 -222 -269c0 -186 106 -336 251 -336
c87 0 157 53 205 168c2 5 12 3 12 -1l-15 -128c-3 -17 -4 -19 -16 -24c-62 -24 -125 -34 -186 -34c-257 0 -360 177 -360 328c0 194 177 320 370 320z" />
    <glyph glyph-name="Cdotaccent" unicode="&#x10a;" horiz-adv-x="669" 
d="M380 713c-34 0 -55 20 -55 55c0 32 21 52 55 52s52 -20 52 -52c0 -35 -18 -55 -52 -55zM419 636c58 0 131 -11 170 -29c12 -6 13 -9 15 -23l12 -131c0 -4 -9 -6 -11 -2c-39 105 -120 161 -225 161c-141 0 -222 -109 -222 -269c0 -186 106 -336 251 -336
c87 0 157 53 205 168c2 5 12 3 12 -1l-15 -128c-3 -17 -4 -19 -16 -24c-62 -24 -125 -34 -186 -34c-257 0 -360 177 -360 328c0 194 177 320 370 320z" />
    <glyph glyph-name="D" unicode="D" horiz-adv-x="701" 
d="M319 -4c-42 0 -112 6 -163 6c-46 0 -90 -2 -124 -2c-4 0 -4 12 0 12c65 0 77 11 77 69v463c0 57 -11 69 -76 69c-3 0 -3 12 0 12c34 0 77 -3 123 -3c48 0 109 5 148 5c209 0 347 -132 347 -304c0 -200 -152 -327 -332 -327zM308 16c137 0 236 101 236 285
c0 172 -89 306 -230 306c-79 0 -109 -8 -109 -65v-450c0 -52 18 -76 103 -76z" />
    <glyph glyph-name="Eth" unicode="&#xd0;" horiz-adv-x="701" 
d="M304 627c209 0 347 -132 347 -304c0 -200 -152 -327 -333 -327c-41 0 -111 6 -161 6c-47 0 -90 -2 -125 -2c-4 0 -4 12 0 12c65 0 77 11 77 69v217h-56c-6 0 -6 26 0 26h56v220c0 57 -11 69 -76 69c-4 0 -4 12 0 12c35 0 77 -3 124 -3s108 5 147 5zM308 16
c138 0 236 101 236 285c0 172 -89 306 -231 306c-78 0 -108 -8 -108 -65v-218h135c6 0 6 -26 0 -26h-135v-206c0 -52 17 -76 103 -76z" />
    <glyph glyph-name="Dcaron" unicode="&#x10e;" horiz-adv-x="701" 
d="M310 687l-103 109c-4 3 3 9 5 8l109 -46l108 46c3 2 8 -4 6 -8l-103 -109c-6 -6 -17 -6 -22 0zM318 -4c-41 0 -111 6 -161 6c-47 0 -90 -2 -125 -2c-4 0 -4 12 0 12c65 0 77 11 77 69v463c0 57 -11 69 -76 69c-4 0 -4 12 0 12c35 0 77 -3 124 -3s108 5 147 5
c209 0 347 -132 347 -304c0 -200 -152 -327 -333 -327zM308 16c138 0 236 101 236 285c0 172 -89 306 -231 306c-78 0 -108 -8 -108 -65v-450c0 -52 17 -76 103 -76z" />
    <glyph glyph-name="Dcroat" unicode="&#x110;" horiz-adv-x="701" 
d="M304 627c209 0 347 -132 347 -304c0 -200 -152 -327 -333 -327c-41 0 -111 6 -161 6c-47 0 -90 -2 -125 -2c-4 0 -4 12 0 12c65 0 77 11 77 69v217h-56c-6 0 -6 26 0 26h56v220c0 57 -11 69 -76 69c-4 0 -4 12 0 12c35 0 77 -3 124 -3s108 5 147 5zM308 16
c138 0 236 101 236 285c0 172 -89 306 -231 306c-78 0 -108 -8 -108 -65v-218h135c6 0 6 -26 0 -26h-135v-206c0 -52 17 -76 103 -76z" />
    <glyph glyph-name="uni1E0C" unicode="&#x1e0c;" horiz-adv-x="701" 
d="M318 -4c-41 0 -111 6 -161 6c-47 0 -90 -2 -125 -2c-4 0 -4 12 0 12c65 0 77 11 77 69v463c0 57 -11 69 -76 69c-4 0 -4 12 0 12c35 0 77 -3 124 -3s108 5 147 5c209 0 347 -132 347 -304c0 -200 -152 -327 -333 -327zM308 16c138 0 236 101 236 285
c0 172 -89 306 -231 306c-78 0 -108 -8 -108 -65v-450c0 -52 17 -76 103 -76zM333 -201c-34 0 -55 20 -55 55c0 31 21 51 55 51s53 -20 53 -51c0 -35 -19 -55 -53 -55z" />
    <glyph glyph-name="uni1E0E" unicode="&#x1e0e;" horiz-adv-x="701" 
d="M318 -4c-41 0 -111 6 -161 6c-47 0 -90 -2 -125 -2c-4 0 -4 12 0 12c65 0 77 11 77 69v463c0 57 -11 69 -76 69c-4 0 -4 12 0 12c35 0 77 -3 124 -3s108 5 147 5c209 0 347 -132 347 -304c0 -200 -152 -327 -333 -327zM308 16c138 0 236 101 236 285
c0 172 -89 306 -231 306c-78 0 -108 -8 -108 -65v-450c0 -52 17 -76 103 -76zM206 -119c-12 0 -12 34 0 34h251c12 0 12 -34 0 -34h-251z" />
    <glyph glyph-name="E" unicode="E" horiz-adv-x="547" 
d="M489 156c1 3 12 1 12 -2c-5 -38 -10 -95 -10 -139c0 -11 -3 -15 -15 -15h-434c-4 0 -4 12 0 12c65 0 76 11 76 69v463c0 57 -11 69 -76 69c-4 0 -4 12 0 12h417c7 0 9 -3 9 -9l2 -130c0 -3 -11 -4 -11 -1c-17 76 -63 114 -140 114h-40c-49 0 -66 -16 -66 -58v-203h97
c73 0 109 26 109 74c0 4 12 4 12 0c0 -43 -2 -61 -2 -87c0 -33 3 -62 3 -98c0 -4 -12 -4 -12 0c0 55 -37 85 -112 85h-95v-227c0 -44 14 -59 57 -59h49c90 0 146 43 170 130z" />
    <glyph glyph-name="Eacute" unicode="&#xc9;" horiz-adv-x="547" 
d="M199 678c-6 -2 -9 9 -5 11c53 33 94 69 138 100c11 9 111 -29 89 -33c-89 -23 -154 -47 -222 -78zM489 156c1 3 12 1 12 -3c-5 -37 -10 -95 -10 -138c0 -11 -3 -15 -15 -15h-434c-3 0 -3 12 0 12c64 0 76 11 76 69v463c0 57 -12 69 -76 69c-3 0 -3 12 0 12h416
c7 0 10 -3 10 -9l2 -129c0 -4 -10 -5 -12 -2c-16 76 -63 114 -139 114h-41c-49 0 -65 -15 -65 -57v-204h97c74 0 109 27 109 74c0 3 11 3 11 0c0 -42 -1 -61 -1 -87c0 -33 3 -62 3 -98c0 -4 -12 -4 -12 0c0 55 -36 85 -112 85h-95v-227c0 -44 14 -59 57 -59h48
c91 0 146 43 171 130z" />
    <glyph glyph-name="Ebreve" unicode="&#x114;" horiz-adv-x="547" 
d="M296 690c-63 0 -99 42 -103 119c0 5 11 6 11 3c3 -28 43 -56 92 -56c48 0 88 28 91 56c0 3 11 2 11 -3c-4 -77 -39 -119 -102 -119zM489 156c1 3 12 1 12 -3c-5 -37 -10 -95 -10 -138c0 -11 -3 -15 -15 -15h-434c-3 0 -3 12 0 12c64 0 76 11 76 69v463
c0 57 -12 69 -76 69c-3 0 -3 12 0 12h416c7 0 10 -3 10 -9l2 -129c0 -4 -10 -5 -12 -2c-16 76 -63 114 -139 114h-41c-49 0 -65 -15 -65 -57v-204h97c74 0 109 27 109 74c0 3 11 3 11 0c0 -42 -1 -61 -1 -87c0 -33 3 -62 3 -98c0 -4 -12 -4 -12 0c0 55 -36 85 -112 85h-95
v-227c0 -44 14 -59 57 -59h48c91 0 146 43 171 130z" />
    <glyph glyph-name="Ecaron" unicode="&#x11a;" horiz-adv-x="547" 
d="M284 687l-103 109c-3 3 4 9 6 8l109 -46l108 46c3 2 8 -4 6 -8l-103 -109c-6 -6 -17 -6 -23 0zM489 156c1 3 12 1 12 -3c-5 -37 -10 -95 -10 -138c0 -11 -3 -15 -15 -15h-434c-3 0 -3 12 0 12c64 0 76 11 76 69v463c0 57 -12 69 -76 69c-3 0 -3 12 0 12h416
c7 0 10 -3 10 -9l2 -129c0 -4 -10 -5 -12 -2c-16 76 -63 114 -139 114h-41c-49 0 -65 -15 -65 -57v-204h97c74 0 109 27 109 74c0 3 11 3 11 0c0 -42 -1 -61 -1 -87c0 -33 3 -62 3 -98c0 -4 -12 -4 -12 0c0 55 -36 85 -112 85h-95v-227c0 -44 14 -59 57 -59h48
c91 0 146 43 171 130z" />
    <glyph glyph-name="Ecircumflex" unicode="&#xca;" horiz-adv-x="547" 
d="M188 691c-2 -1 -9 5 -5 7l103 110c5 6 16 6 22 0l103 -110c3 -2 -3 -9 -6 -7l-108 46zM489 156c1 3 12 1 12 -3c-5 -37 -10 -95 -10 -138c0 -11 -3 -15 -15 -15h-434c-3 0 -3 12 0 12c64 0 76 11 76 69v463c0 57 -12 69 -76 69c-3 0 -3 12 0 12h416c7 0 10 -3 10 -9
l2 -129c0 -4 -10 -5 -12 -2c-16 76 -63 114 -139 114h-41c-49 0 -65 -15 -65 -57v-204h97c74 0 109 27 109 74c0 3 11 3 11 0c0 -42 -1 -61 -1 -87c0 -33 3 -62 3 -98c0 -4 -12 -4 -12 0c0 55 -36 85 -112 85h-95v-227c0 -44 14 -59 57 -59h48c91 0 146 43 171 130z" />
    <glyph glyph-name="uni1EBE" unicode="&#x1ebe;" horiz-adv-x="547" 
d="M418 850c5 12 111 -25 90 -34c-59 -22 -102 -46 -147 -77c-4 -3 -10 6 -8 10c24 33 47 70 65 101zM187 648c-2 -1 -9 5 -6 7l103 110c6 6 17 6 22 0l103 -110c4 -2 -2 -9 -5 -7l-108 44zM489 156c1 3 12 1 12 -3c-5 -37 -10 -95 -10 -138c0 -11 -3 -15 -15 -15h-434
c-3 0 -3 12 0 12c64 0 76 11 76 69v463c0 57 -12 69 -76 69c-3 0 -3 12 0 12h416c7 0 10 -3 10 -9l2 -129c0 -4 -10 -5 -12 -2c-16 76 -63 114 -139 114h-41c-49 0 -65 -15 -65 -57v-204h97c74 0 109 27 109 74c0 3 11 3 11 0c0 -42 -1 -61 -1 -87c0 -33 3 -62 3 -98
c0 -4 -12 -4 -12 0c0 55 -36 85 -112 85h-95v-227c0 -44 14 -59 57 -59h48c91 0 146 43 171 130z" />
    <glyph glyph-name="uni1EC6" unicode="&#x1ec6;" horiz-adv-x="547" 
d="M187 648c-2 -1 -9 5 -6 7l103 110c6 6 17 6 23 0l103 -110c3 -2 -3 -9 -6 -7l-108 44zM489 156c1 3 12 1 12 -3c-5 -37 -10 -95 -10 -138c0 -11 -3 -15 -15 -15h-434c-3 0 -3 12 0 12c64 0 76 11 76 69v463c0 57 -12 69 -76 69c-3 0 -3 12 0 12h416c7 0 10 -3 10 -9
l2 -129c0 -4 -10 -5 -12 -2c-16 76 -63 114 -139 114h-41c-49 0 -65 -15 -65 -57v-204h97c74 0 109 27 109 74c0 3 11 3 11 0c0 -42 -1 -61 -1 -87c0 -33 3 -62 3 -98c0 -4 -12 -4 -12 0c0 55 -36 85 -112 85h-95v-227c0 -44 14 -59 57 -59h48c91 0 146 43 171 130zM296 -95
c34 0 53 -20 53 -51c0 -35 -19 -55 -53 -55s-55 20 -55 55c0 31 21 51 55 51z" />
    <glyph glyph-name="uni1EC0" unicode="&#x1ec0;" horiz-adv-x="547" 
d="M311 796c-22 9 83 46 89 34c18 -31 39 -67 62 -100c2 -5 -2 -13 -8 -11c-45 31 -84 54 -143 77zM187 648c-2 -1 -9 5 -6 7l103 110c6 6 17 6 22 0l103 -110c4 -2 -2 -9 -5 -7l-108 44zM489 156c1 3 12 1 12 -3c-5 -37 -10 -95 -10 -138c0 -11 -3 -15 -15 -15h-434
c-3 0 -3 12 0 12c64 0 76 11 76 69v463c0 57 -12 69 -76 69c-3 0 -3 12 0 12h416c7 0 10 -3 10 -9l2 -129c0 -4 -10 -5 -12 -2c-16 76 -63 114 -139 114h-41c-49 0 -65 -15 -65 -57v-204h97c74 0 109 27 109 74c0 3 11 3 11 0c0 -42 -1 -61 -1 -87c0 -33 3 -62 3 -98
c0 -4 -12 -4 -12 0c0 55 -36 85 -112 85h-95v-227c0 -44 14 -59 57 -59h48c91 0 146 43 171 130z" />
    <glyph glyph-name="uni1EC2" unicode="&#x1ec2;" horiz-adv-x="547" 
d="M352 842c-3 -2 -12 6 -7 8c21 13 43 19 61 19c33 0 52 -21 52 -43c0 -42 -67 -63 -64 -99c0 -2 -10 -3 -12 0c-9 34 22 58 22 87c0 23 -18 32 -32 32c-7 0 -14 -2 -20 -4zM187 648c-2 -1 -9 5 -6 7l103 110c6 6 17 6 22 0l103 -110c4 -2 -2 -9 -5 -7l-108 44zM489 156
c1 3 12 1 12 -3c-5 -37 -10 -95 -10 -138c0 -11 -3 -15 -15 -15h-434c-3 0 -3 12 0 12c64 0 76 11 76 69v463c0 57 -12 69 -76 69c-3 0 -3 12 0 12h416c7 0 10 -3 10 -9l2 -129c0 -4 -10 -5 -12 -2c-16 76 -63 114 -139 114h-41c-49 0 -65 -15 -65 -57v-204h97
c74 0 109 27 109 74c0 3 11 3 11 0c0 -42 -1 -61 -1 -87c0 -33 3 -62 3 -98c0 -4 -12 -4 -12 0c0 55 -36 85 -112 85h-95v-227c0 -44 14 -59 57 -59h48c91 0 146 43 171 130z" />
    <glyph glyph-name="uni1EC4" unicode="&#x1ec4;" horiz-adv-x="547" 
d="M178 782c-3 -2 -10 4 -7 7c16 27 49 74 86 74c30 0 78 -24 123 -24c24 0 34 9 50 26c3 3 10 -3 7 -7c-36 -59 -53 -73 -81 -73c-39 0 -81 24 -128 24c-28 0 -35 -11 -50 -27zM306 765l103 -110c4 -2 -2 -9 -5 -7l-108 44l-109 -44c-2 -1 -9 5 -6 7l103 110c6 6 17 6 22 0
zM489 156c1 3 12 1 12 -3c-5 -37 -10 -95 -10 -138c0 -11 -3 -15 -15 -15h-434c-3 0 -3 12 0 12c64 0 76 11 76 69v463c0 57 -12 69 -76 69c-3 0 -3 12 0 12h416c7 0 10 -3 10 -9l2 -129c0 -4 -10 -5 -12 -2c-16 76 -63 114 -139 114h-41c-49 0 -65 -15 -65 -57v-204h97
c74 0 109 27 109 74c0 3 11 3 11 0c0 -42 -1 -61 -1 -87c0 -33 3 -62 3 -98c0 -4 -12 -4 -12 0c0 55 -36 85 -112 85h-95v-227c0 -44 14 -59 57 -59h48c91 0 146 43 171 130z" />
    <glyph glyph-name="Edieresis" unicode="&#xcb;" horiz-adv-x="547" 
d="M210 708c-32 0 -52 17 -52 50c0 29 20 48 52 48c30 0 49 -19 49 -48c0 -33 -19 -50 -49 -50zM384 708c-32 0 -51 17 -51 50c0 29 19 47 51 47c30 0 48 -18 48 -47c0 -33 -18 -50 -48 -50zM489 156c1 3 12 1 12 -3c-5 -37 -10 -95 -10 -138c0 -11 -3 -15 -15 -15h-434
c-3 0 -3 12 0 12c64 0 76 11 76 69v463c0 57 -12 69 -76 69c-3 0 -3 12 0 12h416c7 0 10 -3 10 -9l2 -129c0 -4 -10 -5 -12 -2c-16 76 -63 114 -139 114h-41c-49 0 -65 -15 -65 -57v-204h97c74 0 109 27 109 74c0 3 11 3 11 0c0 -42 -1 -61 -1 -87c0 -33 3 -62 3 -98
c0 -4 -12 -4 -12 0c0 55 -36 85 -112 85h-95v-227c0 -44 14 -59 57 -59h48c91 0 146 43 171 130z" />
    <glyph glyph-name="Edotaccent" unicode="&#x116;" horiz-adv-x="547" 
d="M297 713c-34 0 -55 20 -55 55c0 32 21 52 55 52s53 -20 53 -52c0 -35 -19 -55 -53 -55zM489 156c1 3 12 1 12 -3c-5 -37 -10 -95 -10 -138c0 -11 -3 -15 -15 -15h-434c-3 0 -3 12 0 12c64 0 76 11 76 69v463c0 57 -12 69 -76 69c-3 0 -3 12 0 12h416c7 0 10 -3 10 -9
l2 -129c0 -4 -10 -5 -12 -2c-16 76 -63 114 -139 114h-41c-49 0 -65 -15 -65 -57v-204h97c74 0 109 27 109 74c0 3 11 3 11 0c0 -42 -1 -61 -1 -87c0 -33 3 -62 3 -98c0 -4 -12 -4 -12 0c0 55 -36 85 -112 85h-95v-227c0 -44 14 -59 57 -59h48c91 0 146 43 171 130z" />
    <glyph glyph-name="uni1EB8" unicode="&#x1eb8;" horiz-adv-x="547" 
d="M489 156c1 3 12 1 12 -3c-5 -37 -10 -95 -10 -138c0 -11 -3 -15 -15 -15h-434c-3 0 -3 12 0 12c64 0 76 11 76 69v463c0 57 -12 69 -76 69c-3 0 -3 12 0 12h416c7 0 10 -3 10 -9l2 -129c0 -4 -10 -5 -12 -2c-16 76 -63 114 -139 114h-41c-49 0 -65 -15 -65 -57v-204h97
c74 0 109 27 109 74c0 3 11 3 11 0c0 -42 -1 -61 -1 -87c0 -33 3 -62 3 -98c0 -4 -12 -4 -12 0c0 55 -36 85 -112 85h-95v-227c0 -44 14 -59 57 -59h48c91 0 146 43 171 130zM296 -95c34 0 53 -20 53 -51c0 -35 -19 -55 -53 -55s-55 20 -55 55c0 31 21 51 55 51z" />
    <glyph glyph-name="Egrave" unicode="&#xc8;" horiz-adv-x="547" 
d="M173 756c-23 4 79 42 89 33c43 -31 86 -67 138 -100c5 -2 1 -13 -5 -11c-67 31 -133 55 -222 78zM489 156c1 3 12 1 12 -3c-5 -37 -10 -95 -10 -138c0 -11 -3 -15 -15 -15h-434c-3 0 -3 12 0 12c64 0 76 11 76 69v463c0 57 -12 69 -76 69c-3 0 -3 12 0 12h416
c7 0 10 -3 10 -9l2 -129c0 -4 -10 -5 -12 -2c-16 76 -63 114 -139 114h-41c-49 0 -65 -15 -65 -57v-204h97c74 0 109 27 109 74c0 3 11 3 11 0c0 -42 -1 -61 -1 -87c0 -33 3 -62 3 -98c0 -4 -12 -4 -12 0c0 55 -36 85 -112 85h-95v-227c0 -44 14 -59 57 -59h48
c91 0 146 43 171 130z" />
    <glyph glyph-name="uni1EBA" unicode="&#x1eba;" horiz-adv-x="547" 
d="M249 814c-3 -2 -10 6 -7 8c24 18 51 26 77 26c41 0 68 -21 68 -52c0 -58 -93 -95 -89 -145c0 -2 -10 -3 -11 0c-14 60 29 88 29 135c0 26 -13 37 -33 37c-10 0 -22 -3 -34 -9zM489 156c1 3 12 1 12 -3c-5 -37 -10 -95 -10 -138c0 -11 -3 -15 -15 -15h-434
c-3 0 -3 12 0 12c64 0 76 11 76 69v463c0 57 -12 69 -76 69c-3 0 -3 12 0 12h416c7 0 10 -3 10 -9l2 -129c0 -4 -10 -5 -12 -2c-16 76 -63 114 -139 114h-41c-49 0 -65 -15 -65 -57v-204h97c74 0 109 27 109 74c0 3 11 3 11 0c0 -42 -1 -61 -1 -87c0 -33 3 -62 3 -98
c0 -4 -12 -4 -12 0c0 55 -36 85 -112 85h-95v-227c0 -44 14 -59 57 -59h48c91 0 146 43 171 130z" />
    <glyph glyph-name="Emacron" unicode="&#x112;" horiz-adv-x="547" 
d="M170 716c-12 0 -12 34 0 34h251c12 0 12 -34 0 -34h-251zM489 156c1 3 12 1 12 -3c-5 -37 -10 -95 -10 -138c0 -11 -3 -15 -15 -15h-434c-3 0 -3 12 0 12c64 0 76 11 76 69v463c0 57 -12 69 -76 69c-3 0 -3 12 0 12h416c7 0 10 -3 10 -9l2 -129c0 -4 -10 -5 -12 -2
c-16 76 -63 114 -139 114h-41c-49 0 -65 -15 -65 -57v-204h97c74 0 109 27 109 74c0 3 11 3 11 0c0 -42 -1 -61 -1 -87c0 -33 3 -62 3 -98c0 -4 -12 -4 -12 0c0 55 -36 85 -112 85h-95v-227c0 -44 14 -59 57 -59h48c91 0 146 43 171 130z" />
    <glyph glyph-name="Eogonek" unicode="&#x118;" horiz-adv-x="547" 
d="M502 -222c3 2 10 -5 7 -8c-39 -32 -75 -45 -111 -45c-69 0 -116 46 -116 107c0 53 37 109 117 168h-357c-3 0 -3 12 0 12c64 0 76 11 76 69v463c0 57 -12 69 -76 69c-3 0 -3 12 0 12h416c7 0 10 -3 10 -9l2 -129c0 -4 -10 -5 -12 -2c-16 76 -63 114 -139 114h-41
c-49 0 -65 -15 -65 -57v-204h97c74 0 109 27 109 74c0 3 11 3 11 0c0 -42 -1 -61 -1 -87c0 -33 3 -62 3 -98c0 -4 -12 -4 -12 0c0 55 -36 85 -112 85h-95v-227c0 -44 14 -59 57 -59h48c91 0 146 43 171 130c1 3 12 1 12 -3c-5 -37 -10 -95 -10 -138c0 -11 -3 -15 -15 -15
h-57c-45 -43 -63 -77 -63 -125c0 -67 35 -111 96 -111c19 0 39 7 50 14z" />
    <glyph glyph-name="uni1EBC" unicode="&#x1ebc;" horiz-adv-x="547" 
d="M174 697c-2 -2 -9 4 -7 7c17 27 48 75 87 75c29 0 77 -25 122 -25c24 0 35 9 51 27c2 3 9 -3 7 -7c-36 -61 -55 -75 -82 -75c-38 0 -81 25 -127 25c-28 0 -35 -12 -51 -27zM489 156c1 3 12 1 12 -3c-5 -37 -10 -95 -10 -138c0 -11 -3 -15 -15 -15h-434c-3 0 -3 12 0 12
c64 0 76 11 76 69v463c0 57 -12 69 -76 69c-3 0 -3 12 0 12h416c7 0 10 -3 10 -9l2 -129c0 -4 -10 -5 -12 -2c-16 76 -63 114 -139 114h-41c-49 0 -65 -15 -65 -57v-204h97c74 0 109 27 109 74c0 3 11 3 11 0c0 -42 -1 -61 -1 -87c0 -33 3 -62 3 -98c0 -4 -12 -4 -12 0
c0 55 -36 85 -112 85h-95v-227c0 -44 14 -59 57 -59h48c91 0 146 43 171 130z" />
    <glyph glyph-name="F" unicode="F" horiz-adv-x="518" 
d="M468 616l2 -130c0 -3 -11 -4 -11 -1c-17 76 -63 114 -140 114h-40c-49 0 -66 -16 -66 -56v-217h82c76 0 112 27 112 74c0 4 12 4 12 0c0 -42 -1 -61 -1 -87c0 -33 2 -62 2 -98c0 -4 -12 -4 -12 0c0 55 -37 86 -115 86h-80v-216c0 -60 16 -73 112 -73c3 0 3 -12 0 -12
c-44 0 -94 2 -162 2c-47 0 -92 -2 -126 -2c-4 0 -4 12 0 12c69 0 81 11 81 69v463c0 57 -11 69 -76 69c-4 0 -4 12 0 12h417c7 0 9 -3 9 -9z" />
    <glyph glyph-name="G" unicode="G" horiz-adv-x="718" 
d="M408 -12c-226 0 -359 141 -359 318c0 196 162 330 380 330c60 0 130 -11 170 -30c11 -5 13 -10 14 -23l12 -130c0 -3 -9 -6 -11 -1c-41 100 -124 159 -232 159c-150 0 -228 -105 -228 -268c0 -201 118 -338 278 -338c83 0 115 18 115 121c0 96 -7 107 -104 107
c-8 0 -8 16 -1 16c90 -6 156 -6 237 -2c6 0 7 -14 0 -14c-39 1 -41 -11 -41 -117c0 -67 7 -72 7 -88c0 -8 -3 -9 -12 -12c-72 -16 -153 -28 -225 -28z" />
    <glyph glyph-name="G_tildecomb" horiz-adv-x="718" 
d="M470 768c24 0 34 10 50 27c3 3 10 -3 7 -7c-36 -59 -53 -73 -81 -73c-39 0 -81 24 -128 24c-28 0 -35 -12 -50 -27c-3 -2 -10 4 -7 7c16 27 49 74 86 74c30 0 78 -25 123 -25zM408 -12c-227 0 -359 141 -359 318c0 196 163 330 380 330c60 0 130 -11 170 -30
c12 -5 13 -10 14 -22l13 -131c0 -4 -11 -6 -12 -2c-41 101 -124 160 -233 160c-149 0 -227 -106 -227 -268c0 -200 119 -338 279 -338c82 0 114 18 114 121c0 96 -8 107 -104 107c-8 0 -8 16 -1 16c90 -6 156 -6 236 -2c6 0 7 -14 0 -14c-37 1 -41 -11 -41 -117
c0 -67 7 -72 7 -88c0 -8 -2 -9 -11 -12c-72 -16 -153 -28 -225 -28z" />
    <glyph glyph-name="Gbreve" unicode="&#x11e;" horiz-adv-x="718" 
d="M394 690c-63 0 -99 42 -103 119c0 5 11 6 11 3c3 -28 43 -56 92 -56c48 0 88 28 91 56c0 3 11 2 11 -3c-4 -77 -39 -119 -102 -119zM408 -12c-227 0 -359 141 -359 318c0 196 163 330 380 330c60 0 130 -11 170 -30c12 -5 13 -10 14 -22l13 -131c0 -4 -11 -6 -12 -2
c-41 101 -124 160 -233 160c-149 0 -227 -106 -227 -268c0 -200 119 -338 279 -338c82 0 114 18 114 121c0 96 -8 107 -104 107c-8 0 -8 16 -1 16c90 -6 156 -6 236 -2c6 0 7 -14 0 -14c-37 1 -41 -11 -41 -117c0 -67 7 -72 7 -88c0 -8 -2 -9 -11 -12
c-72 -16 -153 -28 -225 -28z" />
    <glyph glyph-name="Gcaron" unicode="&#x1e6;" horiz-adv-x="718" 
d="M382 687l-102 109c-4 3 3 9 5 8l109 -46l108 46c3 2 8 -4 6 -8l-103 -109c-6 -6 -17 -6 -23 0zM408 -12c-227 0 -359 141 -359 318c0 196 163 330 380 330c60 0 130 -11 170 -30c12 -5 13 -10 14 -22l13 -131c0 -4 -11 -6 -12 -2c-41 101 -124 160 -233 160
c-149 0 -227 -106 -227 -268c0 -200 119 -338 279 -338c82 0 114 18 114 121c0 96 -8 107 -104 107c-8 0 -8 16 -1 16c90 -6 156 -6 236 -2c6 0 7 -14 0 -14c-37 1 -41 -11 -41 -117c0 -67 7 -72 7 -88c0 -8 -2 -9 -11 -12c-72 -16 -153 -28 -225 -28z" />
    <glyph glyph-name="Gcircumflex" unicode="&#x11c;" horiz-adv-x="718" 
d="M281 698l103 110c5 6 16 6 22 0l103 -110c3 -2 -3 -9 -6 -7l-108 46l-108 -46c-3 -1 -10 5 -6 7zM408 -12c-227 0 -359 141 -359 318c0 196 163 330 380 330c60 0 130 -11 170 -30c12 -5 13 -10 14 -22l13 -131c0 -4 -11 -6 -12 -2c-41 101 -124 160 -233 160
c-149 0 -227 -106 -227 -268c0 -200 119 -338 279 -338c82 0 114 18 114 121c0 96 -8 107 -104 107c-8 0 -8 16 -1 16c90 -6 156 -6 236 -2c6 0 7 -14 0 -14c-37 1 -41 -11 -41 -117c0 -67 7 -72 7 -88c0 -8 -2 -9 -11 -12c-72 -16 -153 -28 -225 -28z" />
    <glyph glyph-name="Gcommaaccent" unicode="&#x122;" horiz-adv-x="718" 
d="M678 247c6 0 7 -14 0 -14c-37 1 -41 -11 -41 -117c0 -67 7 -72 7 -88c0 -8 -2 -9 -11 -12c-72 -16 -153 -28 -225 -28c-227 0 -359 141 -359 318c0 196 163 330 380 330c60 0 130 -11 170 -30c12 -5 13 -10 14 -22l13 -131c0 -4 -11 -6 -12 -2c-41 101 -124 160 -233 160
c-149 0 -227 -106 -227 -268c0 -200 119 -338 279 -338c82 0 114 18 114 121c0 96 -8 107 -104 107c-8 0 -8 16 -1 16c90 -6 156 -6 236 -2zM412 -75c43 0 65 -30 65 -77c0 -54 -30 -91 -71 -123c-5 -3 -12 5 -7 8c26 23 47 47 47 76c0 16 -3 25 -9 32
c-6 -12 -19 -18 -37 -18c-27 0 -46 20 -46 51c0 35 27 51 58 51z" />
    <glyph glyph-name="Gdotaccent" unicode="&#x120;" horiz-adv-x="718" 
d="M395 713c-34 0 -55 20 -55 55c0 32 21 52 55 52s53 -20 53 -52c0 -35 -19 -55 -53 -55zM408 -12c-227 0 -359 141 -359 318c0 196 163 330 380 330c60 0 130 -11 170 -30c12 -5 13 -10 14 -22l13 -131c0 -4 -11 -6 -12 -2c-41 101 -124 160 -233 160
c-149 0 -227 -106 -227 -268c0 -200 119 -338 279 -338c82 0 114 18 114 121c0 96 -8 107 -104 107c-8 0 -8 16 -1 16c90 -6 156 -6 236 -2c6 0 7 -14 0 -14c-37 1 -41 -11 -41 -117c0 -67 7 -72 7 -88c0 -8 -2 -9 -11 -12c-72 -16 -153 -28 -225 -28z" />
    <glyph glyph-name="uni1E20" unicode="&#x1e20;" horiz-adv-x="718" 
d="M268 716c-12 0 -12 34 0 34h251c12 0 12 -34 0 -34h-251zM408 -12c-227 0 -359 141 -359 318c0 196 163 330 380 330c60 0 130 -11 170 -30c12 -5 13 -10 14 -22l13 -131c0 -4 -11 -6 -12 -2c-41 101 -124 160 -233 160c-149 0 -227 -106 -227 -268
c0 -200 119 -338 279 -338c82 0 114 18 114 121c0 96 -8 107 -104 107c-8 0 -8 16 -1 16c90 -6 156 -6 236 -2c6 0 7 -14 0 -14c-37 1 -41 -11 -41 -117c0 -67 7 -72 7 -88c0 -8 -2 -9 -11 -12c-72 -16 -153 -28 -225 -28z" />
    <glyph glyph-name="H" unicode="H" horiz-adv-x="762" 
d="M729 12c4 0 4 -12 0 -12c-34 0 -82 2 -129 2c-57 0 -99 -2 -133 -2c-3 0 -3 12 0 12c74 0 85 11 85 69v231h-343v-231c0 -58 12 -69 85 -69c3 0 3 -12 0 -12c-37 0 -79 2 -136 2c-47 0 -92 -2 -126 -2c-4 0 -4 12 0 12c69 0 81 11 81 69v463c0 57 -12 69 -80 69
c-3 0 -3 12 0 12c34 0 78 -3 125 -3c57 0 100 3 136 3c3 0 3 -12 0 -12c-72 0 -85 -14 -85 -71v-204h343v204c0 57 -11 71 -85 71c-3 0 -3 12 0 12c34 0 76 -3 133 -3c47 0 95 3 129 3c4 0 4 -12 0 -12c-69 0 -81 -12 -81 -69v-463c0 -58 12 -69 81 -69z" />
    <glyph glyph-name="Hbar" unicode="&#x126;" horiz-adv-x="762" 
d="M729 12c4 0 4 -12 0 -12c-34 0 -82 2 -129 2c-57 0 -99 -2 -133 -2c-3 0 -3 12 0 12c74 0 85 11 85 69v138h-343v-138c0 -58 12 -69 85 -69c3 0 3 -12 0 -12c-37 0 -79 2 -136 2c-47 0 -92 -2 -126 -2c-4 0 -4 12 0 12c69 0 81 11 81 69v463c0 57 -12 69 -80 69
c-3 0 -3 12 0 12c34 0 78 -3 125 -3c57 0 100 3 136 3c3 0 3 -12 0 -12c-72 0 -85 -14 -85 -71v-111h343v111c0 57 -11 71 -85 71c-3 0 -3 12 0 12c34 0 76 -3 133 -3c47 0 95 3 129 3c4 0 4 -12 0 -12c-69 0 -81 -12 -81 -69v-463c0 -58 12 -69 81 -69zM209 244h343v162
h-343v-162z" />
    <glyph glyph-name="uni1E2A" unicode="&#x1e2a;" horiz-adv-x="762" 
d="M729 12c3 0 3 -12 0 -12c-34 0 -82 2 -129 2c-57 0 -99 -2 -132 -2c-4 0 -4 12 0 12c74 0 84 11 84 69v231h-343v-231c0 -58 12 -69 85 -69c3 0 3 -12 0 -12c-37 0 -79 2 -136 2c-47 0 -91 -2 -126 -2c-4 0 -4 12 0 12c69 0 81 11 81 69v463c0 57 -11 69 -80 69
c-4 0 -4 12 0 12c35 0 78 -3 125 -3c57 0 100 3 136 3c3 0 3 -12 0 -12c-72 0 -85 -14 -85 -71v-204h343v204c0 57 -10 71 -84 71c-4 0 -4 12 0 12c33 0 75 -3 132 -3c47 0 95 3 129 3c3 0 3 -12 0 -12c-69 0 -81 -12 -81 -69v-463c0 -58 12 -69 81 -69zM473 -76
c0 3 10 3 10 -1c0 -103 -35 -158 -102 -158c-66 0 -103 55 -103 158c0 4 11 4 11 1c0 -47 40 -88 92 -88s92 41 92 88z" />
    <glyph glyph-name="Hcircumflex" unicode="&#x124;" horiz-adv-x="762" 
d="M276 691c-3 -1 -10 5 -6 7l103 110c6 6 16 6 22 0l103 -110c3 -2 -2 -9 -6 -7l-108 46zM729 12c3 0 3 -12 0 -12c-34 0 -82 2 -129 2c-57 0 -99 -2 -132 -2c-4 0 -4 12 0 12c74 0 84 11 84 69v231h-343v-231c0 -58 12 -69 85 -69c3 0 3 -12 0 -12c-37 0 -79 2 -136 2
c-47 0 -91 -2 -126 -2c-4 0 -4 12 0 12c69 0 81 11 81 69v463c0 57 -11 69 -80 69c-4 0 -4 12 0 12c35 0 78 -3 125 -3c57 0 100 3 136 3c3 0 3 -12 0 -12c-72 0 -85 -14 -85 -71v-204h343v204c0 57 -10 71 -84 71c-4 0 -4 12 0 12c33 0 75 -3 132 -3c47 0 95 3 129 3
c3 0 3 -12 0 -12c-69 0 -81 -12 -81 -69v-463c0 -58 12 -69 81 -69z" />
    <glyph glyph-name="uni1E24" unicode="&#x1e24;" horiz-adv-x="762" 
d="M729 12c3 0 3 -12 0 -12c-34 0 -82 2 -129 2c-57 0 -99 -2 -132 -2c-4 0 -4 12 0 12c74 0 84 11 84 69v231h-343v-231c0 -58 12 -69 85 -69c3 0 3 -12 0 -12c-37 0 -79 2 -136 2c-47 0 -91 -2 -126 -2c-4 0 -4 12 0 12c69 0 81 11 81 69v463c0 57 -11 69 -80 69
c-4 0 -4 12 0 12c35 0 78 -3 125 -3c57 0 100 3 136 3c3 0 3 -12 0 -12c-72 0 -85 -14 -85 -71v-204h343v204c0 57 -10 71 -84 71c-4 0 -4 12 0 12c33 0 75 -3 132 -3c47 0 95 3 129 3c3 0 3 -12 0 -12c-69 0 -81 -12 -81 -69v-463c0 -58 12 -69 81 -69zM382 -95
c34 0 53 -20 53 -51c0 -35 -19 -55 -53 -55c-33 0 -55 20 -55 55c0 31 22 51 55 51z" />
    <glyph glyph-name="I" unicode="I" horiz-adv-x="338" 
d="M218 81c0 -58 10 -69 76 -69c3 0 3 -12 0 -12c-35 0 -76 2 -126 2c-47 0 -90 -2 -124 -2c-4 0 -4 12 0 12c65 0 77 11 77 69v463c0 57 -12 69 -77 69c-4 0 -4 12 0 12c34 0 77 -3 124 -3c50 0 93 3 126 3c3 0 3 -12 0 -12c-65 0 -76 -14 -76 -71v-461z" />
    <glyph glyph-name="IJ" unicode="&#x132;" horiz-adv-x="696" 
d="M212 350c0 -58 10 -69 77 -69c3 0 3 -12 0 -12c-34 0 -75 2 -126 2c-46 0 -90 -2 -124 -2c-4 0 -4 12 0 12c65 0 77 11 77 69v194c0 57 -12 69 -77 69c-4 0 -4 12 0 12c34 0 78 -3 124 -3c51 0 93 3 126 3c3 0 3 -12 0 -12c-66 0 -77 -14 -77 -71v-192zM665 625
c4 0 4 -12 0 -12c-55 0 -64 -14 -64 -71v-284c0 -176 -105 -271 -257 -271c-135 0 -237 75 -237 144c0 29 17 53 52 53c100 0 8 -178 184 -178c115 0 161 74 161 194v344c0 57 -13 69 -88 69c-4 0 -4 12 0 12c40 0 85 -3 136 -3c45 0 83 3 113 3z" />
    <glyph glyph-name="Iacute" unicode="&#xcd;" horiz-adv-x="338" 
d="M72 678c-6 -2 -9 9 -5 11c53 33 94 69 138 100c11 9 112 -29 89 -33c-89 -23 -154 -47 -222 -78zM218 81c0 -58 10 -69 76 -69c3 0 3 -12 0 -12c-34 0 -75 2 -126 2c-46 0 -90 -2 -125 -2c-3 0 -3 12 0 12c66 0 77 11 77 69v463c0 57 -11 69 -77 69c-3 0 -3 12 0 12
c35 0 79 -3 125 -3c51 0 93 3 126 3c3 0 3 -12 0 -12c-65 0 -76 -14 -76 -71v-461z" />
    <glyph glyph-name="Ibreve" unicode="&#x12c;" horiz-adv-x="338" 
d="M169 690c-63 0 -99 42 -103 119c0 5 11 6 11 3c3 -28 43 -56 92 -56c48 0 88 28 91 56c0 3 11 2 11 -3c-4 -77 -39 -119 -102 -119zM218 81c0 -58 10 -69 76 -69c3 0 3 -12 0 -12c-34 0 -75 2 -126 2c-46 0 -90 -2 -125 -2c-3 0 -3 12 0 12c66 0 77 11 77 69v463
c0 57 -11 69 -77 69c-3 0 -3 12 0 12c35 0 79 -3 125 -3c51 0 93 3 126 3c3 0 3 -12 0 -12c-65 0 -76 -14 -76 -71v-461z" />
    <glyph glyph-name="uni01CF" unicode="&#x1cf;" horiz-adv-x="338" 
d="M158 687l-103 109c-4 3 3 9 5 8l109 -46l108 46c3 2 8 -4 6 -8l-103 -109c-6 -6 -17 -6 -22 0zM218 81c0 -58 10 -69 76 -69c3 0 3 -12 0 -12c-34 0 -75 2 -126 2c-46 0 -90 -2 -125 -2c-3 0 -3 12 0 12c66 0 77 11 77 69v463c0 57 -11 69 -77 69c-3 0 -3 12 0 12
c35 0 79 -3 125 -3c51 0 93 3 126 3c3 0 3 -12 0 -12c-65 0 -76 -14 -76 -71v-461z" />
    <glyph glyph-name="Icircumflex" unicode="&#xce;" horiz-adv-x="338" 
d="M56 698l103 110c6 6 16 6 22 0l103 -110c3 -2 -3 -9 -6 -7l-108 46l-108 -46c-3 -1 -10 5 -6 7zM218 81c0 -58 10 -69 76 -69c3 0 3 -12 0 -12c-34 0 -75 2 -126 2c-46 0 -90 -2 -125 -2c-3 0 -3 12 0 12c66 0 77 11 77 69v463c0 57 -11 69 -77 69c-3 0 -3 12 0 12
c35 0 79 -3 125 -3c51 0 93 3 126 3c3 0 3 -12 0 -12c-65 0 -76 -14 -76 -71v-461z" />
    <glyph glyph-name="Idieresis" unicode="&#xcf;" horiz-adv-x="338" 
d="M94 708c-31 0 -50 17 -50 50c0 29 19 48 50 48s49 -19 49 -48c0 -33 -18 -50 -49 -50zM244 708c-32 0 -50 17 -50 50c0 29 18 47 50 47c30 0 48 -18 48 -47c0 -33 -18 -50 -48 -50zM218 81c0 -58 10 -69 76 -69c3 0 3 -12 0 -12c-34 0 -75 2 -126 2c-46 0 -90 -2 -125 -2
c-3 0 -3 12 0 12c66 0 77 11 77 69v463c0 57 -11 69 -77 69c-3 0 -3 12 0 12c35 0 79 -3 125 -3c51 0 93 3 126 3c3 0 3 -12 0 -12c-65 0 -76 -14 -76 -71v-461z" />
    <glyph glyph-name="Idotaccent" unicode="&#x130;" horiz-adv-x="338" 
d="M170 713c-34 0 -55 20 -55 55c0 32 21 52 55 52s53 -20 53 -52c0 -35 -19 -55 -53 -55zM218 81c0 -58 10 -69 76 -69c3 0 3 -12 0 -12c-34 0 -75 2 -126 2c-46 0 -90 -2 -125 -2c-3 0 -3 12 0 12c66 0 77 11 77 69v463c0 57 -11 69 -77 69c-3 0 -3 12 0 12
c35 0 79 -3 125 -3c51 0 93 3 126 3c3 0 3 -12 0 -12c-65 0 -76 -14 -76 -71v-461z" />
    <glyph glyph-name="uni1ECA" unicode="&#x1eca;" horiz-adv-x="338" 
d="M218 81c0 -58 10 -69 76 -69c3 0 3 -12 0 -12c-34 0 -75 2 -126 2c-46 0 -90 -2 -125 -2c-3 0 -3 12 0 12c66 0 77 11 77 69v463c0 57 -11 69 -77 69c-3 0 -3 12 0 12c35 0 79 -3 125 -3c51 0 93 3 126 3c3 0 3 -12 0 -12c-65 0 -76 -14 -76 -71v-461zM171 -201
c-34 0 -55 20 -55 55c0 31 21 51 55 51s52 -20 52 -51c0 -35 -18 -55 -52 -55z" />
    <glyph glyph-name="Igrave" unicode="&#xcc;" horiz-adv-x="338" 
d="M269 678c-68 31 -134 55 -223 78c-23 4 79 42 89 33c44 -31 86 -67 138 -100c5 -2 1 -13 -4 -11zM218 81c0 -58 10 -69 76 -69c3 0 3 -12 0 -12c-34 0 -75 2 -126 2c-46 0 -90 -2 -125 -2c-3 0 -3 12 0 12c66 0 77 11 77 69v463c0 57 -11 69 -77 69c-3 0 -3 12 0 12
c35 0 79 -3 125 -3c51 0 93 3 126 3c3 0 3 -12 0 -12c-65 0 -76 -14 -76 -71v-461z" />
    <glyph glyph-name="uni1EC8" unicode="&#x1ec8;" horiz-adv-x="338" 
d="M172 651c0 -2 -11 -3 -12 0c-14 60 29 88 29 135c0 26 -13 37 -33 37c-10 0 -22 -3 -34 -9c-3 -2 -10 6 -7 8c24 18 51 26 78 26c41 0 67 -21 67 -52c0 -58 -93 -95 -88 -145zM218 81c0 -58 10 -69 76 -69c3 0 3 -12 0 -12c-34 0 -75 2 -126 2c-46 0 -90 -2 -125 -2
c-3 0 -3 12 0 12c66 0 77 11 77 69v463c0 57 -11 69 -77 69c-3 0 -3 12 0 12c35 0 79 -3 125 -3c51 0 93 3 126 3c3 0 3 -12 0 -12c-65 0 -76 -14 -76 -71v-461z" />
    <glyph glyph-name="Imacron" unicode="&#x12a;" horiz-adv-x="338" 
d="M43 716c-12 0 -12 34 0 34h251c12 0 12 -34 0 -34h-251zM218 81c0 -58 10 -69 76 -69c3 0 3 -12 0 -12c-34 0 -75 2 -126 2c-46 0 -90 -2 -125 -2c-3 0 -3 12 0 12c66 0 77 11 77 69v463c0 57 -11 69 -77 69c-3 0 -3 12 0 12c35 0 79 -3 125 -3c51 0 93 3 126 3
c3 0 3 -12 0 -12c-65 0 -76 -14 -76 -71v-461z" />
    <glyph glyph-name="Iogonek" unicode="&#x12e;" horiz-adv-x="338" 
d="M294 12c3 0 3 -12 0 -12c-32 0 -70 2 -117 2c-20 -35 -29 -72 -29 -108c0 -72 36 -128 84 -128c18 0 30 6 39 12c3 2 10 -5 7 -8c-33 -32 -60 -45 -101 -45c-65 0 -103 40 -103 104c0 56 29 114 85 173c-43 0 -83 -2 -116 -2c-3 0 -3 12 0 12c66 0 77 11 77 69v463
c0 57 -11 69 -77 69c-3 0 -3 12 0 12c35 0 79 -3 125 -3c51 0 93 3 126 3c3 0 3 -12 0 -12c-65 0 -76 -14 -76 -71v-461c0 -58 10 -69 76 -69z" />
    <glyph glyph-name="Itilde" unicode="&#x128;" horiz-adv-x="338" 
d="M44 697c-2 -2 -9 4 -7 7c16 27 49 75 88 75c29 0 76 -25 121 -25c25 0 35 9 51 27c2 3 9 -3 7 -7c-37 -61 -54 -75 -81 -75c-40 0 -81 25 -127 25c-30 0 -36 -12 -52 -27zM218 81c0 -58 10 -69 76 -69c3 0 3 -12 0 -12c-34 0 -75 2 -126 2c-46 0 -90 -2 -125 -2
c-3 0 -3 12 0 12c66 0 77 11 77 69v463c0 57 -11 69 -77 69c-3 0 -3 12 0 12c35 0 79 -3 125 -3c51 0 93 3 126 3c3 0 3 -12 0 -12c-65 0 -76 -14 -76 -71v-461z" />
    <glyph glyph-name="J" unicode="J" horiz-adv-x="334" 
d="M292 625c4 0 4 -12 0 -12c-56 0 -64 -14 -64 -71v-554c0 -143 -72 -231 -199 -231c-48 0 -83 20 -83 54c0 23 15 46 47 46c59 0 52 -79 87 -79c34 0 51 43 51 156v610c0 57 -13 69 -89 69c-3 0 -3 12 0 12c40 0 86 -3 136 -3c46 0 83 3 114 3z" />
    <glyph glyph-name="Jcircumflex" unicode="&#x134;" horiz-adv-x="334" 
d="M58 701l103 110c6 6 16 6 22 0l103 -110c4 -2 -2 -9 -6 -7l-107 46l-109 -46c-3 -1 -10 5 -6 7zM292 625c4 0 4 -12 0 -12c-56 0 -64 -14 -64 -71v-554c0 -144 -72 -231 -200 -231c-47 0 -82 20 -82 55c0 22 14 45 47 45c58 0 51 -79 87 -79c35 0 51 43 51 157v609
c0 57 -14 69 -89 69c-3 0 -3 12 0 12c40 0 85 -3 136 -3c45 0 83 3 114 3z" />
    <glyph glyph-name="K" unicode="K" horiz-adv-x="653" 
d="M657 12c3 0 3 -12 0 -12h-113c-78 0 -48 -24 -175 145l-138 182l-26 -26v-220c0 -58 10 -69 76 -69c4 0 4 -12 0 -12c-34 0 -76 2 -125 2c-46 0 -90 -2 -124 -2c-4 0 -4 12 0 12c65 0 77 11 77 69v463c0 57 -11 69 -76 69c-3 0 -3 12 0 12c34 0 77 -3 123 -3
c49 0 92 3 125 3c3 0 3 -12 0 -12c-65 0 -76 -14 -76 -71v-211l196 198c50 50 38 84 -30 84c-3 0 -3 12 0 12c35 0 65 -3 125 -3s89 3 122 3c4 0 4 -12 0 -12c-57 0 -133 -31 -191 -90l-129 -129l147 -194c137 -188 154 -188 212 -188z" />
    <glyph glyph-name="uni1E30" unicode="&#x1e30;" horiz-adv-x="653" 
d="M232 678c-5 -2 -9 9 -4 11c52 33 93 69 138 100c10 9 111 -29 89 -33c-89 -23 -155 -47 -223 -78zM656 12c4 0 4 -12 0 -12h-112c-77 0 -48 -23 -176 145l-137 182l-26 -27v-219c0 -58 10 -69 76 -69c4 0 4 -12 0 -12c-34 0 -75 2 -124 2c-47 0 -90 -2 -125 -2
c-4 0 -4 12 0 12c65 0 77 11 77 69v463c0 57 -11 69 -76 69c-4 0 -4 12 0 12c35 0 77 -3 124 -3c49 0 91 3 124 3c3 0 3 -12 0 -12c-65 0 -76 -14 -76 -71v-211l196 198c50 50 38 84 -30 84c-4 0 -4 12 0 12c35 0 65 -3 125 -3s90 3 123 3c3 0 3 -12 0 -12
c-58 0 -134 -32 -192 -90l-128 -128l147 -195c136 -188 153 -188 210 -188z" />
    <glyph glyph-name="uni01E8" unicode="&#x1e8;" horiz-adv-x="653" 
d="M215 796c-4 3 3 9 6 8l108 -46l108 46c4 2 8 -4 6 -8l-103 -109c-6 -6 -16 -6 -22 0zM656 12c4 0 4 -12 0 -12h-112c-77 0 -48 -23 -176 145l-137 182l-26 -27v-219c0 -58 10 -69 76 -69c4 0 4 -12 0 -12c-34 0 -75 2 -124 2c-47 0 -90 -2 -125 -2c-4 0 -4 12 0 12
c65 0 77 11 77 69v463c0 57 -11 69 -76 69c-4 0 -4 12 0 12c35 0 77 -3 124 -3c49 0 91 3 124 3c3 0 3 -12 0 -12c-65 0 -76 -14 -76 -71v-211l196 198c50 50 38 84 -30 84c-4 0 -4 12 0 12c35 0 65 -3 125 -3s90 3 123 3c3 0 3 -12 0 -12c-58 0 -134 -32 -192 -90
l-128 -128l147 -195c136 -188 153 -188 210 -188z" />
    <glyph glyph-name="Kcommaaccent" unicode="&#x136;" horiz-adv-x="653" 
d="M656 12c4 0 4 -12 0 -12h-112c-77 0 -48 -23 -176 145l-137 182l-26 -27v-219c0 -58 10 -69 76 -69c4 0 4 -12 0 -12c-34 0 -75 2 -124 2c-47 0 -90 -2 -125 -2c-4 0 -4 12 0 12c65 0 77 11 77 69v463c0 57 -11 69 -76 69c-4 0 -4 12 0 12c35 0 77 -3 124 -3
c49 0 91 3 124 3c3 0 3 -12 0 -12c-65 0 -76 -14 -76 -71v-211l196 198c50 50 38 84 -30 84c-4 0 -4 12 0 12c35 0 65 -3 125 -3s90 3 123 3c3 0 3 -12 0 -12c-58 0 -134 -32 -192 -90l-128 -128l147 -195c136 -188 153 -188 210 -188zM342 -75c43 0 65 -30 65 -77
c0 -54 -30 -91 -71 -123c-5 -3 -12 5 -7 8c26 23 47 47 47 76c0 15 -3 25 -9 31c-6 -11 -19 -17 -37 -17c-27 0 -45 20 -45 51c0 35 27 51 57 51z" />
    <glyph glyph-name="L" unicode="L" horiz-adv-x="541" 
d="M203 543v-458c0 -51 10 -59 66 -59h59c95 0 164 57 185 147c1 3 12 1 12 -2c-5 -42 -10 -107 -10 -156c0 -11 -3 -15 -15 -15h-468c-4 0 -4 12 0 12c65 0 76 11 76 69v463c0 57 -11 69 -76 69c-4 0 -4 12 0 12c32 0 76 -3 123 -3c49 0 92 3 125 3c3 0 3 -12 0 -12
c-65 0 -77 -13 -77 -70z" />
    <glyph glyph-name="Lacute" unicode="&#x139;" horiz-adv-x="541" 
d="M64 678c-6 -2 -9 9 -5 11c53 33 94 69 138 100c11 9 111 -29 89 -33c-89 -23 -154 -47 -222 -78zM204 543v-458c0 -51 9 -59 65 -59h58c96 0 165 57 186 147c0 4 12 1 12 -2c-5 -42 -9 -107 -9 -156c0 -11 -4 -15 -15 -15h-469c-4 0 -4 12 0 12c65 0 76 11 76 69v463
c0 57 -11 69 -76 69c-4 0 -4 12 0 12c31 0 77 -3 124 -3c49 0 91 3 124 3c3 0 3 -12 0 -12c-65 0 -76 -13 -76 -70z" />
    <glyph glyph-name="Lcaron" unicode="&#x13d;" horiz-adv-x="541" 
d="M353 625c0 10 73 -20 69 -34l-50 -239c-1 -3 -11 -2 -11 1zM204 543v-458c0 -51 9 -59 65 -59h58c96 0 165 57 186 147c0 4 12 1 12 -2c-5 -42 -9 -107 -9 -156c0 -11 -4 -15 -15 -15h-469c-4 0 -4 12 0 12c65 0 76 11 76 69v463c0 57 -11 69 -76 69c-4 0 -4 12 0 12
c31 0 77 -3 124 -3c49 0 91 3 124 3c3 0 3 -12 0 -12c-65 0 -76 -13 -76 -70z" />
    <glyph glyph-name="Lcommaaccent" unicode="&#x13b;" horiz-adv-x="541" 
d="M513 173c0 4 12 1 12 -2c-5 -42 -9 -107 -9 -156c0 -11 -4 -15 -15 -15h-469c-4 0 -4 12 0 12c65 0 76 11 76 69v463c0 57 -11 69 -76 69c-4 0 -4 12 0 12c31 0 77 -3 124 -3c49 0 91 3 124 3c3 0 3 -12 0 -12c-65 0 -76 -13 -76 -70v-458c0 -51 9 -59 65 -59h58
c96 0 165 57 186 147zM288 -75c43 0 66 -30 66 -77c0 -54 -31 -91 -72 -123c-4 -3 -11 5 -7 8c26 23 47 47 47 76c0 15 -3 25 -9 31c-6 -11 -19 -17 -37 -17c-26 0 -45 20 -45 51c0 35 27 51 57 51z" />
    <glyph glyph-name="Ldot" unicode="&#x13f;" horiz-adv-x="541" 
d="M204 543v-458c0 -51 9 -59 65 -59h58c96 0 165 57 186 147c0 4 12 1 12 -2c-5 -42 -9 -107 -9 -156c0 -11 -4 -15 -15 -15h-469c-4 0 -4 12 0 12c65 0 76 11 76 69v463c0 57 -11 69 -76 69c-4 0 -4 12 0 12c31 0 77 -3 124 -3c49 0 91 3 124 3c3 0 3 -12 0 -12
c-65 0 -76 -13 -76 -70zM428 263c-34 0 -55 20 -55 55c0 32 21 52 55 52s54 -20 54 -52c0 -35 -20 -55 -54 -55z" />
    <glyph glyph-name="uni1E36" unicode="&#x1e36;" horiz-adv-x="541" 
d="M204 543v-458c0 -51 9 -59 65 -59h58c96 0 165 57 186 147c0 4 12 1 12 -2c-5 -42 -9 -107 -9 -156c0 -11 -4 -15 -15 -15h-469c-4 0 -4 12 0 12c65 0 76 11 76 69v463c0 57 -11 69 -76 69c-4 0 -4 12 0 12c31 0 77 -3 124 -3c49 0 91 3 124 3c3 0 3 -12 0 -12
c-65 0 -76 -13 -76 -70zM295 -201c-34 0 -55 20 -55 55c0 31 21 51 55 51s52 -20 52 -51c0 -35 -18 -55 -52 -55z" />
    <glyph glyph-name="uni1E38" unicode="&#x1e38;" horiz-adv-x="541" 
d="M35 716c-12 0 -12 34 0 34h251c12 0 12 -34 0 -34h-251zM204 543v-458c0 -51 9 -59 65 -59h58c96 0 165 57 186 147c0 4 12 1 12 -2c-5 -42 -9 -107 -9 -156c0 -11 -4 -15 -15 -15h-469c-4 0 -4 12 0 12c65 0 76 11 76 69v463c0 57 -11 69 -76 69c-4 0 -4 12 0 12
c31 0 77 -3 124 -3c49 0 91 3 124 3c3 0 3 -12 0 -12c-65 0 -76 -13 -76 -70zM295 -201c-34 0 -55 20 -55 55c0 31 21 51 55 51s52 -20 52 -51c0 -35 -18 -55 -52 -55z" />
    <glyph glyph-name="uni1E3A" unicode="&#x1e3a;" horiz-adv-x="541" 
d="M204 543v-458c0 -51 9 -59 65 -59h58c96 0 165 57 186 147c0 4 12 1 12 -2c-5 -42 -9 -107 -9 -156c0 -11 -4 -15 -15 -15h-469c-4 0 -4 12 0 12c65 0 76 11 76 69v463c0 57 -11 69 -76 69c-4 0 -4 12 0 12c31 0 77 -3 124 -3c49 0 91 3 124 3c3 0 3 -12 0 -12
c-65 0 -76 -13 -76 -70zM167 -119c-11 0 -11 34 0 34h252c11 0 11 -34 0 -34h-252z" />
    <glyph glyph-name="Lslash" unicode="&#x141;" horiz-adv-x="538" 
d="M513 173c0 4 12 1 12 -2c-5 -42 -9 -107 -9 -156c0 -11 -4 -15 -15 -15h-469c-4 0 -4 12 0 12c65 0 76 11 76 69v171l-52 -30c-5 -3 -18 20 -13 22l65 37v263c0 57 -11 69 -76 69c-4 0 -4 12 0 12c31 0 77 -3 124 -3c49 0 91 3 124 3c3 0 3 -12 0 -12
c-65 0 -76 -13 -76 -70v-206l110 63c4 3 17 -20 12 -22l-122 -70v-223c0 -51 9 -59 65 -59h58c96 0 165 57 186 147z" />
    <glyph glyph-name="M" unicode="M" horiz-adv-x="850" 
d="M826 12c3 0 3 -12 0 -12c-34 0 -78 2 -124 2c-48 0 -89 -2 -122 -2c-3 0 -3 12 0 12c64 0 76 11 73 69l-20 422l-213 -496c-3 -5 -14 -5 -17 0l-250 494l-9 -380c-1 -70 27 -109 85 -109c4 0 4 -12 0 -12c-29 0 -59 2 -97 2c-40 0 -73 -2 -101 -2c-4 0 -4 12 0 12
c54 0 86 39 87 109l9 431c-23 42 -52 61 -89 61c-4 0 -4 12 0 12c26 0 57 -2 77 -2c30 0 54 2 67 2c18 0 24 -9 46 -52l220 -429l199 456c8 18 16 25 31 25c10 0 25 -2 44 -2c41 0 64 2 93 2c3 0 3 -12 0 -12c-63 0 -92 -21 -89 -75l23 -457c3 -58 12 -69 77 -69z" />
    <glyph glyph-name="uni1E40" unicode="&#x1e40;" horiz-adv-x="850" 
d="M426 713c-34 0 -55 20 -55 55c0 32 21 52 55 52s53 -20 53 -52c0 -35 -19 -55 -53 -55zM826 12c3 0 3 -12 0 -12c-34 0 -77 2 -124 2c-48 0 -88 -2 -122 -2c-3 0 -3 12 0 12c63 0 76 11 73 69l-20 425l-213 -499c-2 -5 -14 -5 -16 0l-252 496l-8 -381
c-1 -72 28 -110 85 -110c4 0 4 -12 0 -12c-29 0 -59 2 -97 2c-40 0 -72 -2 -102 -2c-3 0 -3 12 0 12c55 0 87 38 88 110l10 428c-23 43 -52 63 -91 63c-3 0 -3 12 0 12c27 0 58 -2 78 -2c30 0 55 2 67 2c18 0 24 -9 46 -52l221 -430l198 457c8 18 16 25 30 25
c12 0 26 -2 45 -2c41 0 64 2 93 2c4 0 4 -12 0 -12c-63 0 -92 -21 -90 -75l24 -457c3 -58 12 -69 77 -69z" />
    <glyph glyph-name="uni1E42" unicode="&#x1e42;" horiz-adv-x="850" 
d="M826 12c3 0 3 -12 0 -12c-34 0 -77 2 -124 2c-48 0 -88 -2 -122 -2c-3 0 -3 12 0 12c63 0 76 11 73 69l-20 425l-213 -499c-2 -5 -14 -5 -16 0l-252 496l-8 -381c-1 -72 28 -110 85 -110c4 0 4 -12 0 -12c-29 0 -59 2 -97 2c-40 0 -72 -2 -102 -2c-3 0 -3 12 0 12
c55 0 87 38 88 110l10 428c-23 43 -52 63 -91 63c-3 0 -3 12 0 12c27 0 58 -2 78 -2c30 0 55 2 67 2c18 0 24 -9 46 -52l221 -430l198 457c8 18 16 25 30 25c12 0 26 -2 45 -2c41 0 64 2 93 2c4 0 4 -12 0 -12c-63 0 -92 -21 -90 -75l24 -457c3 -58 12 -69 77 -69zM415 -95
c34 0 53 -20 53 -51c0 -35 -19 -55 -53 -55s-55 20 -55 55c0 31 21 51 55 51z" />
    <glyph glyph-name="N" unicode="N" horiz-adv-x="732" 
d="M717 625c3 0 3 -12 0 -12c-54 0 -84 -39 -84 -110v-517c0 -3 -9 -5 -12 -2l-469 545v-408c0 -70 29 -109 82 -109c3 0 3 -12 0 -12c-29 0 -58 2 -94 2c-38 0 -74 -2 -105 -2c-4 0 -4 12 0 12c58 0 90 39 90 109v439c-39 41 -68 53 -97 53c-3 0 -3 12 0 12
c25 0 54 -2 77 -2c40 0 75 2 92 2c18 0 18 -14 49 -52l360 -424v354c0 71 -28 110 -81 110c-3 0 -3 12 0 12c28 0 58 -3 94 -3c35 0 69 3 98 3z" />
    <glyph glyph-name="Nacute" unicode="&#x143;" horiz-adv-x="732" 
d="M283 678c-6 -2 -9 9 -4 11c52 33 93 69 138 100c10 9 111 -29 88 -33c-88 -23 -154 -47 -222 -78zM717 625c3 0 3 -12 0 -12c-54 0 -84 -39 -84 -110v-517c0 -4 -10 -5 -12 -2l-469 544v-406c0 -72 29 -110 82 -110c3 0 3 -12 0 -12c-29 0 -59 2 -95 2
c-37 0 -74 -2 -104 -2c-3 0 -3 12 0 12c57 0 90 38 90 110v437c-39 42 -67 54 -97 54c-3 0 -3 12 0 12c26 0 54 -2 77 -2c40 0 75 2 93 2c17 0 17 -14 49 -52l359 -424v354c0 71 -28 110 -81 110c-3 0 -3 12 0 12c28 0 57 -3 94 -3c35 0 69 3 98 3z" />
    <glyph glyph-name="Ncaron" unicode="&#x147;" horiz-adv-x="732" 
d="M266 796c-4 3 3 9 5 8l109 -46l108 46c3 2 8 -4 6 -8l-103 -109c-6 -6 -17 -6 -22 0zM717 625c3 0 3 -12 0 -12c-54 0 -84 -39 -84 -110v-517c0 -4 -10 -5 -12 -2l-469 544v-406c0 -72 29 -110 82 -110c3 0 3 -12 0 -12c-29 0 -59 2 -95 2c-37 0 -74 -2 -104 -2
c-3 0 -3 12 0 12c57 0 90 38 90 110v437c-39 42 -67 54 -97 54c-3 0 -3 12 0 12c26 0 54 -2 77 -2c40 0 75 2 93 2c17 0 17 -14 49 -52l359 -424v354c0 71 -28 110 -81 110c-3 0 -3 12 0 12c28 0 57 -3 94 -3c35 0 69 3 98 3z" />
    <glyph glyph-name="Ncommaaccent" unicode="&#x145;" horiz-adv-x="732" 
d="M717 625c3 0 3 -12 0 -12c-54 0 -84 -39 -84 -110v-517c0 -4 -10 -5 -12 -2l-469 544v-406c0 -72 29 -110 82 -110c3 0 3 -12 0 -12c-29 0 -59 2 -95 2c-37 0 -74 -2 -104 -2c-3 0 -3 12 0 12c57 0 90 38 90 110v437c-39 42 -67 54 -97 54c-3 0 -3 12 0 12
c26 0 54 -2 77 -2c40 0 75 2 93 2c17 0 17 -14 49 -52l359 -424v354c0 71 -28 110 -81 110c-3 0 -3 12 0 12c28 0 57 -3 94 -3c35 0 69 3 98 3zM368 -75c44 0 66 -30 66 -77c0 -54 -30 -91 -71 -123c-5 -3 -12 5 -7 8c25 23 46 47 46 76c0 15 -3 25 -8 31
c-7 -11 -19 -17 -37 -17c-27 0 -46 20 -46 51c0 35 27 51 57 51z" />
    <glyph glyph-name="uni1E44" unicode="&#x1e44;" horiz-adv-x="732" 
d="M381 713c-34 0 -55 20 -55 55c0 32 21 52 55 52s53 -20 53 -52c0 -35 -19 -55 -53 -55zM717 625c3 0 3 -12 0 -12c-54 0 -84 -39 -84 -110v-517c0 -4 -10 -5 -12 -2l-469 544v-406c0 -72 29 -110 82 -110c3 0 3 -12 0 -12c-29 0 -59 2 -95 2c-37 0 -74 -2 -104 -2
c-3 0 -3 12 0 12c57 0 90 38 90 110v437c-39 42 -67 54 -97 54c-3 0 -3 12 0 12c26 0 54 -2 77 -2c40 0 75 2 93 2c17 0 17 -14 49 -52l359 -424v354c0 71 -28 110 -81 110c-3 0 -3 12 0 12c28 0 57 -3 94 -3c35 0 69 3 98 3z" />
    <glyph glyph-name="uni1E46" unicode="&#x1e46;" horiz-adv-x="732" 
d="M717 625c3 0 3 -12 0 -12c-54 0 -84 -39 -84 -110v-517c0 -4 -10 -5 -12 -2l-469 544v-406c0 -72 29 -110 82 -110c3 0 3 -12 0 -12c-29 0 -59 2 -95 2c-37 0 -74 -2 -104 -2c-3 0 -3 12 0 12c57 0 90 38 90 110v437c-39 42 -67 54 -97 54c-3 0 -3 12 0 12
c26 0 54 -2 77 -2c40 0 75 2 93 2c17 0 17 -14 49 -52l359 -424v354c0 71 -28 110 -81 110c-3 0 -3 12 0 12c28 0 57 -3 94 -3c35 0 69 3 98 3zM375 -95c34 0 53 -20 53 -51c0 -35 -19 -55 -53 -55c-33 0 -55 20 -55 55c0 31 22 51 55 51z" />
    <glyph glyph-name="Eng" unicode="&#x14a;" horiz-adv-x="732" 
d="M717 625c3 0 3 -12 0 -12c-54 0 -84 -39 -84 -110v-517c0 -110 -49 -177 -131 -177c-59 0 -98 26 -98 62c0 27 18 48 46 48c69 0 26 -85 77 -85c49 0 79 60 79 150v17l-454 528v-408c0 -70 29 -109 82 -109c3 0 3 -12 0 -12c-29 0 -58 2 -94 2c-38 0 -74 -2 -105 -2
c-4 0 -4 12 0 12c58 0 91 39 91 109v438c-40 42 -68 54 -98 54c-3 0 -3 12 0 12c25 0 54 -2 77 -2c40 0 75 2 92 2c18 0 18 -14 49 -52l360 -424v354c0 71 -28 110 -81 110c-3 0 -3 12 0 12c28 0 58 -3 94 -3c35 0 69 3 98 3z" />
    <glyph glyph-name="uni1E48" unicode="&#x1e48;" horiz-adv-x="732" 
d="M717 625c3 0 3 -12 0 -12c-54 0 -84 -39 -84 -110v-517c0 -4 -10 -5 -12 -2l-469 544v-406c0 -72 29 -110 82 -110c3 0 3 -12 0 -12c-29 0 -59 2 -95 2c-37 0 -74 -2 -104 -2c-3 0 -3 12 0 12c57 0 90 38 90 110v437c-39 42 -67 54 -97 54c-3 0 -3 12 0 12
c26 0 54 -2 77 -2c40 0 75 2 93 2c17 0 17 -14 49 -52l359 -424v354c0 71 -28 110 -81 110c-3 0 -3 12 0 12c28 0 57 -3 94 -3c35 0 69 3 98 3zM499 -85c12 0 12 -34 0 -34h-251c-12 0 -12 34 0 34h251z" />
    <glyph glyph-name="Ntilde" unicode="&#xd1;" horiz-adv-x="732" 
d="M259 697c-3 -2 -10 4 -7 7c16 27 48 75 86 75c29 0 77 -25 122 -25c24 0 35 9 51 27c3 3 10 -3 7 -7c-36 -61 -55 -75 -82 -75c-38 0 -80 25 -127 25c-28 0 -35 -12 -50 -27zM717 625c3 0 3 -12 0 -12c-54 0 -84 -39 -84 -110v-517c0 -4 -10 -5 -12 -2l-469 544v-406
c0 -72 29 -110 82 -110c3 0 3 -12 0 -12c-29 0 -59 2 -95 2c-37 0 -74 -2 -104 -2c-3 0 -3 12 0 12c57 0 90 38 90 110v437c-39 42 -67 54 -97 54c-3 0 -3 12 0 12c26 0 54 -2 77 -2c40 0 75 2 93 2c17 0 17 -14 49 -52l359 -424v354c0 71 -28 110 -81 110c-3 0 -3 12 0 12
c28 0 57 -3 94 -3c35 0 69 3 98 3z" />
    <glyph glyph-name="O" unicode="O" horiz-adv-x="766" 
d="M366 -12c-192 0 -317 148 -317 324c0 217 190 324 352 324c197 0 316 -156 316 -317c0 -186 -161 -331 -351 -331zM400 12c118 0 210 99 210 278c0 184 -95 321 -249 321c-132 0 -205 -100 -205 -263c0 -193 102 -336 244 -336z" />
    <glyph glyph-name="Oacute" unicode="&#xd3;" horiz-adv-x="766" 
d="M290 678c-6 -2 -9 9 -5 11c53 33 94 69 138 100c11 9 111 -29 89 -33c-89 -23 -154 -47 -222 -78zM366 -12c-192 0 -317 148 -317 324c0 217 190 324 352 324c197 0 316 -156 316 -317c0 -186 -161 -331 -351 -331zM400 12c118 0 209 99 209 278c0 185 -94 321 -249 321
c-131 0 -203 -100 -203 -264c0 -193 100 -335 243 -335z" />
    <glyph glyph-name="Obreve" unicode="&#x14e;" horiz-adv-x="766" 
d="M387 690c-63 0 -99 42 -103 119c0 5 11 6 11 3c3 -28 43 -56 92 -56c48 0 88 28 91 56c0 3 11 2 11 -3c-4 -77 -39 -119 -102 -119zM366 -12c-192 0 -317 148 -317 324c0 217 190 324 352 324c197 0 316 -156 316 -317c0 -186 -161 -331 -351 -331zM400 12
c118 0 209 99 209 278c0 185 -94 321 -249 321c-131 0 -203 -100 -203 -264c0 -193 100 -335 243 -335z" />
    <glyph glyph-name="uni01D1" unicode="&#x1d1;" horiz-adv-x="766" 
d="M375 687l-103 109c-3 3 4 9 6 8l109 -46l108 46c3 2 8 -4 6 -8l-103 -109c-6 -6 -17 -6 -23 0zM366 -12c-192 0 -317 148 -317 324c0 217 190 324 352 324c197 0 316 -156 316 -317c0 -186 -161 -331 -351 -331zM400 12c118 0 209 99 209 278c0 185 -94 321 -249 321
c-131 0 -203 -100 -203 -264c0 -193 100 -335 243 -335z" />
    <glyph glyph-name="Ocircumflex" unicode="&#xd4;" horiz-adv-x="766" 
d="M274 698l103 110c5 6 16 6 22 0l103 -110c3 -2 -3 -9 -6 -7l-108 46l-109 -46c-2 -1 -9 5 -5 7zM366 -12c-192 0 -317 148 -317 324c0 217 190 324 352 324c197 0 316 -156 316 -317c0 -186 -161 -331 -351 -331zM400 12c118 0 209 99 209 278c0 185 -94 321 -249 321
c-131 0 -203 -100 -203 -264c0 -193 100 -335 243 -335z" />
    <glyph glyph-name="uni1ED0" unicode="&#x1ed0;" horiz-adv-x="766" 
d="M453 739c-5 -3 -11 6 -9 10c24 33 47 70 65 101c6 12 111 -25 90 -34c-59 -22 -102 -46 -146 -77zM273 655l102 110c6 6 17 6 23 0l103 -110c3 -2 -3 -9 -6 -7l-108 44l-109 -44c-2 -1 -9 5 -5 7zM366 -12c-192 0 -317 148 -317 324c0 217 190 324 352 324
c197 0 316 -156 316 -317c0 -186 -161 -331 -351 -331zM400 12c118 0 209 99 209 278c0 185 -94 321 -249 321c-131 0 -203 -100 -203 -264c0 -193 100 -335 243 -335z" />
    <glyph glyph-name="uni1ED8" unicode="&#x1ed8;" horiz-adv-x="766" 
d="M272 655l103 110c6 6 17 6 23 0l103 -110c3 -2 -3 -9 -6 -7l-108 44l-109 -44c-2 -1 -9 5 -6 7zM366 -12c-192 0 -317 148 -317 324c0 217 190 324 352 324c197 0 316 -156 316 -317c0 -186 -161 -331 -351 -331zM400 12c118 0 209 99 209 278c0 185 -94 321 -249 321
c-131 0 -203 -100 -203 -264c0 -193 100 -335 243 -335zM396 -201c-33 0 -54 20 -54 55c0 31 21 51 54 51c34 0 53 -20 53 -51c0 -35 -19 -55 -53 -55z" />
    <glyph glyph-name="uni1ED2" unicode="&#x1ed2;" horiz-adv-x="766" 
d="M545 719c-44 31 -84 54 -143 77c-22 9 83 46 89 34c18 -31 39 -67 62 -100c3 -5 -2 -13 -8 -11zM273 655l102 110c6 6 17 6 23 0l103 -110c3 -2 -3 -9 -6 -7l-108 44l-109 -44c-2 -1 -9 5 -5 7zM366 -12c-192 0 -317 148 -317 324c0 217 190 324 352 324
c197 0 316 -156 316 -317c0 -186 -161 -331 -351 -331zM400 12c118 0 209 99 209 278c0 185 -94 321 -249 321c-131 0 -203 -100 -203 -264c0 -193 100 -335 243 -335z" />
    <glyph glyph-name="uni1ED4" unicode="&#x1ed4;" horiz-adv-x="766" 
d="M474 727c-10 34 21 58 21 87c0 23 -18 32 -32 32c-7 0 -14 -2 -20 -4c-3 -2 -11 6 -7 8c21 13 44 19 61 19c33 0 53 -21 53 -43c0 -42 -68 -63 -65 -99c0 -2 -10 -3 -11 0zM273 655l102 110c6 6 17 6 23 0l103 -110c3 -2 -3 -9 -6 -7l-108 44l-109 -44c-2 -1 -9 5 -5 7z
M366 -12c-192 0 -317 148 -317 324c0 217 190 324 352 324c197 0 316 -156 316 -317c0 -186 -161 -331 -351 -331zM400 12c118 0 209 99 209 278c0 185 -94 321 -249 321c-131 0 -203 -100 -203 -264c0 -193 100 -335 243 -335z" />
    <glyph glyph-name="uni1ED6" unicode="&#x1ed6;" horiz-adv-x="766" 
d="M470 839c24 0 34 9 50 26c3 3 10 -3 7 -7c-36 -59 -53 -73 -81 -73c-39 0 -81 24 -128 24c-28 0 -35 -11 -50 -27c-3 -2 -10 4 -7 7c16 27 49 74 86 74c30 0 78 -24 123 -24zM273 655l102 110c6 6 17 6 23 0l103 -110c3 -2 -3 -9 -6 -7l-108 44l-109 -44c-2 -1 -9 5 -5 7
zM366 -12c-192 0 -317 148 -317 324c0 217 190 324 352 324c197 0 316 -156 316 -317c0 -186 -161 -331 -351 -331zM400 12c118 0 209 99 209 278c0 185 -94 321 -249 321c-131 0 -203 -100 -203 -264c0 -193 100 -335 243 -335z" />
    <glyph glyph-name="Odieresis" unicode="&#xd6;" horiz-adv-x="766" 
d="M301 708c-32 0 -52 17 -52 50c0 29 20 48 52 48c30 0 49 -19 49 -48c0 -33 -19 -50 -49 -50zM475 708c-32 0 -51 17 -51 50c0 29 19 47 51 47c30 0 48 -18 48 -47c0 -33 -18 -50 -48 -50zM366 -12c-192 0 -317 148 -317 324c0 217 190 324 352 324
c197 0 316 -156 316 -317c0 -186 -161 -331 -351 -331zM400 12c118 0 209 99 209 278c0 185 -94 321 -249 321c-131 0 -203 -100 -203 -264c0 -193 100 -335 243 -335z" />
    <glyph glyph-name="uni1ECC" unicode="&#x1ecc;" horiz-adv-x="766" 
d="M366 -12c-192 0 -317 148 -317 324c0 217 190 324 352 324c197 0 316 -156 316 -317c0 -186 -161 -331 -351 -331zM400 12c118 0 209 99 209 278c0 185 -94 321 -249 321c-131 0 -203 -100 -203 -264c0 -193 100 -335 243 -335zM396 -201c-33 0 -54 20 -54 55
c0 31 21 51 54 51c34 0 53 -20 53 -51c0 -35 -19 -55 -53 -55z" />
    <glyph glyph-name="Ograve" unicode="&#xd2;" horiz-adv-x="766" 
d="M486 678c-67 31 -133 55 -222 78c-23 4 79 42 89 33c43 -31 86 -67 138 -100c5 -2 1 -13 -5 -11zM366 -12c-192 0 -317 148 -317 324c0 217 190 324 352 324c197 0 316 -156 316 -317c0 -186 -161 -331 -351 -331zM400 12c118 0 209 99 209 278c0 185 -94 321 -249 321
c-131 0 -203 -100 -203 -264c0 -193 100 -335 243 -335z" />
    <glyph glyph-name="uni1ECE" unicode="&#x1ece;" horiz-adv-x="766" 
d="M389 651c0 -2 -10 -3 -11 0c-14 60 29 88 29 135c0 26 -13 37 -33 37c-10 0 -22 -3 -34 -9c-3 -2 -10 6 -7 8c24 18 51 26 77 26c41 0 68 -21 68 -52c0 -58 -93 -95 -89 -145zM366 -12c-192 0 -317 148 -317 324c0 217 190 324 352 324c197 0 316 -156 316 -317
c0 -186 -161 -331 -351 -331zM400 12c118 0 209 99 209 278c0 185 -94 321 -249 321c-131 0 -203 -100 -203 -264c0 -193 100 -335 243 -335z" />
    <glyph glyph-name="Ohorn" unicode="&#x1a0;" horiz-adv-x="766" 
d="M741 661c0 -58 -55 -93 -113 -118c57 -59 89 -141 89 -224c0 -186 -161 -331 -351 -331c-192 0 -317 148 -317 324c0 217 190 324 352 324c89 0 162 -32 215 -81c37 16 54 35 54 54c0 21 -22 25 -22 55c0 31 26 46 49 46c30 0 44 -26 44 -49zM400 12
c118 0 209 99 209 278c0 185 -94 321 -249 321c-131 0 -203 -100 -203 -264c0 -193 100 -335 243 -335z" />
    <glyph glyph-name="uni1EDA" unicode="&#x1eda;" horiz-adv-x="766" 
d="M287 678c-6 -2 -10 9 -5 11c53 33 93 69 138 100c10 9 111 -29 89 -33c-89 -23 -155 -47 -222 -78zM742 661c0 -58 -56 -93 -114 -118c57 -59 89 -141 89 -224c0 -186 -161 -331 -351 -331c-192 0 -317 148 -317 324c0 217 190 324 352 324c89 0 162 -32 215 -81
c37 16 54 35 54 54c0 21 -22 25 -22 55c0 31 26 46 49 46c30 0 45 -26 45 -49zM400 12c118 0 209 99 209 278c0 185 -94 321 -249 321c-131 0 -203 -100 -203 -264c0 -193 100 -335 243 -335z" />
    <glyph glyph-name="uni1EE2" unicode="&#x1ee2;" horiz-adv-x="766" 
d="M742 661c0 -58 -56 -93 -114 -118c57 -59 89 -141 89 -224c0 -186 -161 -331 -351 -331c-192 0 -317 148 -317 324c0 217 190 324 352 324c89 0 162 -32 215 -81c37 16 54 35 54 54c0 21 -22 25 -22 55c0 31 26 46 49 46c30 0 45 -26 45 -49zM400 12
c118 0 209 99 209 278c0 185 -94 321 -249 321c-131 0 -203 -100 -203 -264c0 -193 100 -335 243 -335zM385 -95c34 0 52 -20 52 -51c0 -35 -18 -55 -52 -55s-55 20 -55 55c0 31 21 51 55 51z" />
    <glyph glyph-name="uni1EDC" unicode="&#x1edc;" horiz-adv-x="766" 
d="M261 756c-24 4 78 42 89 33c43 -31 85 -67 138 -100c4 -2 1 -13 -5 -11c-68 31 -133 55 -222 78zM742 661c0 -58 -56 -93 -114 -118c57 -59 89 -141 89 -224c0 -186 -161 -331 -351 -331c-192 0 -317 148 -317 324c0 217 190 324 352 324c89 0 162 -32 215 -81
c37 16 54 35 54 54c0 21 -22 25 -22 55c0 31 26 46 49 46c30 0 45 -26 45 -49zM400 12c118 0 209 99 209 278c0 185 -94 321 -249 321c-131 0 -203 -100 -203 -264c0 -193 100 -335 243 -335z" />
    <glyph glyph-name="uni1EDE" unicode="&#x1ede;" horiz-adv-x="766" 
d="M336 824c-4 -3 -11 4 -7 8c22 18 50 26 76 26c42 0 67 -21 67 -53c0 -57 -93 -95 -89 -144c0 -2 -10 -3 -11 0c-13 60 29 88 29 135c0 25 -12 36 -33 36c-9 0 -21 -2 -32 -8zM742 661c0 -58 -56 -93 -114 -118c57 -59 89 -141 89 -224c0 -186 -161 -331 -351 -331
c-192 0 -317 148 -317 324c0 217 190 324 352 324c89 0 162 -32 215 -81c37 16 54 35 54 54c0 21 -22 25 -22 55c0 31 26 46 49 46c30 0 45 -26 45 -49zM400 12c118 0 209 99 209 278c0 185 -94 321 -249 321c-131 0 -203 -100 -203 -264c0 -193 100 -335 243 -335z" />
    <glyph glyph-name="uni1EE0" unicode="&#x1ee0;" horiz-adv-x="766" 
d="M257 712c-2 -2 -9 4 -7 7c17 27 49 74 87 74c29 0 77 -25 123 -25c23 0 34 10 50 27c2 3 9 -3 7 -7c-36 -59 -54 -73 -82 -73c-39 0 -81 24 -127 24c-28 0 -35 -12 -51 -27zM742 661c0 -58 -56 -93 -114 -118c57 -59 89 -141 89 -224c0 -186 -161 -331 -351 -331
c-192 0 -317 148 -317 324c0 217 190 324 352 324c89 0 162 -32 215 -81c37 16 54 35 54 54c0 21 -22 25 -22 55c0 31 26 46 49 46c30 0 45 -26 45 -49zM400 12c118 0 209 99 209 278c0 185 -94 321 -249 321c-131 0 -203 -100 -203 -264c0 -193 100 -335 243 -335z" />
    <glyph glyph-name="Ohungarumlaut" unicode="&#x150;" horiz-adv-x="766" 
d="M279 670c-6 -3 -12 6 -9 11c36 38 66 77 91 115c5 13 100 -23 81 -32c-64 -28 -112 -56 -163 -94zM421 670c-5 -3 -11 6 -8 11c35 37 64 78 90 115c6 13 100 -23 81 -32c-63 -28 -111 -56 -163 -94zM366 -12c-192 0 -317 148 -317 324c0 217 190 324 352 324
c197 0 316 -156 316 -317c0 -186 -161 -331 -351 -331zM400 12c118 0 209 99 209 278c0 185 -94 321 -249 321c-131 0 -203 -100 -203 -264c0 -193 100 -335 243 -335z" />
    <glyph glyph-name="Omacron" unicode="&#x14c;" horiz-adv-x="766" 
d="M261 716c-12 0 -12 34 0 34h251c12 0 12 -34 0 -34h-251zM366 -12c-192 0 -317 148 -317 324c0 217 190 324 352 324c197 0 316 -156 316 -317c0 -186 -161 -331 -351 -331zM400 12c118 0 209 99 209 278c0 185 -94 321 -249 321c-131 0 -203 -100 -203 -264
c0 -193 100 -335 243 -335z" />
    <glyph glyph-name="uni01EA" unicode="&#x1ea;" horiz-adv-x="766" 
d="M439 -5c-41 -40 -58 -74 -58 -120c0 -67 35 -111 96 -111c20 0 40 7 50 14c4 2 11 -5 7 -8c-38 -32 -75 -45 -111 -45c-69 0 -116 46 -116 107c0 50 34 103 105 159c-15 -2 -31 -3 -46 -3c-192 0 -317 148 -317 324c0 217 190 324 352 324c197 0 316 -156 316 -317
c0 -162 -121 -292 -278 -324zM157 347c0 -193 100 -335 243 -335c118 0 209 99 209 278c0 185 -94 321 -249 321c-131 0 -203 -100 -203 -264z" />
    <glyph glyph-name="Oslash" unicode="&#xd8;" horiz-adv-x="783" 
d="M629 542c57 -60 88 -141 88 -223c0 -186 -161 -331 -351 -331c-84 0 -155 28 -208 75l-71 -72c-4 -3 -22 14 -18 19l70 71c-58 59 -90 141 -90 231c0 217 190 324 352 324c86 0 157 -30 210 -76l71 72c4 3 23 -12 19 -17zM157 347c0 -78 16 -147 45 -202l353 358
c-43 67 -110 108 -195 108c-131 0 -203 -100 -203 -264zM400 12c118 0 209 99 209 278c0 72 -14 137 -41 190l-353 -359c43 -68 108 -109 185 -109z" />
    <glyph glyph-name="Oslashacute" unicode="&#x1fe;" horiz-adv-x="783" 
d="M301 678c-6 -2 -9 9 -5 11c53 33 94 69 138 100c11 9 112 -29 89 -33c-89 -23 -154 -47 -222 -78zM629 542c57 -60 88 -141 88 -223c0 -186 -161 -331 -351 -331c-84 0 -155 28 -209 75l-70 -71c-4 -4 -23 13 -18 17l70 71c-57 60 -90 142 -90 232c0 217 190 324 352 324
c86 0 157 -30 210 -76l71 72c3 3 23 -12 19 -17zM157 347c0 -78 16 -147 45 -203l353 359c-43 67 -110 108 -195 108c-131 0 -203 -100 -203 -264zM400 12c118 0 209 99 209 278c0 73 -14 137 -41 190l-353 -358c43 -69 108 -110 185 -110z" />
    <glyph glyph-name="Otilde" unicode="&#xd5;" horiz-adv-x="766" 
d="M467 754c24 0 35 9 51 27c2 3 9 -3 7 -7c-36 -61 -55 -75 -82 -75c-38 0 -81 25 -127 25c-28 0 -35 -12 -51 -27c-2 -2 -9 4 -7 7c17 27 48 75 87 75c29 0 77 -25 122 -25zM366 -12c-192 0 -317 148 -317 324c0 217 190 324 352 324c197 0 316 -156 316 -317
c0 -186 -161 -331 -351 -331zM400 12c118 0 209 99 209 278c0 185 -94 321 -249 321c-131 0 -203 -100 -203 -264c0 -193 100 -335 243 -335z" />
    <glyph glyph-name="OE" unicode="&#x152;" horiz-adv-x="926" 
d="M868 155c1 4 12 2 12 -1c-5 -38 -9 -95 -9 -139c0 -11 -4 -15 -16 -15h-312c-42 0 -89 -4 -133 -4c-216 0 -361 133 -361 305c0 200 161 326 350 326c46 0 101 -2 150 -2h289c7 0 9 -3 9 -9l3 -130c0 -3 -11 -4 -12 -1c-9 52 -63 115 -131 115h-49c-49 0 -65 -16 -65 -57
v-205h96c73 0 109 26 109 74c0 4 12 4 12 0c0 -43 -1 -61 -1 -87c0 -33 2 -62 2 -98c0 -4 -12 -4 -12 0c0 55 -37 85 -112 85h-94v-227c0 -43 13 -59 56 -59h57c70 0 143 58 162 129zM497 81v459c0 53 -14 68 -87 68c-148 0 -254 -101 -254 -285c0 -172 96 -308 248 -308
c75 0 93 11 93 66z" />
    <glyph glyph-name="P" unicode="P" horiz-adv-x="550" 
d="M208 85c0 -60 14 -73 104 -73c3 0 3 -12 0 -12c-43 0 -92 2 -151 2c-47 0 -90 -2 -124 -2c-4 0 -4 12 0 12c65 0 76 11 76 69v463c0 57 -11 69 -76 69c-4 0 -4 12 0 12c34 0 76 -3 123 -3c32 0 90 6 137 6c122 0 210 -47 214 -164c4 -138 -116 -202 -219 -202
c-15 0 -32 1 -47 5c-5 1 -2 14 2 13c12 -3 26 -4 35 -4c65 0 124 54 124 166c0 106 -53 166 -139 166c-46 0 -59 -9 -59 -66v-457z" />
    <glyph glyph-name="Thorn" unicode="&#xde;" horiz-adv-x="545" 
d="M289 147c61 0 118 53 118 169c0 109 -56 164 -136 164c-23 0 -45 -2 -66 -6v-389c0 -60 14 -73 104 -73c3 0 3 -12 0 -12c-44 0 -93 2 -151 2c-44 0 -85 -2 -116 -2c-4 0 -4 12 0 12c58 0 67 11 67 69v463c0 57 -9 69 -67 69c-4 0 -4 12 0 12c31 0 72 -3 116 -3
c58 0 107 3 151 3c3 0 3 -12 0 -12c-90 0 -104 -13 -104 -74v-46c33 4 66 6 90 6c118 0 213 -42 217 -163c3 -142 -117 -203 -213 -203c-17 0 -34 2 -49 5c-5 1 -2 14 2 13c12 -2 25 -4 37 -4z" />
    <glyph glyph-name="Q" unicode="Q" horiz-adv-x="766" 
d="M745 -173c4 1 7 -9 4 -10c-26 -7 -53 -12 -82 -12c-95 0 -214 64 -293 183h-8c-192 0 -317 148 -317 324c0 217 190 324 352 324c197 0 316 -156 316 -317c0 -146 -99 -267 -234 -312c54 -107 151 -182 227 -182c14 0 26 1 35 2zM157 347c0 -193 100 -335 243 -335
c118 0 209 99 209 278c0 185 -94 321 -249 321c-131 0 -203 -100 -203 -264z" />
    <glyph glyph-name="R" unicode="R" horiz-adv-x="690" 
d="M699 12c4 0 4 -12 0 -12h-161c-31 0 -119 118 -238 317c-11 -2 -22 -3 -34 -3c-17 0 -36 0 -51 1v-234c0 -58 10 -69 76 -69c3 0 3 -12 0 -12c-35 0 -76 2 -125 2c-46 0 -90 -2 -124 -2c-4 0 -4 12 0 12c65 0 77 11 77 69v463c0 57 -11 69 -76 69c-3 0 -3 12 0 12
c34 0 77 -3 123 -3c38 0 89 6 129 6c119 0 185 -47 185 -127c0 -64 -42 -122 -101 -156c159 -245 239 -333 320 -333zM215 342c18 -2 42 -3 58 -3c78 0 108 29 108 126c0 115 -44 144 -103 144c-47 0 -63 -14 -63 -67v-200z" />
    <glyph glyph-name="Racute" unicode="&#x154;" horiz-adv-x="690" 
d="M160 678c-6 -2 -9 9 -4 11c52 33 93 69 138 100c10 9 111 -29 88 -33c-88 -23 -154 -47 -222 -78zM699 12c4 0 4 -12 0 -12h-161c-31 0 -120 118 -238 316c-11 -2 -22 -3 -33 -3c-18 0 -37 2 -53 3v-235c0 -58 11 -69 76 -69c4 0 4 -12 0 -12c-34 0 -75 2 -124 2
c-47 0 -90 -2 -124 -2c-3 0 -3 12 0 12c64 0 77 11 77 69v463c0 57 -11 69 -76 69c-3 0 -3 12 0 12c34 0 76 -3 123 -3c39 0 89 6 129 6c119 0 185 -47 185 -126c0 -64 -43 -123 -101 -158c160 -244 238 -332 320 -332zM214 343c19 -3 42 -4 60 -4c77 0 107 29 107 125
c0 116 -44 145 -103 145c-46 0 -64 -14 -64 -67v-199z" />
    <glyph glyph-name="Rcaron" unicode="&#x158;" horiz-adv-x="690" 
d="M143 796c-4 3 3 9 6 8l108 -46l108 46c3 2 8 -4 6 -8l-103 -109c-6 -6 -17 -6 -22 0zM699 12c4 0 4 -12 0 -12h-161c-31 0 -120 118 -238 316c-11 -2 -22 -3 -33 -3c-18 0 -37 2 -53 3v-235c0 -58 11 -69 76 -69c4 0 4 -12 0 -12c-34 0 -75 2 -124 2
c-47 0 -90 -2 -124 -2c-3 0 -3 12 0 12c64 0 77 11 77 69v463c0 57 -11 69 -76 69c-3 0 -3 12 0 12c34 0 76 -3 123 -3c39 0 89 6 129 6c119 0 185 -47 185 -126c0 -64 -43 -123 -101 -158c160 -244 238 -332 320 -332zM214 343c19 -3 42 -4 60 -4c77 0 107 29 107 125
c0 116 -44 145 -103 145c-46 0 -64 -14 -64 -67v-199z" />
    <glyph glyph-name="Rcommaaccent" unicode="&#x156;" horiz-adv-x="690" 
d="M699 12c4 0 4 -12 0 -12h-161c-31 0 -120 118 -238 316c-11 -2 -22 -3 -33 -3c-18 0 -37 2 -53 3v-235c0 -58 11 -69 76 -69c4 0 4 -12 0 -12c-34 0 -75 2 -124 2c-47 0 -90 -2 -124 -2c-3 0 -3 12 0 12c64 0 77 11 77 69v463c0 57 -11 69 -76 69c-3 0 -3 12 0 12
c34 0 76 -3 123 -3c39 0 89 6 129 6c119 0 185 -47 185 -126c0 -64 -43 -123 -101 -158c160 -244 238 -332 320 -332zM214 343c19 -3 42 -4 60 -4c77 0 107 29 107 125c0 116 -44 145 -103 145c-46 0 -64 -14 -64 -67v-199zM338 -75c43 0 65 -30 65 -77
c0 -54 -30 -91 -71 -123c-5 -3 -12 5 -7 8c26 23 47 47 47 76c0 15 -3 25 -9 31c-6 -11 -19 -17 -37 -17c-27 0 -45 20 -45 51c0 35 27 51 57 51z" />
    <glyph glyph-name="uni1E5A" unicode="&#x1e5a;" horiz-adv-x="690" 
d="M699 12c4 0 4 -12 0 -12h-161c-31 0 -120 118 -238 316c-11 -2 -22 -3 -33 -3c-18 0 -37 2 -53 3v-235c0 -58 11 -69 76 -69c4 0 4 -12 0 -12c-34 0 -75 2 -124 2c-47 0 -90 -2 -124 -2c-3 0 -3 12 0 12c64 0 77 11 77 69v463c0 57 -11 69 -76 69c-3 0 -3 12 0 12
c34 0 76 -3 123 -3c39 0 89 6 129 6c119 0 185 -47 185 -126c0 -64 -43 -123 -101 -158c160 -244 238 -332 320 -332zM214 343c19 -3 42 -4 60 -4c77 0 107 29 107 125c0 116 -44 145 -103 145c-46 0 -64 -14 -64 -67v-199zM345 -95c34 0 53 -20 53 -51
c0 -35 -19 -55 -53 -55s-55 20 -55 55c0 31 21 51 55 51z" />
    <glyph glyph-name="uni1E5C" unicode="&#x1e5c;" horiz-adv-x="690" 
d="M131 716c-12 0 -12 34 0 34h251c12 0 12 -34 0 -34h-251zM699 12c4 0 4 -12 0 -12h-161c-31 0 -120 118 -238 316c-11 -2 -22 -3 -33 -3c-18 0 -37 2 -53 3v-235c0 -58 11 -69 76 -69c4 0 4 -12 0 -12c-34 0 -75 2 -124 2c-47 0 -90 -2 -124 -2c-3 0 -3 12 0 12
c64 0 77 11 77 69v463c0 57 -11 69 -76 69c-3 0 -3 12 0 12c34 0 76 -3 123 -3c39 0 89 6 129 6c119 0 185 -47 185 -126c0 -64 -43 -123 -101 -158c160 -244 238 -332 320 -332zM214 343c19 -3 42 -4 60 -4c77 0 107 29 107 125c0 116 -44 145 -103 145
c-46 0 -64 -14 -64 -67v-199zM345 -95c34 0 53 -20 53 -51c0 -35 -19 -55 -53 -55s-55 20 -55 55c0 31 21 51 55 51z" />
    <glyph glyph-name="uni1E5E" unicode="&#x1e5e;" horiz-adv-x="690" 
d="M699 12c4 0 4 -12 0 -12h-161c-31 0 -120 118 -238 316c-11 -2 -22 -3 -33 -3c-18 0 -37 2 -53 3v-235c0 -58 11 -69 76 -69c4 0 4 -12 0 -12c-34 0 -75 2 -124 2c-47 0 -90 -2 -124 -2c-3 0 -3 12 0 12c64 0 77 11 77 69v463c0 57 -11 69 -76 69c-3 0 -3 12 0 12
c34 0 76 -3 123 -3c39 0 89 6 129 6c119 0 185 -47 185 -126c0 -64 -43 -123 -101 -158c160 -244 238 -332 320 -332zM214 343c19 -3 42 -4 60 -4c77 0 107 29 107 125c0 116 -44 145 -103 145c-46 0 -64 -14 -64 -67v-199zM469 -85c12 0 12 -34 0 -34h-251
c-12 0 -12 34 0 34h251z" />
    <glyph glyph-name="S" unicode="S" horiz-adv-x="507" 
d="M165 519c0 -79 67 -121 138 -165c74 -46 151 -95 151 -190c0 -103 -86 -176 -213 -176c-55 0 -122 17 -153 39c-6 3 -9 7 -10 18l-6 151c-1 6 9 7 12 3c32 -83 84 -189 182 -189c51 0 102 22 102 101c0 96 -73 141 -145 187c-70 45 -140 88 -140 178
c0 111 105 160 203 160c44 0 93 -9 124 -23c12 -5 16 -11 16 -19l2 -136c0 -4 -10 -7 -12 -2c-12 40 -50 161 -154 161c-60 0 -97 -38 -97 -98z" />
    <glyph glyph-name="Sacute" unicode="&#x15a;" horiz-adv-x="507" 
d="M169 678c-6 -2 -9 9 -5 11c53 33 94 69 138 100c11 9 111 -29 89 -33c-89 -23 -154 -47 -222 -78zM165 518c0 -78 68 -120 138 -164c75 -46 152 -94 152 -190c0 -103 -88 -176 -214 -176c-55 0 -123 17 -153 39c-6 3 -10 7 -10 19l-7 150c-1 6 11 8 12 3
c33 -83 84 -188 184 -188c50 0 100 22 100 100c0 96 -72 142 -144 187c-70 45 -140 88 -140 178c0 110 105 160 202 160c45 0 94 -9 126 -23c11 -5 15 -11 15 -19l2 -136c0 -4 -9 -7 -12 -2c-12 40 -50 160 -154 160c-60 0 -97 -37 -97 -98z" />
    <glyph glyph-name="Scaron" unicode="&#x160;" horiz-adv-x="507" 
d="M254 687l-103 109c-3 3 4 9 6 8l109 -46l108 46c3 2 8 -4 5 -8l-102 -109c-6 -6 -17 -6 -23 0zM165 518c0 -78 68 -120 138 -164c75 -46 152 -94 152 -190c0 -103 -88 -176 -214 -176c-55 0 -123 17 -153 39c-6 3 -10 7 -10 19l-7 150c-1 6 11 8 12 3
c33 -83 84 -188 184 -188c50 0 100 22 100 100c0 96 -72 142 -144 187c-70 45 -140 88 -140 178c0 110 105 160 202 160c45 0 94 -9 126 -23c11 -5 15 -11 15 -19l2 -136c0 -4 -9 -7 -12 -2c-12 40 -50 160 -154 160c-60 0 -97 -37 -97 -98z" />
    <glyph glyph-name="Scedilla" unicode="&#x15e;" horiz-adv-x="507" 
d="M455 164c0 -94 -74 -164 -183 -174c-11 -46 -4 -62 36 -86c28 -16 55 -37 55 -77c0 -46 -32 -102 -116 -102c-44 0 -71 14 -71 45c0 18 16 36 36 36c50 0 23 -59 71 -59c17 0 27 10 27 30c0 35 -21 58 -84 93c-12 6 -13 11 -6 28c17 42 19 48 34 90h-13
c-55 0 -123 17 -153 39c-6 3 -10 7 -10 19l-7 150c-1 6 11 8 12 3c33 -83 84 -188 184 -188c50 0 100 22 100 100c0 96 -72 142 -144 187c-70 45 -140 88 -140 178c0 110 105 160 202 160c45 0 94 -9 126 -23c11 -5 15 -11 15 -19l2 -136c0 -4 -9 -7 -12 -2
c-12 40 -50 160 -154 160c-60 0 -97 -37 -97 -98c0 -78 68 -120 138 -164c75 -46 152 -94 152 -190z" />
    <glyph glyph-name="Scircumflex" unicode="&#x15c;" horiz-adv-x="507" 
d="M153 698l103 110c5 6 16 6 22 0l103 -110c3 -2 -3 -9 -6 -7l-108 46l-109 -46c-2 -1 -9 5 -5 7zM165 518c0 -78 68 -120 138 -164c75 -46 152 -94 152 -190c0 -103 -88 -176 -214 -176c-55 0 -123 17 -153 39c-6 3 -10 7 -10 19l-7 150c-1 6 11 8 12 3
c33 -83 84 -188 184 -188c50 0 100 22 100 100c0 96 -72 142 -144 187c-70 45 -140 88 -140 178c0 110 105 160 202 160c45 0 94 -9 126 -23c11 -5 15 -11 15 -19l2 -136c0 -4 -9 -7 -12 -2c-12 40 -50 160 -154 160c-60 0 -97 -37 -97 -98z" />
    <glyph glyph-name="Scommaaccent" unicode="&#x218;" horiz-adv-x="507" 
d="M303 354c75 -46 152 -94 152 -190c0 -103 -88 -176 -214 -176c-55 0 -123 17 -153 39c-6 3 -10 7 -10 19l-7 150c-1 6 11 8 12 3c33 -83 84 -188 184 -188c50 0 100 22 100 100c0 96 -72 142 -144 187c-70 45 -140 88 -140 178c0 110 105 160 202 160c45 0 94 -9 126 -23
c11 -5 15 -11 15 -19l2 -136c0 -4 -9 -7 -12 -2c-12 40 -50 160 -154 160c-60 0 -97 -37 -97 -98c0 -78 68 -120 138 -164zM266 -75c43 0 65 -30 65 -77c0 -54 -30 -91 -71 -123c-5 -3 -12 5 -7 8c26 23 47 47 47 76c0 16 -3 25 -9 32c-6 -12 -19 -18 -37 -18
c-27 0 -45 20 -45 51c0 35 26 51 57 51z" />
    <glyph glyph-name="uni1E60" unicode="&#x1e60;" horiz-adv-x="507" 
d="M267 713c-34 0 -55 20 -55 55c0 32 21 52 55 52s53 -20 53 -52c0 -35 -19 -55 -53 -55zM165 518c0 -78 68 -120 138 -164c75 -46 152 -94 152 -190c0 -103 -88 -176 -214 -176c-55 0 -123 17 -153 39c-6 3 -10 7 -10 19l-7 150c-1 6 11 8 12 3c33 -83 84 -188 184 -188
c50 0 100 22 100 100c0 96 -72 142 -144 187c-70 45 -140 88 -140 178c0 110 105 160 202 160c45 0 94 -9 126 -23c11 -5 15 -11 15 -19l2 -136c0 -4 -9 -7 -12 -2c-12 40 -50 160 -154 160c-60 0 -97 -37 -97 -98z" />
    <glyph glyph-name="uni1E62" unicode="&#x1e62;" horiz-adv-x="507" 
d="M165 518c0 -78 68 -120 138 -164c75 -46 152 -94 152 -190c0 -103 -88 -176 -214 -176c-55 0 -123 17 -153 39c-6 3 -10 7 -10 19l-7 150c-1 6 11 8 12 3c33 -83 84 -188 184 -188c50 0 100 22 100 100c0 96 -72 142 -144 187c-70 45 -140 88 -140 178
c0 110 105 160 202 160c45 0 94 -9 126 -23c11 -5 15 -11 15 -19l2 -136c0 -4 -9 -7 -12 -2c-12 40 -50 160 -154 160c-60 0 -97 -37 -97 -98zM273 -201c-34 0 -55 20 -55 55c0 31 21 51 55 51c33 0 52 -20 52 -51c0 -35 -19 -55 -52 -55z" />
    <glyph glyph-name="uni1E9E" unicode="&#x1e9e;" horiz-adv-x="702" 
d="M496 12c44 0 79 28 79 88c0 86 -58 146 -173 233c-7 5 -7 10 -4 16l105 170c-76 47 -159 74 -220 74c-69 0 -86 -26 -86 -198v-314c0 -58 8 -69 69 -69c3 0 3 -12 0 -12l-118 1c-48 0 -87 -1 -122 -1c-4 0 -4 12 0 12c62 0 76 11 76 69v284c0 129 76 271 262 271
c52 0 116 -17 163 -31c21 -7 35 -2 54 24c3 5 14 0 11 -4l-135 -220c125 -91 194 -167 194 -242c0 -72 -58 -175 -192 -175c-49 0 -79 6 -116 26c-7 3 -10 6 -10 18l-7 129c0 6 11 7 12 3c20 -72 90 -152 158 -152z" />
    <glyph glyph-name="uni018F" unicode="&#x18f;" horiz-adv-x="639" 
d="M275 636c249 0 313 -167 313 -312c0 -215 -146 -336 -322 -336c-165 0 -228 106 -228 175c0 10 3 12 11 12l424 2c7 33 10 70 10 111c0 183 -69 328 -213 328c-85 0 -170 -50 -203 -152c-2 -4 -13 -1 -12 2l45 179c1 6 12 3 11 -1c-5 -25 6 -35 26 -28
c52 14 93 20 138 20zM301 7c87 0 143 55 167 150l-326 -4c9 -89 75 -146 159 -146z" />
    <glyph glyph-name="T" unicode="T" horiz-adv-x="640" 
d="M211 604c-83 0 -132 -51 -160 -151c-1 -3 -12 -2 -12 1c5 36 14 145 14 193c0 6 12 7 12 0c0 -20 36 -22 55 -22c57 -2 126 -3 201 -3c94 0 142 3 193 3c47 0 71 4 78 25c1 5 11 5 11 0c-4 -43 -9 -163 -9 -196c0 -3 -11 -3 -12 0c-14 105 -65 150 -147 150
c-55 0 -64 -11 -64 -62v-461c0 -58 11 -69 87 -69c4 0 4 -12 0 -12c-37 0 -82 2 -137 2c-51 0 -98 -2 -136 -2c-3 0 -3 12 0 12c74 0 89 11 89 69v463c0 50 -11 60 -63 60z" />
    <glyph glyph-name="Tbar" unicode="&#x166;" horiz-adv-x="632" 
d="M592 650c1 5 12 5 12 0c-5 -43 -10 -162 -10 -196c0 -4 -10 -4 -12 0c-15 105 -65 150 -147 150c-55 0 -64 -11 -64 -62v-206h93c6 0 6 -26 0 -26h-93v-229c0 -58 11 -69 87 -69c4 0 4 -12 0 -12c-37 0 -81 2 -136 2c-52 0 -99 -2 -137 -2c-4 0 -4 12 0 12
c75 0 89 11 89 69v229h-94c-6 0 -6 26 0 26h94v208c0 50 -11 60 -63 60c-82 0 -133 -51 -161 -150c0 -4 -11 -4 -11 0c4 36 14 145 14 193c0 6 11 7 11 0c0 -20 38 -22 56 -22c58 -2 127 -3 202 -3c93 0 141 3 193 3c46 0 70 4 77 25z" />
    <glyph glyph-name="Tcaron" unicode="&#x164;" horiz-adv-x="640" 
d="M308 687l-103 109c-3 3 4 9 6 8l109 -46l108 46c3 2 8 -4 6 -8l-103 -109c-6 -6 -17 -6 -23 0zM211 604c-82 0 -133 -51 -161 -150c0 -4 -11 -4 -11 0c4 36 14 145 14 193c0 6 11 7 11 0c0 -20 38 -22 56 -22c58 -2 127 -3 202 -3c93 0 141 3 193 3c46 0 70 4 77 25
c1 5 12 5 12 0c-5 -43 -10 -162 -10 -196c0 -4 -10 -4 -12 0c-15 105 -65 150 -147 150c-55 0 -64 -11 -64 -62v-461c0 -58 11 -69 87 -69c4 0 4 -12 0 -12c-37 0 -81 2 -136 2c-52 0 -99 -2 -137 -2c-4 0 -4 12 0 12c75 0 89 11 89 69v463c0 50 -11 60 -63 60z" />
    <glyph glyph-name="uni0162" unicode="&#x162;" horiz-adv-x="640" 
d="M592 650c1 5 12 5 12 0c-5 -43 -10 -162 -10 -196c0 -4 -10 -4 -12 0c-15 105 -65 150 -147 150c-55 0 -64 -11 -64 -62v-461c0 -58 11 -69 87 -69c4 0 4 -12 0 -12c-35 0 -77 2 -129 2c-15 -60 -9 -74 31 -98c28 -16 55 -37 55 -77c0 -46 -32 -102 -116 -102
c-45 0 -72 14 -72 45c0 18 17 36 37 36c50 0 23 -59 71 -59c16 0 27 10 27 30c0 35 -21 58 -84 93c-12 6 -13 11 -6 28c19 46 23 59 39 104c-47 0 -91 -2 -126 -2c-4 0 -4 12 0 12c75 0 89 11 89 69v463c0 50 -11 60 -63 60c-82 0 -133 -51 -161 -150c0 -4 -11 -4 -11 0
c4 36 14 145 14 193c0 6 11 7 11 0c0 -20 38 -22 56 -22c58 -2 127 -3 202 -3c93 0 141 3 193 3c46 0 70 4 77 25z" />
    <glyph glyph-name="uni021A" unicode="&#x21a;" horiz-adv-x="640" 
d="M592 650c1 5 12 5 12 0c-5 -43 -10 -162 -10 -196c0 -4 -10 -4 -12 0c-15 105 -65 150 -147 150c-55 0 -64 -11 -64 -62v-461c0 -58 11 -69 87 -69c4 0 4 -12 0 -12c-37 0 -81 2 -136 2c-52 0 -99 -2 -137 -2c-4 0 -4 12 0 12c75 0 89 11 89 69v463c0 50 -11 60 -63 60
c-82 0 -133 -51 -161 -150c0 -4 -11 -4 -11 0c4 36 14 145 14 193c0 6 11 7 11 0c0 -20 38 -22 56 -22c58 -2 127 -3 202 -3c93 0 141 3 193 3c46 0 70 4 77 25zM320 -75c43 0 66 -30 66 -77c0 -54 -31 -91 -72 -123c-4 -3 -11 5 -7 8c26 23 47 47 47 76c0 15 -3 25 -9 31
c-6 -11 -19 -17 -37 -17c-27 0 -45 20 -45 51c0 35 27 51 57 51z" />
    <glyph glyph-name="uni1E6C" unicode="&#x1e6c;" horiz-adv-x="640" 
d="M211 604c-82 0 -133 -51 -161 -150c0 -4 -11 -4 -11 0c4 36 14 145 14 193c0 6 11 7 11 0c0 -20 38 -22 56 -22c58 -2 127 -3 202 -3c93 0 141 3 193 3c46 0 70 4 77 25c1 5 12 5 12 0c-5 -43 -10 -162 -10 -196c0 -4 -10 -4 -12 0c-15 105 -65 150 -147 150
c-55 0 -64 -11 -64 -62v-461c0 -58 11 -69 87 -69c4 0 4 -12 0 -12c-37 0 -81 2 -136 2c-52 0 -99 -2 -137 -2c-4 0 -4 12 0 12c75 0 89 11 89 69v463c0 50 -11 60 -63 60zM327 -201c-33 0 -54 20 -54 55c0 31 21 51 54 51c34 0 53 -20 53 -51c0 -35 -19 -55 -53 -55z" />
    <glyph glyph-name="uni1E6E" unicode="&#x1e6e;" horiz-adv-x="640" 
d="M211 604c-82 0 -133 -51 -161 -150c0 -4 -11 -4 -11 0c4 36 14 145 14 193c0 6 11 7 11 0c0 -20 38 -22 56 -22c58 -2 127 -3 202 -3c93 0 141 3 193 3c46 0 70 4 77 25c1 5 12 5 12 0c-5 -43 -10 -162 -10 -196c0 -4 -10 -4 -12 0c-15 105 -65 150 -147 150
c-55 0 -64 -11 -64 -62v-461c0 -58 11 -69 87 -69c4 0 4 -12 0 -12c-37 0 -81 2 -136 2c-52 0 -99 -2 -137 -2c-4 0 -4 12 0 12c75 0 89 11 89 69v463c0 50 -11 60 -63 60zM200 -119c-12 0 -12 34 0 34h251c12 0 12 -34 0 -34h-251z" />
    <glyph glyph-name="U" unicode="U" horiz-adv-x="759" 
d="M726 12c4 0 4 -12 0 -12c-28 0 -54 1 -85 1c-28 0 -41 -1 -65 -1c-17 0 -19 2 -19 19v72c-74 -69 -142 -103 -230 -103c-129 0 -230 76 -230 198v358c0 57 -11 69 -76 69c-3 0 -3 12 0 12c35 0 77 -3 124 -3c49 0 91 3 124 3c4 0 4 -12 0 -12c-65 0 -76 -14 -76 -71v-321
c0 -130 69 -197 170 -197c68 0 127 28 194 92v426c0 57 -10 71 -76 71c-3 0 -3 12 0 12c34 0 75 -3 121 -3c47 0 90 3 124 3c4 0 4 -12 0 -12c-65 0 -77 -12 -77 -69v-463c0 -58 12 -69 77 -69z" />
    <glyph glyph-name="Uacute" unicode="&#xda;" horiz-adv-x="759" 
d="M284 678c-6 -2 -9 9 -5 11c53 33 94 69 138 100c11 9 112 -29 89 -33c-89 -23 -154 -47 -222 -78zM726 12c4 0 4 -12 0 -12c-28 0 -53 1 -85 1c-28 0 -41 -1 -66 -1c-16 0 -18 2 -18 19v71c-73 -68 -142 -102 -230 -102c-129 0 -230 76 -230 198v358c0 57 -10 69 -76 69
c-3 0 -3 12 0 12c35 0 77 -3 124 -3c49 0 91 3 124 3c4 0 4 -12 0 -12c-64 0 -76 -14 -76 -71v-321c0 -130 69 -196 171 -196c67 0 126 28 193 91v426c0 57 -10 71 -76 71c-4 0 -4 12 0 12c34 0 76 -3 121 -3c47 0 90 3 124 3c4 0 4 -12 0 -12c-64 0 -77 -12 -77 -69v-463
c0 -58 13 -69 77 -69z" />
    <glyph glyph-name="Ubreve" unicode="&#x16c;" horiz-adv-x="759" 
d="M381 690c-63 0 -99 42 -103 119c0 5 11 6 11 3c3 -28 43 -56 92 -56c48 0 88 28 91 56c0 3 11 2 11 -3c-4 -77 -39 -119 -102 -119zM726 12c4 0 4 -12 0 -12c-28 0 -53 1 -85 1c-28 0 -41 -1 -66 -1c-16 0 -18 2 -18 19v71c-73 -68 -142 -102 -230 -102
c-129 0 -230 76 -230 198v358c0 57 -10 69 -76 69c-3 0 -3 12 0 12c35 0 77 -3 124 -3c49 0 91 3 124 3c4 0 4 -12 0 -12c-64 0 -76 -14 -76 -71v-321c0 -130 69 -196 171 -196c67 0 126 28 193 91v426c0 57 -10 71 -76 71c-4 0 -4 12 0 12c34 0 76 -3 121 -3
c47 0 90 3 124 3c4 0 4 -12 0 -12c-64 0 -77 -12 -77 -69v-463c0 -58 13 -69 77 -69z" />
    <glyph glyph-name="uni01D3" unicode="&#x1d3;" horiz-adv-x="759" 
d="M267 796c-4 3 3 9 5 8l109 -46l108 46c3 2 8 -4 6 -8l-103 -109c-6 -6 -17 -6 -23 0zM726 12c4 0 4 -12 0 -12c-28 0 -53 1 -85 1c-28 0 -41 -1 -66 -1c-16 0 -18 2 -18 19v71c-73 -68 -142 -102 -230 -102c-129 0 -230 76 -230 198v358c0 57 -10 69 -76 69
c-3 0 -3 12 0 12c35 0 77 -3 124 -3c49 0 91 3 124 3c4 0 4 -12 0 -12c-64 0 -76 -14 -76 -71v-321c0 -130 69 -196 171 -196c67 0 126 28 193 91v426c0 57 -10 71 -76 71c-4 0 -4 12 0 12c34 0 76 -3 121 -3c47 0 90 3 124 3c4 0 4 -12 0 -12c-64 0 -77 -12 -77 -69v-463
c0 -58 13 -69 77 -69z" />
    <glyph glyph-name="Ucircumflex" unicode="&#xdb;" horiz-adv-x="759" 
d="M274 691c-3 -1 -10 5 -6 7l103 110c5 6 16 6 22 0l103 -110c3 -2 -3 -9 -6 -7l-108 46zM726 12c4 0 4 -12 0 -12c-28 0 -53 1 -85 1c-28 0 -41 -1 -66 -1c-16 0 -18 2 -18 19v71c-73 -68 -142 -102 -230 -102c-129 0 -230 76 -230 198v358c0 57 -10 69 -76 69
c-3 0 -3 12 0 12c35 0 77 -3 124 -3c49 0 91 3 124 3c4 0 4 -12 0 -12c-64 0 -76 -14 -76 -71v-321c0 -130 69 -196 171 -196c67 0 126 28 193 91v426c0 57 -10 71 -76 71c-4 0 -4 12 0 12c34 0 76 -3 121 -3c47 0 90 3 124 3c4 0 4 -12 0 -12c-64 0 -77 -12 -77 -69v-463
c0 -58 13 -69 77 -69z" />
    <glyph glyph-name="Udieresis" unicode="&#xdc;" horiz-adv-x="759" 
d="M295 708c-32 0 -52 17 -52 50c0 29 20 48 52 48c30 0 49 -19 49 -48c0 -33 -19 -50 -49 -50zM469 708c-32 0 -50 17 -50 50c0 29 18 47 50 47c30 0 48 -18 48 -47c0 -33 -18 -50 -48 -50zM726 12c4 0 4 -12 0 -12c-28 0 -53 1 -85 1c-28 0 -41 -1 -66 -1
c-16 0 -18 2 -18 19v71c-73 -68 -142 -102 -230 -102c-129 0 -230 76 -230 198v358c0 57 -10 69 -76 69c-3 0 -3 12 0 12c35 0 77 -3 124 -3c49 0 91 3 124 3c4 0 4 -12 0 -12c-64 0 -76 -14 -76 -71v-321c0 -130 69 -196 171 -196c67 0 126 28 193 91v426
c0 57 -10 71 -76 71c-4 0 -4 12 0 12c34 0 76 -3 121 -3c47 0 90 3 124 3c4 0 4 -12 0 -12c-64 0 -77 -12 -77 -69v-463c0 -58 13 -69 77 -69z" />
    <glyph glyph-name="uni01D7" unicode="&#x1d7;" horiz-adv-x="759" 
d="M254 820c-6 -2 -10 8 -5 10c68 34 120 68 177 100c10 8 112 -29 88 -34c-104 -22 -180 -46 -260 -76zM295 696c-32 0 -52 17 -52 50c0 29 20 48 52 48c30 0 49 -19 49 -48c0 -33 -19 -50 -49 -50zM469 793c30 0 48 -18 48 -47c0 -33 -18 -50 -48 -50c-32 0 -50 17 -50 50
c0 29 18 47 50 47zM726 12c4 0 4 -12 0 -12c-28 0 -53 1 -85 1c-28 0 -41 -1 -66 -1c-16 0 -18 2 -18 19v71c-73 -68 -142 -102 -230 -102c-129 0 -230 76 -230 198v358c0 57 -10 69 -76 69c-3 0 -3 12 0 12c35 0 77 -3 124 -3c49 0 91 3 124 3c4 0 4 -12 0 -12
c-64 0 -76 -14 -76 -71v-321c0 -130 69 -196 171 -196c67 0 126 28 193 91v426c0 57 -10 71 -76 71c-4 0 -4 12 0 12c34 0 76 -3 121 -3c47 0 90 3 124 3c4 0 4 -12 0 -12c-64 0 -77 -12 -77 -69v-463c0 -58 13 -69 77 -69z" />
    <glyph glyph-name="uni01D9" unicode="&#x1d9;" horiz-adv-x="759" 
d="M258 923c-3 2 4 8 6 7l121 -53l118 54c3 1 8 -4 6 -7l-114 -110c-6 -6 -16 -6 -22 0zM295 696c-32 0 -52 17 -52 50c0 29 20 48 52 48c30 0 49 -19 49 -48c0 -33 -19 -50 -49 -50zM469 793c30 0 48 -18 48 -47c0 -33 -18 -50 -48 -50c-32 0 -50 17 -50 50
c0 29 18 47 50 47zM726 12c4 0 4 -12 0 -12c-28 0 -53 1 -85 1c-28 0 -41 -1 -66 -1c-16 0 -18 2 -18 19v71c-73 -68 -142 -102 -230 -102c-129 0 -230 76 -230 198v358c0 57 -10 69 -76 69c-3 0 -3 12 0 12c35 0 77 -3 124 -3c49 0 91 3 124 3c4 0 4 -12 0 -12
c-64 0 -76 -14 -76 -71v-321c0 -130 69 -196 171 -196c67 0 126 28 193 91v426c0 57 -10 71 -76 71c-4 0 -4 12 0 12c34 0 76 -3 121 -3c47 0 90 3 124 3c4 0 4 -12 0 -12c-64 0 -77 -12 -77 -69v-463c0 -58 13 -69 77 -69z" />
    <glyph glyph-name="uni01DB" unicode="&#x1db;" horiz-adv-x="759" 
d="M261 896c-23 5 79 42 90 34c55 -32 108 -66 175 -100c5 -2 1 -12 -5 -10c-79 30 -155 54 -260 76zM482 794c31 0 51 -19 51 -48c0 -33 -20 -50 -51 -50s-49 17 -49 50c0 29 18 48 49 48zM259 746c0 29 18 47 48 47c32 0 51 -18 51 -47c0 -33 -19 -50 -51 -50
c-30 0 -48 17 -48 50zM726 12c4 0 4 -12 0 -12c-28 0 -53 1 -85 1c-28 0 -41 -1 -66 -1c-16 0 -18 2 -18 19v71c-73 -68 -142 -102 -230 -102c-129 0 -230 76 -230 198v358c0 57 -10 69 -76 69c-3 0 -3 12 0 12c35 0 77 -3 124 -3c49 0 91 3 124 3c4 0 4 -12 0 -12
c-64 0 -76 -14 -76 -71v-321c0 -130 69 -196 171 -196c67 0 126 28 193 91v426c0 57 -10 71 -76 71c-4 0 -4 12 0 12c34 0 76 -3 121 -3c47 0 90 3 124 3c4 0 4 -12 0 -12c-64 0 -77 -12 -77 -69v-463c0 -58 13 -69 77 -69z" />
    <glyph glyph-name="uni01D5" unicode="&#x1d5;" horiz-adv-x="759" 
d="M257 841c-12 0 -12 34 0 34h246c11 0 11 -34 0 -34h-246zM295 696c-32 0 -52 17 -52 50c0 29 20 48 52 48c30 0 49 -19 49 -48c0 -33 -19 -50 -49 -50zM469 793c30 0 48 -18 48 -47c0 -33 -18 -50 -48 -50c-32 0 -50 17 -50 50c0 29 18 47 50 47zM726 12c4 0 4 -12 0 -12
c-28 0 -53 1 -85 1c-28 0 -41 -1 -66 -1c-16 0 -18 2 -18 19v71c-73 -68 -142 -102 -230 -102c-129 0 -230 76 -230 198v358c0 57 -10 69 -76 69c-3 0 -3 12 0 12c35 0 77 -3 124 -3c49 0 91 3 124 3c4 0 4 -12 0 -12c-64 0 -76 -14 -76 -71v-321c0 -130 69 -196 171 -196
c67 0 126 28 193 91v426c0 57 -10 71 -76 71c-4 0 -4 12 0 12c34 0 76 -3 121 -3c47 0 90 3 124 3c4 0 4 -12 0 -12c-64 0 -77 -12 -77 -69v-463c0 -58 13 -69 77 -69z" />
    <glyph glyph-name="uni1EE4" unicode="&#x1ee4;" horiz-adv-x="759" 
d="M726 12c4 0 4 -12 0 -12c-28 0 -53 1 -85 1c-28 0 -41 -1 -66 -1c-16 0 -18 2 -18 19v71c-73 -68 -142 -102 -230 -102c-129 0 -230 76 -230 198v358c0 57 -10 69 -76 69c-3 0 -3 12 0 12c35 0 77 -3 124 -3c49 0 91 3 124 3c4 0 4 -12 0 -12c-64 0 -76 -14 -76 -71v-321
c0 -130 69 -196 171 -196c67 0 126 28 193 91v426c0 57 -10 71 -76 71c-4 0 -4 12 0 12c34 0 76 -3 121 -3c47 0 90 3 124 3c4 0 4 -12 0 -12c-64 0 -77 -12 -77 -69v-463c0 -58 13 -69 77 -69zM381 -95c34 0 53 -20 53 -51c0 -35 -19 -55 -53 -55s-55 20 -55 55
c0 31 21 51 55 51z" />
    <glyph glyph-name="Ugrave" unicode="&#xd9;" horiz-adv-x="759" 
d="M258 756c-23 4 79 42 89 33c43 -31 86 -67 138 -100c5 -2 1 -13 -4 -11c-68 31 -134 55 -223 78zM726 12c4 0 4 -12 0 -12c-28 0 -53 1 -85 1c-28 0 -41 -1 -66 -1c-16 0 -18 2 -18 19v71c-73 -68 -142 -102 -230 -102c-129 0 -230 76 -230 198v358c0 57 -10 69 -76 69
c-3 0 -3 12 0 12c35 0 77 -3 124 -3c49 0 91 3 124 3c4 0 4 -12 0 -12c-64 0 -76 -14 -76 -71v-321c0 -130 69 -196 171 -196c67 0 126 28 193 91v426c0 57 -10 71 -76 71c-4 0 -4 12 0 12c34 0 76 -3 121 -3c47 0 90 3 124 3c4 0 4 -12 0 -12c-64 0 -77 -12 -77 -69v-463
c0 -58 13 -69 77 -69z" />
    <glyph glyph-name="uni1EE6" unicode="&#x1ee6;" horiz-adv-x="759" 
d="M334 814c-3 -2 -10 6 -7 8c24 18 51 26 78 26c40 0 67 -21 67 -52c0 -58 -93 -95 -89 -145c0 -2 -10 -3 -11 0c-14 60 29 88 29 135c0 26 -13 37 -33 37c-10 0 -22 -3 -34 -9zM726 12c4 0 4 -12 0 -12c-28 0 -53 1 -85 1c-28 0 -41 -1 -66 -1c-16 0 -18 2 -18 19v71
c-73 -68 -142 -102 -230 -102c-129 0 -230 76 -230 198v358c0 57 -10 69 -76 69c-3 0 -3 12 0 12c35 0 77 -3 124 -3c49 0 91 3 124 3c4 0 4 -12 0 -12c-64 0 -76 -14 -76 -71v-321c0 -130 69 -196 171 -196c67 0 126 28 193 91v426c0 57 -10 71 -76 71c-4 0 -4 12 0 12
c34 0 76 -3 121 -3c47 0 90 3 124 3c4 0 4 -12 0 -12c-64 0 -77 -12 -77 -69v-463c0 -58 13 -69 77 -69z" />
    <glyph glyph-name="Uhorn" unicode="&#x1af;" horiz-adv-x="759" 
d="M686 610c-32 -10 -37 -22 -37 -66v-463c0 -58 12 -69 77 -69c4 0 4 -12 0 -12c-28 0 -54 1 -85 1c-28 0 -41 -1 -65 -1c-17 0 -19 2 -19 19v72c-74 -69 -142 -103 -230 -103c-129 0 -230 76 -230 198v358c0 57 -11 69 -76 69c-3 0 -3 12 0 12c35 0 77 -3 124 -3
c49 0 91 3 124 3c4 0 4 -12 0 -12c-65 0 -76 -14 -76 -71v-321c0 -130 69 -197 170 -197c68 0 127 28 194 92v426c0 57 -10 71 -76 71c-3 0 -3 12 0 12c34 0 75 -3 121 -3c87 0 130 12 130 41c0 20 -21 25 -21 53c0 31 25 47 49 47c31 0 45 -25 45 -53
c0 -62 -71 -84 -119 -100z" />
    <glyph glyph-name="uni1EE8" unicode="&#x1ee8;" horiz-adv-x="759" 
d="M283 678c-6 -2 -10 9 -5 11c53 33 94 69 138 100c11 9 111 -29 89 -33c-89 -23 -154 -47 -222 -78zM687 611c-33 -11 -38 -23 -38 -67v-463c0 -58 13 -69 77 -69c4 0 4 -12 0 -12c-28 0 -53 1 -85 1c-28 0 -41 -1 -66 -1c-16 0 -18 2 -18 19v71
c-73 -68 -142 -102 -230 -102c-129 0 -230 76 -230 198v358c0 57 -10 69 -76 69c-3 0 -3 12 0 12c35 0 77 -3 124 -3c49 0 91 3 124 3c4 0 4 -12 0 -12c-64 0 -76 -14 -76 -71v-321c0 -130 69 -196 171 -196c67 0 126 28 193 91v426c0 57 -10 71 -76 71c-4 0 -4 12 0 12
c34 0 76 -3 121 -3c87 0 130 12 130 41c0 20 -21 25 -21 54c0 30 26 46 49 46c31 0 45 -25 45 -53c0 -62 -70 -84 -118 -99z" />
    <glyph glyph-name="uni1EF0" unicode="&#x1ef0;" horiz-adv-x="759" 
d="M687 611c-33 -11 -38 -23 -38 -67v-463c0 -58 13 -69 77 -69c4 0 4 -12 0 -12c-28 0 -53 1 -85 1c-28 0 -41 -1 -66 -1c-16 0 -18 2 -18 19v71c-73 -68 -142 -102 -230 -102c-129 0 -230 76 -230 198v358c0 57 -10 69 -76 69c-3 0 -3 12 0 12c35 0 77 -3 124 -3
c49 0 91 3 124 3c4 0 4 -12 0 -12c-64 0 -76 -14 -76 -71v-321c0 -130 69 -196 171 -196c67 0 126 28 193 91v426c0 57 -10 71 -76 71c-4 0 -4 12 0 12c34 0 76 -3 121 -3c87 0 130 12 130 41c0 20 -21 25 -21 54c0 30 26 46 49 46c31 0 45 -25 45 -53
c0 -62 -70 -84 -118 -99zM381 -95c34 0 53 -20 53 -51c0 -35 -19 -55 -53 -55s-55 20 -55 55c0 31 21 51 55 51z" />
    <glyph glyph-name="uni1EEA" unicode="&#x1eea;" horiz-adv-x="759" 
d="M257 756c-23 4 78 42 89 33c43 -31 85 -67 138 -100c5 -2 1 -13 -5 -11c-68 31 -133 55 -222 78zM687 611c-33 -11 -38 -23 -38 -67v-463c0 -58 13 -69 77 -69c4 0 4 -12 0 -12c-28 0 -53 1 -85 1c-28 0 -41 -1 -66 -1c-16 0 -18 2 -18 19v71
c-73 -68 -142 -102 -230 -102c-129 0 -230 76 -230 198v358c0 57 -10 69 -76 69c-3 0 -3 12 0 12c35 0 77 -3 124 -3c49 0 91 3 124 3c4 0 4 -12 0 -12c-64 0 -76 -14 -76 -71v-321c0 -130 69 -196 171 -196c67 0 126 28 193 91v426c0 57 -10 71 -76 71c-4 0 -4 12 0 12
c34 0 76 -3 121 -3c87 0 130 12 130 41c0 20 -21 25 -21 54c0 30 26 46 49 46c31 0 45 -25 45 -53c0 -62 -70 -84 -118 -99z" />
    <glyph glyph-name="uni1EEC" unicode="&#x1eec;" horiz-adv-x="759" 
d="M333 814c-3 -2 -10 5 -7 8c22 18 50 26 76 26c42 0 68 -21 68 -53c0 -57 -94 -94 -89 -144c0 -2 -10 -3 -12 0c-12 60 30 88 30 135c0 26 -12 36 -33 36c-9 0 -21 -2 -33 -8zM687 611c-33 -11 -38 -23 -38 -67v-463c0 -58 13 -69 77 -69c4 0 4 -12 0 -12
c-28 0 -53 1 -85 1c-28 0 -41 -1 -66 -1c-16 0 -18 2 -18 19v71c-73 -68 -142 -102 -230 -102c-129 0 -230 76 -230 198v358c0 57 -10 69 -76 69c-3 0 -3 12 0 12c35 0 77 -3 124 -3c49 0 91 3 124 3c4 0 4 -12 0 -12c-64 0 -76 -14 -76 -71v-321c0 -130 69 -196 171 -196
c67 0 126 28 193 91v426c0 57 -10 71 -76 71c-4 0 -4 12 0 12c34 0 76 -3 121 -3c87 0 130 12 130 41c0 20 -21 25 -21 54c0 30 26 46 49 46c31 0 45 -25 45 -53c0 -62 -70 -84 -118 -99z" />
    <glyph glyph-name="uni1EEE" unicode="&#x1eee;" horiz-adv-x="759" 
d="M254 712c-3 -2 -10 4 -7 7c16 27 49 74 86 74c29 0 77 -25 123 -25c23 0 34 10 50 27c3 3 10 -3 7 -7c-36 -59 -54 -73 -82 -73c-38 0 -80 24 -127 24c-28 0 -35 -12 -50 -27zM687 611c-33 -11 -38 -23 -38 -67v-463c0 -58 13 -69 77 -69c4 0 4 -12 0 -12
c-28 0 -53 1 -85 1c-28 0 -41 -1 -66 -1c-16 0 -18 2 -18 19v71c-73 -68 -142 -102 -230 -102c-129 0 -230 76 -230 198v358c0 57 -10 69 -76 69c-3 0 -3 12 0 12c35 0 77 -3 124 -3c49 0 91 3 124 3c4 0 4 -12 0 -12c-64 0 -76 -14 -76 -71v-321c0 -130 69 -196 171 -196
c67 0 126 28 193 91v426c0 57 -10 71 -76 71c-4 0 -4 12 0 12c34 0 76 -3 121 -3c87 0 130 12 130 41c0 20 -21 25 -21 54c0 30 26 46 49 46c31 0 45 -25 45 -53c0 -62 -70 -84 -118 -99z" />
    <glyph glyph-name="Uhungarumlaut" unicode="&#x170;" horiz-adv-x="759" 
d="M273 670c-6 -3 -12 6 -8 11c35 38 65 77 90 115c5 13 100 -23 81 -32c-64 -28 -112 -56 -163 -94zM415 670c-5 -3 -11 6 -8 11c35 37 65 78 90 115c6 13 100 -23 81 -32c-63 -28 -111 -56 -163 -94zM726 12c4 0 4 -12 0 -12c-28 0 -53 1 -85 1c-28 0 -41 -1 -66 -1
c-16 0 -18 2 -18 19v71c-73 -68 -142 -102 -230 -102c-129 0 -230 76 -230 198v358c0 57 -10 69 -76 69c-3 0 -3 12 0 12c35 0 77 -3 124 -3c49 0 91 3 124 3c4 0 4 -12 0 -12c-64 0 -76 -14 -76 -71v-321c0 -130 69 -196 171 -196c67 0 126 28 193 91v426
c0 57 -10 71 -76 71c-4 0 -4 12 0 12c34 0 76 -3 121 -3c47 0 90 3 124 3c4 0 4 -12 0 -12c-64 0 -77 -12 -77 -69v-463c0 -58 13 -69 77 -69z" />
    <glyph glyph-name="Umacron" unicode="&#x16a;" horiz-adv-x="759" 
d="M255 716c-12 0 -12 34 0 34h251c12 0 12 -34 0 -34h-251zM726 12c4 0 4 -12 0 -12c-28 0 -53 1 -85 1c-28 0 -41 -1 -66 -1c-16 0 -18 2 -18 19v71c-73 -68 -142 -102 -230 -102c-129 0 -230 76 -230 198v358c0 57 -10 69 -76 69c-3 0 -3 12 0 12c35 0 77 -3 124 -3
c49 0 91 3 124 3c4 0 4 -12 0 -12c-64 0 -76 -14 -76 -71v-321c0 -130 69 -196 171 -196c67 0 126 28 193 91v426c0 57 -10 71 -76 71c-4 0 -4 12 0 12c34 0 76 -3 121 -3c47 0 90 3 124 3c4 0 4 -12 0 -12c-64 0 -77 -12 -77 -69v-463c0 -58 13 -69 77 -69z" />
    <glyph glyph-name="Uogonek" unicode="&#x172;" horiz-adv-x="758" 
d="M725 12c3 0 3 -12 0 -12c-33 0 -58 1 -92 1c-84 0 -111 -32 -111 -124c0 -74 34 -114 91 -114c22 0 34 7 46 15c3 2 10 -5 7 -8c-37 -32 -71 -45 -109 -45c-71 0 -120 39 -120 105c0 108 118 122 118 231v29c-76 -71 -143 -102 -224 -102c-136 0 -234 76 -234 198v358
c0 57 -11 69 -76 69c-3 0 -3 12 0 12c35 0 77 -3 124 -3c49 0 91 3 124 3c4 0 4 -12 0 -12c-65 0 -76 -14 -76 -71v-321c0 -130 67 -197 170 -197c66 0 122 23 192 87v431c0 57 -9 71 -76 71c-3 0 -3 12 0 12c35 0 76 -3 121 -3c47 0 91 3 125 3c3 0 3 -12 0 -12
c-65 0 -77 -12 -77 -69v-463c0 -58 12 -69 77 -69z" />
    <glyph glyph-name="Uring" unicode="&#x16e;" horiz-adv-x="759" 
d="M375 677c-64 0 -100 39 -100 80c0 51 60 77 110 77c55 0 100 -35 100 -80c0 -49 -57 -77 -110 -77zM365 821c-19 0 -27 -14 -27 -44c0 -41 19 -87 53 -87c21 0 30 14 30 47c0 45 -25 84 -56 84zM726 12c4 0 4 -12 0 -12c-28 0 -53 1 -85 1c-28 0 -41 -1 -66 -1
c-16 0 -18 2 -18 19v71c-73 -68 -142 -102 -230 -102c-129 0 -230 76 -230 198v358c0 57 -10 69 -76 69c-3 0 -3 12 0 12c35 0 77 -3 124 -3c49 0 91 3 124 3c4 0 4 -12 0 -12c-64 0 -76 -14 -76 -71v-321c0 -130 69 -196 171 -196c67 0 126 28 193 91v426
c0 57 -10 71 -76 71c-4 0 -4 12 0 12c34 0 76 -3 121 -3c47 0 90 3 124 3c4 0 4 -12 0 -12c-64 0 -77 -12 -77 -69v-463c0 -58 13 -69 77 -69z" />
    <glyph glyph-name="Utilde" unicode="&#x168;" horiz-adv-x="759" 
d="M259 697c-2 -2 -9 4 -7 7c17 27 48 75 87 75c29 0 77 -25 122 -25c24 0 35 9 51 27c2 3 9 -3 7 -7c-36 -61 -55 -75 -82 -75c-38 0 -80 25 -127 25c-28 0 -35 -12 -51 -27zM726 12c4 0 4 -12 0 -12c-28 0 -53 1 -85 1c-28 0 -41 -1 -66 -1c-16 0 -18 2 -18 19v71
c-73 -68 -142 -102 -230 -102c-129 0 -230 76 -230 198v358c0 57 -10 69 -76 69c-3 0 -3 12 0 12c35 0 77 -3 124 -3c49 0 91 3 124 3c4 0 4 -12 0 -12c-64 0 -76 -14 -76 -71v-321c0 -130 69 -196 171 -196c67 0 126 28 193 91v426c0 57 -10 71 -76 71c-4 0 -4 12 0 12
c34 0 76 -3 121 -3c47 0 90 3 124 3c4 0 4 -12 0 -12c-64 0 -77 -12 -77 -69v-463c0 -58 13 -69 77 -69z" />
    <glyph glyph-name="V" unicode="V" horiz-adv-x="662" 
d="M667 625c3 0 3 -12 0 -12c-47 0 -90 -37 -116 -105l-194 -507c-2 -5 -20 -5 -22 0l-253 541c-23 48 -45 71 -79 71c-4 0 -4 12 0 12c24 0 33 -3 77 -3c94 0 134 3 166 3c3 0 3 -12 0 -12c-56 0 -78 -29 -53 -82l186 -398l146 379c23 60 3 101 -65 101c-3 0 -3 12 0 12
c37 0 65 -3 118 -3c37 0 55 3 89 3z" />
    <glyph glyph-name="W" unicode="W" horiz-adv-x="909" 
d="M915 625c3 0 3 -12 0 -12c-47 0 -96 -34 -116 -105l-144 -507c-1 -5 -20 -5 -22 0l-193 476l-149 -476c-1 -5 -21 -5 -22 0l-187 541c-20 58 -40 71 -79 71c-4 0 -4 12 0 12c24 0 33 -3 77 -3c84 0 133 3 161 3c3 0 3 -12 0 -12c-56 0 -73 -26 -55 -82l128 -371l145 465
c2 4 21 4 23 0l190 -470l97 349c20 74 -4 109 -76 109c-3 0 -3 12 0 12c36 0 81 -3 133 -3c37 0 55 3 89 3z" />
    <glyph glyph-name="Wacute" unicode="&#x1e82;" horiz-adv-x="909" 
d="M373 678c-5 -2 -9 9 -4 11c52 33 93 69 138 100c10 9 111 -29 89 -33c-89 -23 -155 -47 -223 -78zM915 625c3 0 3 -12 0 -12c-47 0 -96 -34 -116 -105l-144 -507c-1 -5 -20 -5 -22 0l-193 476l-149 -476c-1 -5 -21 -5 -22 0l-187 541c-20 58 -40 71 -80 71
c-3 0 -3 12 0 12c25 0 33 -3 78 -3c84 0 133 3 161 3c3 0 3 -12 0 -12c-56 0 -74 -26 -55 -82l128 -370l146 464c2 4 20 4 22 0l190 -471l98 350c19 75 -5 109 -76 109c-4 0 -4 12 0 12c35 0 80 -3 132 -3c37 0 55 3 89 3z" />
    <glyph glyph-name="Wcircumflex" unicode="&#x174;" horiz-adv-x="909" 
d="M362 648c-3 -1 -10 5 -6 7l103 110c6 6 16 6 22 0l103 -110c3 -2 -2 -9 -6 -7l-108 44zM915 625c3 0 3 -12 0 -12c-47 0 -96 -34 -116 -105l-144 -507c-1 -5 -20 -5 -22 0l-193 476l-149 -476c-1 -5 -21 -5 -22 0l-187 541c-20 58 -40 71 -80 71c-3 0 -3 12 0 12
c25 0 33 -3 78 -3c84 0 133 3 161 3c3 0 3 -12 0 -12c-56 0 -74 -26 -55 -82l128 -370l146 464c2 4 20 4 22 0l190 -471l98 350c19 75 -5 109 -76 109c-4 0 -4 12 0 12c35 0 80 -3 132 -3c37 0 55 3 89 3z" />
    <glyph glyph-name="Wdieresis" unicode="&#x1e84;" horiz-adv-x="909" 
d="M384 708c-32 0 -52 17 -52 50c0 29 20 48 52 48c30 0 49 -19 49 -48c0 -33 -19 -50 -49 -50zM558 708c-31 0 -50 17 -50 50c0 29 19 47 50 47s48 -18 48 -47c0 -33 -17 -50 -48 -50zM915 625c3 0 3 -12 0 -12c-47 0 -96 -34 -116 -105l-144 -507c-1 -5 -20 -5 -22 0
l-193 476l-149 -476c-1 -5 -21 -5 -22 0l-187 541c-20 58 -40 71 -80 71c-3 0 -3 12 0 12c25 0 33 -3 78 -3c84 0 133 3 161 3c3 0 3 -12 0 -12c-56 0 -74 -26 -55 -82l128 -370l146 464c2 4 20 4 22 0l190 -471l98 350c19 75 -5 109 -76 109c-4 0 -4 12 0 12
c35 0 80 -3 132 -3c37 0 55 3 89 3z" />
    <glyph glyph-name="Wgrave" unicode="&#x1e80;" horiz-adv-x="909" 
d="M348 756c-24 4 78 42 89 33c43 -31 85 -67 138 -100c4 -2 1 -13 -5 -11c-68 31 -133 55 -222 78zM915 625c3 0 3 -12 0 -12c-47 0 -96 -34 -116 -105l-144 -507c-1 -5 -20 -5 -22 0l-193 476l-149 -476c-1 -5 -21 -5 -22 0l-187 541c-20 58 -40 71 -80 71
c-3 0 -3 12 0 12c25 0 33 -3 78 -3c84 0 133 3 161 3c3 0 3 -12 0 -12c-56 0 -74 -26 -55 -82l128 -370l146 464c2 4 20 4 22 0l190 -471l98 350c19 75 -5 109 -76 109c-4 0 -4 12 0 12c35 0 80 -3 132 -3c37 0 55 3 89 3z" />
    <glyph glyph-name="X" unicode="X" horiz-adv-x="648" 
d="M641 12c4 0 4 -12 0 -12c-29 0 -63 2 -102 2c-56 0 -96 -2 -132 -2c-4 0 -4 12 0 12c33 0 51 8 30 39l-142 218l-100 -141c-51 -73 -44 -116 20 -116c4 0 4 -12 0 -12c-37 0 -65 2 -120 2c-37 0 -54 -2 -86 -2c-4 0 -4 12 0 12c40 0 97 35 159 120l115 156l-161 248
c-37 56 -67 77 -107 77c-4 0 -4 12 0 12c26 0 56 -3 82 -3c56 0 104 3 141 3c3 0 3 -12 0 -12c-34 0 -52 -7 -31 -40l137 -210l93 132c52 74 45 118 -19 118c-3 0 -3 12 0 12c38 0 65 -3 121 -3c36 0 53 3 86 3c3 0 3 -12 0 -12c-41 0 -98 -37 -161 -123l-108 -146l170 -261
c34 -51 67 -71 115 -71z" />
    <glyph glyph-name="Y" unicode="Y" horiz-adv-x="616" 
d="M621 625c3 0 3 -12 0 -12c-43 0 -106 -50 -150 -123l-114 -185v-224c0 -58 10 -69 76 -69c3 0 3 -12 0 -12c-34 0 -75 2 -125 2c-46 0 -90 -2 -124 -2c-3 0 -3 12 0 12c65 0 77 11 77 69v206l-152 231c-48 74 -78 95 -106 95c-4 0 -4 12 0 12c21 0 44 -3 65 -3
c55 0 122 3 158 3c3 0 3 -12 0 -12c-43 0 -52 -25 -29 -60l146 -223l101 167c43 70 31 116 -30 116c-3 0 -3 12 0 12c40 0 70 -3 130 -3c32 0 48 3 77 3z" />
    <glyph glyph-name="Yacute" unicode="&#xdd;" horiz-adv-x="616" 
d="M225 678c-6 -2 -10 9 -5 11c53 33 94 69 138 100c11 9 111 -29 89 -33c-89 -23 -154 -47 -222 -78zM621 625c4 0 4 -12 0 -12c-43 0 -106 -50 -150 -123l-114 -185v-224c0 -58 10 -69 76 -69c3 0 3 -12 0 -12c-34 0 -75 2 -124 2c-47 0 -90 -2 -125 -2c-4 0 -4 12 0 12
c65 0 77 11 77 69v206l-152 231c-48 75 -77 95 -107 95c-3 0 -3 12 0 12c21 0 45 -3 66 -3c55 0 123 3 158 3c3 0 3 -12 0 -12c-44 0 -52 -25 -30 -60l146 -222l102 166c43 70 31 116 -30 116c-3 0 -3 12 0 12c41 0 69 -3 130 -3c33 0 48 3 77 3z" />
    <glyph glyph-name="Ycircumflex" unicode="&#x176;" horiz-adv-x="616" 
d="M214 691c-2 -1 -9 5 -6 7l103 110c6 6 17 6 22 0l103 -110c4 -2 -2 -9 -5 -7l-108 46zM621 625c4 0 4 -12 0 -12c-43 0 -106 -50 -150 -123l-114 -185v-224c0 -58 10 -69 76 -69c3 0 3 -12 0 -12c-34 0 -75 2 -124 2c-47 0 -90 -2 -125 -2c-4 0 -4 12 0 12
c65 0 77 11 77 69v206l-152 231c-48 75 -77 95 -107 95c-3 0 -3 12 0 12c21 0 45 -3 66 -3c55 0 123 3 158 3c3 0 3 -12 0 -12c-44 0 -52 -25 -30 -60l146 -222l102 166c43 70 31 116 -30 116c-3 0 -3 12 0 12c41 0 69 -3 130 -3c33 0 48 3 77 3z" />
    <glyph glyph-name="Ydieresis" unicode="&#x178;" horiz-adv-x="616" 
d="M235 708c-31 0 -51 17 -51 50c0 29 20 48 51 48s49 -19 49 -48c0 -33 -18 -50 -49 -50zM410 708c-32 0 -51 17 -51 50c0 29 19 47 51 47c30 0 47 -18 47 -47c0 -33 -17 -50 -47 -50zM621 625c4 0 4 -12 0 -12c-43 0 -106 -50 -150 -123l-114 -185v-224
c0 -58 10 -69 76 -69c3 0 3 -12 0 -12c-34 0 -75 2 -124 2c-47 0 -90 -2 -125 -2c-4 0 -4 12 0 12c65 0 77 11 77 69v206l-152 231c-48 75 -77 95 -107 95c-3 0 -3 12 0 12c21 0 45 -3 66 -3c55 0 123 3 158 3c3 0 3 -12 0 -12c-44 0 -52 -25 -30 -60l146 -222l102 166
c43 70 31 116 -30 116c-3 0 -3 12 0 12c41 0 69 -3 130 -3c33 0 48 3 77 3z" />
    <glyph glyph-name="uni1E8E" unicode="&#x1e8e;" horiz-adv-x="616" 
d="M323 713c-34 0 -55 20 -55 55c0 32 21 52 55 52s52 -20 52 -52c0 -35 -18 -55 -52 -55zM621 625c4 0 4 -12 0 -12c-43 0 -106 -50 -150 -123l-114 -185v-224c0 -58 10 -69 76 -69c3 0 3 -12 0 -12c-34 0 -75 2 -124 2c-47 0 -90 -2 -125 -2c-4 0 -4 12 0 12
c65 0 77 11 77 69v206l-152 231c-48 75 -77 95 -107 95c-3 0 -3 12 0 12c21 0 45 -3 66 -3c55 0 123 3 158 3c3 0 3 -12 0 -12c-44 0 -52 -25 -30 -60l146 -222l102 166c43 70 31 116 -30 116c-3 0 -3 12 0 12c41 0 69 -3 130 -3c33 0 48 3 77 3z" />
    <glyph glyph-name="uni1EF4" unicode="&#x1ef4;" horiz-adv-x="616" 
d="M621 625c4 0 4 -12 0 -12c-43 0 -106 -50 -150 -123l-114 -185v-224c0 -58 10 -69 76 -69c3 0 3 -12 0 -12c-34 0 -75 2 -124 2c-47 0 -90 -2 -125 -2c-4 0 -4 12 0 12c65 0 77 11 77 69v206l-152 231c-48 75 -77 95 -107 95c-3 0 -3 12 0 12c21 0 45 -3 66 -3
c55 0 123 3 158 3c3 0 3 -12 0 -12c-44 0 -52 -25 -30 -60l146 -222l102 166c43 70 31 116 -30 116c-3 0 -3 12 0 12c41 0 69 -3 130 -3c33 0 48 3 77 3zM310 -95c34 0 53 -20 53 -51c0 -35 -19 -55 -53 -55s-55 20 -55 55c0 31 21 51 55 51z" />
    <glyph glyph-name="Ygrave" unicode="&#x1ef2;" horiz-adv-x="616" 
d="M199 756c-23 4 78 42 89 33c43 -31 85 -67 138 -100c5 -2 1 -13 -5 -11c-68 31 -133 55 -222 78zM621 625c4 0 4 -12 0 -12c-43 0 -106 -50 -150 -123l-114 -185v-224c0 -58 10 -69 76 -69c3 0 3 -12 0 -12c-34 0 -75 2 -124 2c-47 0 -90 -2 -125 -2c-4 0 -4 12 0 12
c65 0 77 11 77 69v206l-152 231c-48 75 -77 95 -107 95c-3 0 -3 12 0 12c21 0 45 -3 66 -3c55 0 123 3 158 3c3 0 3 -12 0 -12c-44 0 -52 -25 -30 -60l146 -222l102 166c43 70 31 116 -30 116c-3 0 -3 12 0 12c41 0 69 -3 130 -3c33 0 48 3 77 3z" />
    <glyph glyph-name="uni1EF6" unicode="&#x1ef6;" horiz-adv-x="616" 
d="M275 814c-4 -2 -11 6 -7 8c23 18 50 26 77 26c41 0 68 -21 68 -52c0 -58 -94 -95 -89 -145c0 -2 -10 -3 -12 0c-14 60 30 88 30 135c0 26 -13 37 -33 37c-11 0 -22 -3 -34 -9zM621 625c4 0 4 -12 0 -12c-43 0 -106 -50 -150 -123l-114 -185v-224c0 -58 10 -69 76 -69
c3 0 3 -12 0 -12c-34 0 -75 2 -124 2c-47 0 -90 -2 -125 -2c-4 0 -4 12 0 12c65 0 77 11 77 69v206l-152 231c-48 75 -77 95 -107 95c-3 0 -3 12 0 12c21 0 45 -3 66 -3c55 0 123 3 158 3c3 0 3 -12 0 -12c-44 0 -52 -25 -30 -60l146 -222l102 166c43 70 31 116 -30 116
c-3 0 -3 12 0 12c41 0 69 -3 130 -3c33 0 48 3 77 3z" />
    <glyph glyph-name="uni0232" unicode="&#x232;" horiz-adv-x="616" 
d="M195 716c-11 0 -11 34 0 34h252c12 0 12 -34 0 -34h-252zM621 625c4 0 4 -12 0 -12c-43 0 -106 -50 -150 -123l-114 -185v-224c0 -58 10 -69 76 -69c3 0 3 -12 0 -12c-34 0 -75 2 -124 2c-47 0 -90 -2 -125 -2c-4 0 -4 12 0 12c65 0 77 11 77 69v206l-152 231
c-48 75 -77 95 -107 95c-3 0 -3 12 0 12c21 0 45 -3 66 -3c55 0 123 3 158 3c3 0 3 -12 0 -12c-44 0 -52 -25 -30 -60l146 -222l102 166c43 70 31 116 -30 116c-3 0 -3 12 0 12c41 0 69 -3 130 -3c33 0 48 3 77 3z" />
    <glyph glyph-name="uni1EF8" unicode="&#x1ef8;" horiz-adv-x="616" 
d="M200 697c-2 -2 -9 4 -7 7c17 27 48 75 87 75c29 0 77 -25 121 -25c25 0 35 9 52 27c2 3 9 -3 7 -7c-36 -61 -55 -75 -82 -75c-39 0 -81 25 -128 25c-28 0 -35 -12 -50 -27zM621 625c4 0 4 -12 0 -12c-43 0 -106 -50 -150 -123l-114 -185v-224c0 -58 10 -69 76 -69
c3 0 3 -12 0 -12c-34 0 -75 2 -124 2c-47 0 -90 -2 -125 -2c-4 0 -4 12 0 12c65 0 77 11 77 69v206l-152 231c-48 75 -77 95 -107 95c-3 0 -3 12 0 12c21 0 45 -3 66 -3c55 0 123 3 158 3c3 0 3 -12 0 -12c-44 0 -52 -25 -30 -60l146 -222l102 166c43 70 31 116 -30 116
c-3 0 -3 12 0 12c41 0 69 -3 130 -3c33 0 48 3 77 3z" />
    <glyph glyph-name="Z" unicode="Z" horiz-adv-x="602" 
d="M58 13l366 587c4 7 4 8 -5 8c-247 0 -301 -10 -352 -123c-2 -4 -12 -2 -11 2l40 168c1 3 12 1 11 -2c-3 -24 6 -28 58 -28h364c6 0 11 -9 7 -13l-360 -585c-5 -7 -4 -8 4 -8h219c79 0 142 53 155 128c1 3 12 3 12 0l-14 -139c0 -4 -4 -10 -10 -10c-148 2 -330 2 -478 2
c-6 0 -9 8 -6 13z" />
    <glyph glyph-name="Zacute" unicode="&#x179;" horiz-adv-x="602" 
d="M220 678c-6 -2 -9 9 -5 11c53 33 94 69 138 100c11 9 111 -29 89 -33c-89 -23 -154 -47 -222 -78zM58 13l365 587c5 7 5 8 -4 8c-247 0 -301 -9 -351 -124c-3 -3 -13 -1 -12 3l40 168c1 3 13 1 12 -2c-4 -24 5 -28 57 -28h365c6 0 10 -9 7 -13l-362 -585
c-4 -7 -3 -8 5 -8h219c79 0 141 54 155 128c2 4 12 4 12 0l-14 -139c0 -4 -3 -10 -9 -10c-149 2 -330 2 -479 2c-6 0 -9 8 -6 13z" />
    <glyph glyph-name="Zcaron" unicode="&#x17d;" horiz-adv-x="602" 
d="M305 687l-103 109c-3 3 4 9 6 8l109 -46l108 46c3 2 8 -4 6 -8l-103 -109c-6 -6 -17 -6 -23 0zM58 13l365 587c5 7 5 8 -4 8c-247 0 -301 -9 -351 -124c-3 -3 -13 -1 -12 3l40 168c1 3 13 1 12 -2c-4 -24 5 -28 57 -28h365c6 0 10 -9 7 -13l-362 -585c-4 -7 -3 -8 5 -8
h219c79 0 141 54 155 128c2 4 12 4 12 0l-14 -139c0 -4 -3 -10 -9 -10c-149 2 -330 2 -479 2c-6 0 -9 8 -6 13z" />
    <glyph glyph-name="Zdotaccent" unicode="&#x17b;" horiz-adv-x="602" 
d="M318 713c-34 0 -55 20 -55 55c0 32 21 52 55 52s53 -20 53 -52c0 -35 -19 -55 -53 -55zM58 13l365 587c5 7 5 8 -4 8c-247 0 -301 -9 -351 -124c-3 -3 -13 -1 -12 3l40 168c1 3 13 1 12 -2c-4 -24 5 -28 57 -28h365c6 0 10 -9 7 -13l-362 -585c-4 -7 -3 -8 5 -8h219
c79 0 141 54 155 128c2 4 12 4 12 0l-14 -139c0 -4 -3 -10 -9 -10c-149 2 -330 2 -479 2c-6 0 -9 8 -6 13z" />
    <glyph glyph-name="uni1E92" unicode="&#x1e92;" horiz-adv-x="602" 
d="M58 13l365 587c5 7 5 8 -4 8c-247 0 -301 -9 -351 -124c-3 -3 -13 -1 -12 3l40 168c1 3 13 1 12 -2c-4 -24 5 -28 57 -28h365c6 0 10 -9 7 -13l-362 -585c-4 -7 -3 -8 5 -8h219c79 0 141 54 155 128c2 4 12 4 12 0l-14 -139c0 -4 -3 -10 -9 -10c-149 2 -330 2 -479 2
c-6 0 -9 8 -6 13zM303 -201c-34 0 -55 20 -55 55c0 31 21 51 55 51s53 -20 53 -51c0 -35 -19 -55 -53 -55z" />
    <glyph glyph-name="J.acute" horiz-adv-x="330" 
d="M71 678c-6 -2 -9 9 -4 11c52 33 93 69 138 100c10 9 111 -29 88 -33c-88 -23 -154 -47 -222 -78zM223 67c0 -190 -43 -260 -187 -317c-3 -3 -8 8 -4 10c74 48 95 142 95 280v504c0 57 -12 69 -77 69c-3 0 -3 12 0 12c37 0 79 -3 124 -3c46 0 83 3 114 3c3 0 3 -12 0 -12
c-55 0 -65 -14 -65 -71v-475z" />
    <glyph glyph-name="J.acute.c2sc" horiz-adv-x="271" 
d="M51 522c-6 -3 -9 8 -4 10c52 33 93 69 138 101c10 8 111 -29 89 -34c-89 -22 -155 -47 -223 -77zM99 22v365c0 57 -9 69 -58 69c-4 0 -4 12 0 12c28 0 65 -3 103 -3c41 0 72 3 99 3c4 0 4 -12 0 -12c-48 0 -57 -14 -57 -71v-316c0 -147 -34 -204 -156 -250
c-3 -1 -8 9 -4 10c47 28 73 97 73 193z" />
    <glyph glyph-name="J.case.c2sc" horiz-adv-x="271" 
d="M99 22v365c0 57 -9 69 -58 69c-4 0 -4 12 0 12c28 0 65 -3 103 -3c41 0 72 3 99 3c4 0 4 -12 0 -12c-48 0 -57 -14 -57 -71v-316c0 -147 -34 -204 -156 -250c-3 -1 -8 9 -4 10c47 28 73 97 73 193z" />
    <glyph glyph-name="Jcircumflex.case.c2sc" horiz-adv-x="271" 
d="M31 533l103 110c5 6 16 6 22 0l103 -110c3 -2 -3 -9 -6 -7l-108 45l-109 -45c-2 -1 -9 5 -5 7zM99 22v365c0 57 -9 69 -58 69c-4 0 -4 12 0 12c28 0 65 -3 103 -3c41 0 72 3 99 3c4 0 4 -12 0 -12c-48 0 -57 -14 -57 -71v-316c0 -147 -34 -204 -156 -250
c-3 -1 -8 9 -4 10c47 28 73 97 73 193z" />
    <glyph glyph-name="I.loclNLD.c2sc" horiz-adv-x="300" 
d="M194 81c0 -58 10 -69 68 -69c3 0 3 -12 0 -12c-31 0 -68 2 -113 2c-41 0 -81 -2 -111 -2c-4 0 -4 12 0 12c59 0 69 11 69 69v306c0 57 -10 69 -69 69c-4 0 -4 12 0 12c30 0 70 -3 111 -3c45 0 84 3 113 3c3 0 3 -12 0 -12c-58 0 -68 -14 -68 -71v-304z" />
    <glyph glyph-name="J.loclNLD.c2sc" horiz-adv-x="271" 
d="M99 22v365c0 57 -9 69 -58 69c-4 0 -4 12 0 12c28 0 65 -3 102 -3c41 0 73 3 100 3c4 0 4 -12 0 -12c-48 0 -57 -14 -57 -71v-316c0 -147 -34 -204 -155 -250c-4 -1 -8 9 -5 10c47 28 73 97 73 193z" />
    <glyph glyph-name="Q.long.c2sc" horiz-adv-x="570" 
d="M1123 -206c3 1 7 -9 3 -10c-30 -7 -78 -18 -134 -18c-231 0 -462 102 -655 229c-20 -5 -41 -7 -62 -7c-146 0 -242 113 -242 245c0 162 144 247 268 247c146 0 237 -121 237 -240c0 -81 -41 -155 -106 -202c99 -72 355 -248 632 -248c33 0 44 2 59 4zM131 262
c0 -142 69 -253 168 -253c83 0 141 76 141 209c0 131 -66 238 -175 238c-86 0 -134 -68 -134 -194z" />
    <glyph glyph-name="R.short.c2sc" horiz-adv-x="543" 
d="M558 12c4 0 4 -12 0 -12h-148c-21 0 -80 86 -155 225c-13 -2 -27 -3 -41 -3c-8 0 -17 0 -25 1v-142c0 -58 9 -69 66 -69c3 0 3 -12 0 -12c-31 0 -67 2 -112 2c-39 0 -80 -2 -111 -2c-4 0 -4 12 0 12c57 0 67 11 67 69v306c0 57 -10 69 -66 69c-3 0 -3 12 0 12
c31 0 71 -3 110 -3c37 0 88 6 123 6c99 0 152 -34 152 -97c0 -53 -36 -100 -91 -127c107 -179 163 -235 231 -235zM189 241c9 0 19 -1 32 -1c82 0 103 42 103 107c0 72 -27 106 -82 106c-45 0 -53 -15 -53 -68v-144z" />
    <glyph glyph-name="Racute.short.c2sc" horiz-adv-x="543" 
d="M140 522c-6 -3 -10 8 -5 10c53 33 93 69 138 101c10 8 111 -29 89 -34c-89 -22 -155 -47 -222 -77zM558 12c3 0 3 -12 0 -12h-147c-22 0 -80 86 -156 225c-13 -2 -27 -3 -41 -3c-8 0 -17 0 -25 1v-142c0 -58 9 -69 66 -69c3 0 3 -12 0 -12c-30 0 -67 2 -111 2
c-40 0 -81 -2 -112 -2c-4 0 -4 12 0 12c57 0 67 11 67 69v306c0 57 -10 69 -66 69c-4 0 -4 12 0 12c31 0 71 -3 111 -3c36 0 86 6 123 6c98 0 151 -34 151 -97c0 -53 -36 -100 -91 -127c107 -179 163 -235 231 -235zM189 241c9 -1 19 -1 32 -1c82 0 103 42 103 107
c0 72 -27 107 -82 107c-46 0 -53 -17 -53 -69v-144z" />
    <glyph glyph-name="Rcaron.short.c2sc" horiz-adv-x="543" 
d="M118 640c-4 2 3 8 6 7l108 -46l108 46c3 2 8 -4 6 -7l-103 -110c-6 -6 -16 -6 -22 0zM558 12c3 0 3 -12 0 -12h-147c-22 0 -80 86 -156 225c-13 -2 -27 -3 -41 -3c-8 0 -17 0 -25 1v-142c0 -58 9 -69 66 -69c3 0 3 -12 0 -12c-30 0 -67 2 -111 2c-40 0 -81 -2 -112 -2
c-4 0 -4 12 0 12c57 0 67 11 67 69v306c0 57 -10 69 -66 69c-4 0 -4 12 0 12c31 0 71 -3 111 -3c36 0 86 6 123 6c98 0 151 -34 151 -97c0 -53 -36 -100 -91 -127c107 -179 163 -235 231 -235zM189 241c9 -1 19 -1 32 -1c82 0 103 42 103 107c0 72 -27 107 -82 107
c-46 0 -53 -17 -53 -69v-144z" />
    <glyph glyph-name="Rcommaaccent.short.c2sc" horiz-adv-x="543" 
d="M558 12c3 0 3 -12 0 -12h-147c-22 0 -80 86 -156 225c-13 -2 -27 -3 -41 -3c-8 0 -17 0 -25 1v-142c0 -58 9 -69 66 -69c3 0 3 -12 0 -12c-30 0 -67 2 -111 2c-40 0 -81 -2 -112 -2c-4 0 -4 12 0 12c57 0 67 11 67 69v306c0 57 -10 69 -66 69c-4 0 -4 12 0 12
c31 0 71 -3 111 -3c36 0 86 6 123 6c98 0 151 -34 151 -97c0 -53 -36 -100 -91 -127c107 -179 163 -235 231 -235zM189 241c9 -1 19 -1 32 -1c82 0 103 42 103 107c0 72 -27 107 -82 107c-46 0 -53 -17 -53 -69v-144zM281 -75c44 0 66 -30 66 -77c0 -54 -30 -91 -71 -123
c-5 -3 -12 5 -7 8c25 23 46 47 46 76c0 15 -3 25 -8 31c-6 -11 -19 -17 -37 -17c-27 0 -46 20 -46 51c0 35 27 51 57 51z" />
    <glyph glyph-name="uni1E5A.short.c2sc" horiz-adv-x="543" 
d="M558 12c3 0 3 -12 0 -12h-147c-22 0 -80 86 -156 225c-13 -2 -27 -3 -41 -3c-8 0 -17 0 -25 1v-142c0 -58 9 -69 66 -69c3 0 3 -12 0 -12c-30 0 -67 2 -111 2c-40 0 -81 -2 -112 -2c-4 0 -4 12 0 12c57 0 67 11 67 69v306c0 57 -10 69 -66 69c-4 0 -4 12 0 12
c31 0 71 -3 111 -3c36 0 86 6 123 6c98 0 151 -34 151 -97c0 -53 -36 -100 -91 -127c107 -179 163 -235 231 -235zM189 241c9 -1 19 -1 32 -1c82 0 103 42 103 107c0 72 -27 107 -82 107c-46 0 -53 -17 -53 -69v-144zM289 -95c34 0 53 -20 53 -51c0 -35 -19 -55 -53 -55
s-55 20 -55 55c0 31 21 51 55 51z" />
    <glyph glyph-name="uni1E5C.short.c2sc" horiz-adv-x="543" 
d="M106 559c-12 0 -12 34 0 34h252c11 0 11 -34 0 -34h-252zM558 12c3 0 3 -12 0 -12h-147c-22 0 -80 86 -156 225c-13 -2 -27 -3 -41 -3c-8 0 -17 0 -25 1v-142c0 -58 9 -69 66 -69c3 0 3 -12 0 -12c-30 0 -67 2 -111 2c-40 0 -81 -2 -112 -2c-4 0 -4 12 0 12
c57 0 67 11 67 69v306c0 57 -10 69 -66 69c-4 0 -4 12 0 12c31 0 71 -3 111 -3c36 0 86 6 123 6c98 0 151 -34 151 -97c0 -53 -36 -100 -91 -127c107 -179 163 -235 231 -235zM189 241c9 -1 19 -1 32 -1c82 0 103 42 103 107c0 72 -27 107 -82 107c-46 0 -53 -17 -53 -69
v-144zM289 -95c34 0 53 -20 53 -51c0 -35 -19 -55 -53 -55s-55 20 -55 55c0 31 21 51 55 51z" />
    <glyph glyph-name="uni1E5E.short.c2sc" horiz-adv-x="543" 
d="M558 12c3 0 3 -12 0 -12h-147c-22 0 -80 86 -156 225c-13 -2 -27 -3 -41 -3c-8 0 -17 0 -25 1v-142c0 -58 9 -69 66 -69c3 0 3 -12 0 -12c-30 0 -67 2 -111 2c-40 0 -81 -2 -112 -2c-4 0 -4 12 0 12c57 0 67 11 67 69v306c0 57 -10 69 -66 69c-4 0 -4 12 0 12
c31 0 71 -3 111 -3c36 0 86 6 123 6c98 0 151 -34 151 -97c0 -53 -36 -100 -91 -127c107 -179 163 -235 231 -235zM189 241c9 -1 19 -1 32 -1c82 0 103 42 103 107c0 72 -27 107 -82 107c-46 0 -53 -17 -53 -69v-144zM413 -85c12 0 12 -34 0 -34h-252c-11 0 -11 34 0 34h252
z" />
    <glyph glyph-name="J.case" horiz-adv-x="330" 
d="M224 67c0 -190 -44 -260 -187 -317c-4 -2 -9 8 -5 11c75 47 95 140 95 279v504c0 57 -12 69 -77 69c-4 0 -4 12 0 12c36 0 79 -3 124 -3c46 0 83 3 114 3c3 0 3 -12 0 -12c-56 0 -64 -14 -64 -71v-475z" />
    <glyph glyph-name="Jcircumflex.case" horiz-adv-x="330" 
d="M55 698l103 110c6 6 16 6 22 0l103 -110c3 -2 -2 -9 -6 -7l-108 46l-108 -46c-3 -1 -10 5 -6 7zM223 67c0 -190 -43 -260 -187 -317c-3 -3 -8 8 -4 10c74 48 95 142 95 280v504c0 57 -12 69 -77 69c-3 0 -3 12 0 12c37 0 79 -3 124 -3c46 0 83 3 114 3c3 0 3 -12 0 -12
c-55 0 -65 -14 -65 -71v-475z" />
    <glyph glyph-name="Q.cv01" horiz-adv-x="766" 
d="M1228 -206c4 1 7 -9 4 -10c-31 -7 -66 -13 -122 -13c-239 0 -490 95 -690 221c-18 -3 -36 -4 -54 -4c-192 0 -317 148 -317 324c0 217 190 324 352 324c197 0 316 -156 316 -317c0 -128 -77 -237 -187 -292h2c68 -47 348 -237 638 -237c32 0 43 2 58 4zM157 347
c0 -193 100 -335 243 -335c118 0 209 99 209 278c0 185 -94 321 -249 321c-131 0 -203 -100 -203 -264z" />
    <glyph glyph-name="Q.cv02" horiz-adv-x="766" 
d="M1447 -194c3 1 7 -10 3 -11c-38 -15 -126 -49 -295 -49c-183 0 -462 40 -838 245c-164 23 -268 160 -268 321c0 217 190 324 352 324c197 0 316 -156 316 -317c0 -147 -101 -269 -237 -313c177 -120 504 -225 748 -225c94 0 164 8 219 25zM157 347
c0 -193 100 -335 243 -335c118 0 209 99 209 278c0 185 -94 321 -249 321c-131 0 -203 -100 -203 -264z" />
    <glyph glyph-name="Aacute.loclHUN" horiz-adv-x="711" 
d="M301 670c-6 -2 -10 6 -7 11c34 38 65 80 90 119c7 11 103 -25 84 -33c-65 -28 -114 -59 -167 -97zM711 12c6 0 6 -12 0 -12c-40 0 -83 4 -123 4c-44 0 -71 -4 -111 -4c-6 0 -6 12 0 12c61 0 70 17 39 79l-108 219h-181l-76 -173c-36 -81 2 -125 82 -125c6 0 6 -12 0 -12
c-40 0 -67 4 -118 4s-74 -4 -117 -4c-6 0 -6 12 0 12c53 0 79 25 127 134l215 484c2 4 16 5 17 0l244 -493c48 -96 74 -125 110 -125zM239 336h156l-83 167z" />
    <glyph glyph-name="Eacute.loclHUN" horiz-adv-x="547" 
d="M247 670c-6 -2 -10 6 -7 11c34 38 65 80 90 119c7 11 103 -25 85 -33c-66 -28 -115 -59 -168 -97zM489 156c1 3 12 1 12 -3c-5 -37 -10 -95 -10 -138c0 -11 -3 -15 -15 -15h-434c-3 0 -3 12 0 12c64 0 76 11 76 69v463c0 57 -12 69 -76 69c-3 0 -3 12 0 12h416
c7 0 10 -3 10 -9l2 -129c0 -4 -10 -5 -12 -2c-16 76 -63 114 -139 114h-41c-49 0 -65 -15 -65 -57v-204h97c74 0 109 27 109 74c0 3 11 3 11 0c0 -42 -1 -61 -1 -87c0 -33 3 -62 3 -98c0 -4 -12 -4 -12 0c0 55 -36 85 -112 85h-95v-227c0 -44 14 -59 57 -59h48
c91 0 146 43 171 130z" />
    <glyph glyph-name="Iacute.loclHUN" horiz-adv-x="338" 
d="M120 670c-5 -2 -10 6 -7 11c34 38 65 80 90 119c7 11 103 -25 85 -33c-66 -28 -115 -59 -168 -97zM218 81c0 -58 10 -69 76 -69c3 0 3 -12 0 -12c-34 0 -75 2 -126 2c-46 0 -90 -2 -125 -2c-3 0 -3 12 0 12c66 0 77 11 77 69v463c0 57 -11 69 -77 69c-3 0 -3 12 0 12
c35 0 79 -3 125 -3c51 0 93 3 126 3c3 0 3 -12 0 -12c-65 0 -76 -14 -76 -71v-461z" />
    <glyph glyph-name="Oacute.loclHUN" horiz-adv-x="766" 
d="M338 670c-6 -2 -10 6 -7 11c34 38 65 80 90 119c7 11 103 -25 84 -33c-65 -28 -114 -59 -167 -97zM366 -12c-192 0 -317 148 -317 324c0 217 190 324 352 324c197 0 316 -156 316 -317c0 -186 -161 -331 -351 -331zM400 12c118 0 209 99 209 278c0 185 -94 321 -249 321
c-131 0 -203 -100 -203 -264c0 -193 100 -335 243 -335z" />
    <glyph glyph-name="Uacute.loclHUN" horiz-adv-x="759" 
d="M332 670c-6 -2 -10 6 -7 11c34 38 65 80 90 119c7 11 103 -25 85 -33c-66 -28 -115 -59 -168 -97zM726 12c4 0 4 -12 0 -12c-28 0 -53 1 -85 1c-28 0 -41 -1 -66 -1c-16 0 -18 2 -18 19v71c-73 -68 -142 -102 -230 -102c-129 0 -230 76 -230 198v358c0 57 -10 69 -76 69
c-3 0 -3 12 0 12c35 0 77 -3 124 -3c49 0 91 3 124 3c4 0 4 -12 0 -12c-64 0 -76 -14 -76 -71v-321c0 -130 69 -196 171 -196c67 0 126 28 193 91v426c0 57 -10 71 -76 71c-4 0 -4 12 0 12c34 0 76 -3 121 -3c47 0 90 3 124 3c4 0 4 -12 0 -12c-64 0 -77 -12 -77 -69v-463
c0 -58 13 -69 77 -69z" />
    <glyph glyph-name="I.loclNLD" horiz-adv-x="338" 
d="M218 81c0 -58 10 -69 76 -69c3 0 3 -12 0 -12c-34 0 -75 2 -126 2c-46 0 -90 -2 -125 -2c-3 0 -3 12 0 12c66 0 77 11 77 69v463c0 57 -11 69 -77 69c-3 0 -3 12 0 12c35 0 79 -3 125 -3c51 0 93 3 126 3c3 0 3 -12 0 -12c-65 0 -76 -14 -76 -71v-461z" />
    <glyph glyph-name="J.loclNLD" horiz-adv-x="330" 
d="M223 67c0 -190 -43 -260 -187 -317c-3 -3 -8 8 -4 10c74 48 95 142 95 280v504c0 57 -12 69 -77 69c-3 0 -3 12 0 12c37 0 79 -3 124 -3c46 0 83 3 114 3c3 0 3 -12 0 -12c-55 0 -65 -14 -65 -71v-475z" />
    <glyph glyph-name="Cacute.loclPLK" horiz-adv-x="669" 
d="M395 685c-4 -7 -28 -4 -28 3l1 123c0 8 110 22 100 4zM419 636c58 0 131 -11 170 -29c12 -6 13 -9 15 -23l12 -131c0 -4 -9 -6 -11 -2c-39 105 -120 161 -225 161c-141 0 -222 -109 -222 -269c0 -186 106 -336 251 -336c87 0 157 53 205 168c2 5 12 3 12 -1l-15 -128
c-3 -17 -4 -19 -16 -24c-62 -24 -125 -34 -186 -34c-257 0 -360 177 -360 328c0 194 177 320 370 320z" />
    <glyph glyph-name="Nacute.loclPLK" horiz-adv-x="732" 
d="M396 685c-3 -7 -28 -4 -28 3l1 123c0 8 110 22 100 4zM717 625c3 0 3 -12 0 -12c-54 0 -84 -39 -84 -110v-517c0 -4 -10 -5 -12 -2l-469 544v-406c0 -72 29 -110 82 -110c3 0 3 -12 0 -12c-29 0 -59 2 -95 2c-37 0 -74 -2 -104 -2c-3 0 -3 12 0 12c57 0 90 38 90 110v437
c-39 42 -67 54 -97 54c-3 0 -3 12 0 12c26 0 54 -2 77 -2c40 0 75 2 93 2c17 0 17 -14 49 -52l359 -424v354c0 71 -28 110 -81 110c-3 0 -3 12 0 12c28 0 57 -3 94 -3c35 0 69 3 98 3z" />
    <glyph glyph-name="Oacute.loclPLK" horiz-adv-x="766" 
d="M403 685c-3 -7 -28 -4 -28 3l1 123c0 8 110 22 100 4zM366 -12c-192 0 -317 148 -317 324c0 217 190 324 352 324c197 0 316 -156 316 -317c0 -186 -161 -331 -351 -331zM400 12c118 0 209 99 209 278c0 185 -94 321 -249 321c-131 0 -203 -100 -203 -264
c0 -193 100 -335 243 -335z" />
    <glyph glyph-name="Sacute.loclPLK" horiz-adv-x="507" 
d="M282 685c-3 -7 -28 -4 -28 3l1 123c0 8 110 22 100 4zM165 518c0 -78 68 -120 138 -164c75 -46 152 -94 152 -190c0 -103 -88 -176 -214 -176c-55 0 -123 17 -153 39c-6 3 -10 7 -10 19l-7 150c-1 6 11 8 12 3c33 -83 84 -188 184 -188c50 0 100 22 100 100
c0 96 -72 142 -144 187c-70 45 -140 88 -140 178c0 110 105 160 202 160c45 0 94 -9 126 -23c11 -5 15 -11 15 -19l2 -136c0 -4 -9 -7 -12 -2c-12 40 -50 160 -154 160c-60 0 -97 -37 -97 -98z" />
    <glyph glyph-name="Zacute.loclPLK" horiz-adv-x="602" 
d="M333 685c-3 -7 -28 -4 -28 3l1 123c0 8 110 22 100 4zM58 13l365 587c5 7 5 8 -4 8c-247 0 -301 -9 -351 -124c-3 -3 -13 -1 -12 3l40 168c1 3 13 1 12 -2c-4 -24 5 -28 57 -28h365c6 0 10 -9 7 -13l-362 -585c-4 -7 -3 -8 5 -8h219c79 0 141 54 155 128c2 4 12 4 12 0
l-14 -139c0 -4 -3 -10 -9 -10c-149 2 -330 2 -479 2c-6 0 -9 8 -6 13z" />
    <glyph glyph-name="Q.long" horiz-adv-x="766" 
d="M1228 -206c4 1 7 -9 4 -10c-31 -7 -66 -13 -122 -13c-239 0 -490 95 -690 221c-18 -3 -36 -4 -54 -4c-192 0 -317 148 -317 324c0 217 190 324 352 324c197 0 316 -156 316 -317c0 -128 -77 -237 -187 -292h2c68 -47 348 -237 638 -237c32 0 43 2 58 4zM157 347
c0 -193 100 -335 243 -335c118 0 209 99 209 278c0 185 -94 321 -249 321c-131 0 -203 -100 -203 -264z" />
    <glyph glyph-name="F.short" horiz-adv-x="518" 
d="M468 616l2 -129c0 -4 -10 -5 -12 -2c-16 76 -63 114 -139 114h-41c-48 0 -65 -15 -65 -56v-217h82c76 0 112 27 112 74c0 4 12 4 12 0c0 -42 -1 -61 -1 -87c0 -32 2 -62 2 -98c0 -3 -12 -3 -12 0c0 55 -37 86 -116 86h-79v-216c0 -60 16 -73 112 -73c4 0 4 -12 0 -12
c-44 0 -95 2 -162 2c-47 0 -92 -2 -127 -2c-3 0 -3 12 0 12c70 0 82 11 82 69v463c0 57 -12 69 -76 69c-3 0 -3 12 0 12h416c7 0 10 -3 10 -9z" />
    <glyph glyph-name="R.short" horiz-adv-x="606" 
d="M609 12c3 0 3 -12 0 -12h-142c-19 0 -94 126 -167 317c-11 -2 -23 -3 -34 -3c-17 0 -41 0 -57 1v-234c0 -58 10 -69 82 -69c3 0 3 -12 0 -12c-35 0 -76 2 -125 2c-46 0 -90 -2 -124 -2c-4 0 -4 12 0 12c65 0 77 11 77 69v463c0 57 -11 69 -76 69c-3 0 -3 12 0 12
c34 0 77 -3 123 -3c38 0 89 6 129 6c119 0 185 -47 185 -127c0 -66 -45 -126 -107 -160c112 -245 177 -329 236 -329zM209 342c19 -2 48 -3 64 -3c78 0 108 29 108 126c0 115 -44 144 -103 144c-51 0 -69 -14 -69 -67v-200z" />
    <glyph glyph-name="Racute.short" horiz-adv-x="606" 
d="M183 678c-6 -2 -9 9 -5 11c53 33 94 69 138 100c11 9 111 -29 89 -33c-89 -23 -154 -47 -222 -78zM608 12c4 0 4 -12 0 -12h-141c-19 0 -93 126 -167 316c-11 -2 -22 -3 -33 -3c-18 0 -42 2 -58 3v-235c0 -58 11 -69 81 -69c4 0 4 -12 0 -12c-34 0 -75 2 -124 2
c-47 0 -90 -2 -124 -2c-3 0 -3 12 0 12c64 0 77 11 77 69v463c0 57 -11 69 -76 69c-3 0 -3 12 0 12c34 0 76 -3 123 -3c39 0 89 6 129 6c119 0 185 -47 185 -126c0 -66 -45 -127 -107 -161c112 -246 178 -329 235 -329zM209 343c19 -3 47 -4 65 -4c77 0 107 29 107 125
c0 116 -44 145 -103 145c-51 0 -69 -14 -69 -67v-199z" />
    <glyph glyph-name="Rcaron.short" horiz-adv-x="606" 
d="M268 687l-103 109c-3 3 4 9 6 8l109 -46l108 46c3 2 8 -4 5 -8l-102 -109c-6 -6 -17 -6 -23 0zM608 12c4 0 4 -12 0 -12h-141c-19 0 -93 126 -167 316c-11 -2 -22 -3 -33 -3c-18 0 -42 2 -58 3v-235c0 -58 11 -69 81 -69c4 0 4 -12 0 -12c-34 0 -75 2 -124 2
c-47 0 -90 -2 -124 -2c-3 0 -3 12 0 12c64 0 77 11 77 69v463c0 57 -11 69 -76 69c-3 0 -3 12 0 12c34 0 76 -3 123 -3c39 0 89 6 129 6c119 0 185 -47 185 -126c0 -66 -45 -127 -107 -161c112 -246 178 -329 235 -329zM209 343c19 -3 47 -4 65 -4c77 0 107 29 107 125
c0 116 -44 145 -103 145c-51 0 -69 -14 -69 -67v-199z" />
    <glyph glyph-name="Rcommaaccent.short" horiz-adv-x="606" 
d="M608 12c4 0 4 -12 0 -12h-141c-19 0 -93 126 -167 316c-11 -2 -22 -3 -33 -3c-18 0 -42 2 -58 3v-235c0 -58 11 -69 81 -69c4 0 4 -12 0 -12c-34 0 -75 2 -124 2c-47 0 -90 -2 -124 -2c-3 0 -3 12 0 12c64 0 77 11 77 69v463c0 57 -11 69 -76 69c-3 0 -3 12 0 12
c34 0 76 -3 123 -3c39 0 89 6 129 6c119 0 185 -47 185 -126c0 -66 -45 -127 -107 -161c112 -246 178 -329 235 -329zM209 343c19 -3 47 -4 65 -4c77 0 107 29 107 125c0 116 -44 145 -103 145c-51 0 -69 -14 -69 -67v-199zM317 -75c44 0 66 -30 66 -77
c0 -54 -31 -91 -71 -123c-5 -3 -12 5 -8 8c26 23 47 47 47 76c0 15 -3 25 -8 31c-7 -11 -19 -17 -37 -17c-27 0 -46 20 -46 51c0 35 27 51 57 51z" />
    <glyph glyph-name="uni1E5A.short" horiz-adv-x="606" 
d="M608 12c4 0 4 -12 0 -12h-141c-19 0 -93 126 -167 316c-11 -2 -22 -3 -33 -3c-18 0 -42 2 -58 3v-235c0 -58 11 -69 81 -69c4 0 4 -12 0 -12c-34 0 -75 2 -124 2c-47 0 -90 -2 -124 -2c-3 0 -3 12 0 12c64 0 77 11 77 69v463c0 57 -11 69 -76 69c-3 0 -3 12 0 12
c34 0 76 -3 123 -3c39 0 89 6 129 6c119 0 185 -47 185 -126c0 -66 -45 -127 -107 -161c112 -246 178 -329 235 -329zM209 343c19 -3 47 -4 65 -4c77 0 107 29 107 125c0 116 -44 145 -103 145c-51 0 -69 -14 -69 -67v-199zM324 -95c34 0 53 -20 53 -51
c0 -35 -19 -55 -53 -55s-55 20 -55 55c0 31 21 51 55 51z" />
    <glyph glyph-name="uni1E5C.short" horiz-adv-x="606" 
d="M154 716c-12 0 -12 34 0 34h251c12 0 12 -34 0 -34h-251zM608 12c4 0 4 -12 0 -12h-141c-19 0 -93 126 -167 316c-11 -2 -22 -3 -33 -3c-18 0 -42 2 -58 3v-235c0 -58 11 -69 81 -69c4 0 4 -12 0 -12c-34 0 -75 2 -124 2c-47 0 -90 -2 -124 -2c-3 0 -3 12 0 12
c64 0 77 11 77 69v463c0 57 -11 69 -76 69c-3 0 -3 12 0 12c34 0 76 -3 123 -3c39 0 89 6 129 6c119 0 185 -47 185 -126c0 -66 -45 -127 -107 -161c112 -246 178 -329 235 -329zM209 343c19 -3 47 -4 65 -4c77 0 107 29 107 125c0 116 -44 145 -103 145
c-51 0 -69 -14 -69 -67v-199zM324 -95c34 0 53 -20 53 -51c0 -35 -19 -55 -53 -55s-55 20 -55 55c0 31 21 51 55 51z" />
    <glyph glyph-name="uni1E5E.short" horiz-adv-x="606" 
d="M608 12c4 0 4 -12 0 -12h-141c-19 0 -93 126 -167 316c-11 -2 -22 -3 -33 -3c-18 0 -42 2 -58 3v-235c0 -58 11 -69 81 -69c4 0 4 -12 0 -12c-34 0 -75 2 -124 2c-47 0 -90 -2 -124 -2c-3 0 -3 12 0 12c64 0 77 11 77 69v463c0 57 -11 69 -76 69c-3 0 -3 12 0 12
c34 0 76 -3 123 -3c39 0 89 6 129 6c119 0 185 -47 185 -126c0 -66 -45 -127 -107 -161c112 -246 178 -329 235 -329zM209 343c19 -3 47 -4 65 -4c77 0 107 29 107 125c0 116 -44 145 -103 145c-51 0 -69 -14 -69 -67v-199zM448 -85c12 0 12 -34 0 -34h-252
c-11 0 -11 34 0 34h252z" />
    <glyph glyph-name="A.ss01" horiz-adv-x="676" 
d="M676 11c5 0 5 -12 0 -12c-39 0 -84 4 -122 4c-43 0 -71 -4 -111 -4c-6 0 -6 12 0 12c60 0 71 17 41 79l-91 194h-176l-67 -148c-36 -80 0 -125 82 -125c6 0 6 -12 0 -12c-39 0 -66 4 -118 4c-50 0 -73 -4 -116 -4c-6 0 -6 12 0 12c51 0 79 31 126 135l163 358
c-7 12 -14 23 -21 32c-9 12 43 61 43 147c0 4 15 7 16 3c22 -73 52 -149 87 -222l154 -328c49 -103 78 -125 110 -125zM229 310h152l-53 113c-9 20 -18 37 -25 51z" />
    <glyph glyph-name="Adieresis.ss01" horiz-adv-x="676" 
d="M238 708c-31 0 -51 17 -51 50c0 29 20 48 51 48s49 -19 49 -48c0 -33 -18 -50 -49 -50zM412 708c-31 0 -50 17 -50 50c0 29 19 47 50 47s48 -18 48 -47c0 -33 -17 -50 -48 -50zM676 11c6 0 6 -12 0 -12c-40 0 -83 3 -123 3c-42 0 -70 -3 -110 -3c-6 0 -6 12 0 12
c60 0 72 17 41 79l-90 194h-177l-67 -148c-37 -80 1 -125 83 -125c6 0 6 -12 0 -12c-40 0 -67 3 -118 3s-74 -3 -117 -3c-6 0 -6 12 0 12c51 0 79 31 126 135l163 358c-7 13 -13 23 -20 32c-10 13 42 60 42 147c0 4 15 7 16 2c22 -72 53 -148 87 -221l154 -328
c49 -103 78 -125 110 -125zM229 310h153l-53 113c-10 20 -18 37 -26 52z" />
    <glyph glyph-name="uni1EA0.ss01" horiz-adv-x="676" 
d="M676 11c6 0 6 -12 0 -12c-40 0 -83 3 -123 3c-42 0 -70 -3 -110 -3c-6 0 -6 12 0 12c60 0 72 17 41 79l-90 194h-177l-67 -148c-37 -80 1 -125 83 -125c6 0 6 -12 0 -12c-40 0 -67 3 -118 3s-74 -3 -117 -3c-6 0 -6 12 0 12c51 0 79 31 126 135l163 358
c-7 13 -13 23 -20 32c-10 13 42 60 42 147c0 4 15 7 16 2c22 -72 53 -148 87 -221l154 -328c49 -103 78 -125 110 -125zM229 310h153l-53 113c-10 20 -18 37 -26 52zM339 -95c34 0 53 -20 53 -51c0 -35 -19 -55 -53 -55s-55 20 -55 55c0 31 21 51 55 51z" />
    <glyph glyph-name="Aogonek.ss01" horiz-adv-x="677" 
d="M676 11c6 0 6 -12 0 -12c-36 0 -72 2 -106 2c-70 0 -110 -51 -110 -134c0 -64 23 -106 84 -106c25 0 42 7 56 14c3 2 10 -5 7 -9c-35 -29 -67 -41 -112 -41c-76 0 -118 35 -118 101c0 132 156 145 105 264l-95 220h-162l-75 -174c-35 -81 0 -125 82 -125c6 0 6 -12 0 -12
c-39 0 -66 4 -118 4c-50 0 -73 -4 -116 -4c-6 0 -6 12 0 12c51 0 80 30 126 135l166 379c-9 15 -17 26 -25 37c-9 12 49 60 49 146c0 5 15 8 16 3c22 -73 55 -148 87 -221l150 -354c44 -105 73 -125 109 -125zM237 336h139l-49 113l-21 46z" />
    <glyph glyph-name="B.ss01" horiz-adv-x="583" 
d="M373 349c89 -12 158 -75 158 -166c0 -107 -91 -187 -217 -187c-37 0 -102 6 -148 6s-90 -2 -124 -2c-4 0 -4 12 0 12c65 0 77 11 77 69v463c0 57 -11 69 -76 69c-3 0 -3 12 0 12c34 0 77 -3 123 -3c39 0 94 6 133 6c107 0 167 -40 167 -121c0 -56 -29 -106 -93 -158z
M273 608c-44 0 -58 -11 -58 -66v-191h126h6c20 32 29 73 29 122c0 95 -34 135 -103 135zM297 19c94 0 133 51 133 139c0 103 -45 167 -160 167h-55v-244c0 -39 11 -62 82 -62z" />
    <glyph glyph-name="J.ss01" horiz-adv-x="317" 
d="M214 67c0 -205 -44 -280 -190 -342c-4 -2 -9 8 -5 11c77 51 98 153 98 304v504c0 57 -12 69 -77 69c-3 0 -3 12 0 12c37 0 79 -3 125 -3c45 0 83 3 113 3c4 0 4 -12 0 -12c-55 0 -64 -14 -64 -71v-475z" />
    <glyph glyph-name="K.ss01" horiz-adv-x="654" 
d="M659 44c3 1 5 -11 2 -12c-73 -17 -123 -41 -145 -41c-39 0 -45 17 -163 149l-148 176v-235c0 -58 10 -69 76 -69c4 0 4 -12 0 -12c-34 0 -76 2 -125 2c-46 0 -90 -2 -124 -2c-4 0 -4 12 0 12c65 0 77 11 77 69v463c0 57 -11 69 -76 69c-3 0 -3 12 0 12c34 0 77 -3 123 -3
c49 0 92 3 125 3c3 0 3 -12 0 -12c-65 0 -76 -14 -76 -71v-209l200 196c49 49 37 84 -31 84c-3 0 -3 12 0 12c34 0 63 -3 121 -3c62 0 93 3 126 3c4 0 4 -12 0 -12c-57 0 -132 -32 -191 -90l-155 -149l152 -181c111 -126 156 -154 198 -154c10 0 22 2 34 5z" />
    <glyph glyph-name="uni1E30.ss01" horiz-adv-x="654" 
d="M234 678c-6 -2 -9 9 -5 11c53 33 94 69 138 100c11 9 111 -29 89 -33c-89 -23 -154 -47 -222 -78zM658 43c4 1 6 -10 3 -11c-74 -18 -123 -41 -145 -41c-39 0 -45 17 -163 149l-148 174v-233c0 -58 10 -69 76 -69c4 0 4 -12 0 -12c-34 0 -75 2 -124 2
c-47 0 -90 -2 -125 -2c-4 0 -4 12 0 12c65 0 77 11 77 69v463c0 57 -11 69 -76 69c-4 0 -4 12 0 12c35 0 77 -3 124 -3c49 0 91 3 124 3c3 0 3 -12 0 -12c-65 0 -76 -14 -76 -71v-208l200 195c49 49 37 84 -31 84c-3 0 -3 12 0 12c34 0 63 -3 121 -3c62 0 92 3 126 3
c4 0 4 -12 0 -12c-56 0 -132 -32 -192 -90l-154 -149l152 -181c111 -125 157 -153 199 -153c9 0 21 1 32 3z" />
    <glyph glyph-name="uni01E8.ss01" horiz-adv-x="654" 
d="M319 687l-103 109c-3 3 4 9 6 8l109 -46l108 46c3 2 8 -4 5 -8l-102 -109c-6 -6 -17 -6 -23 0zM658 43c4 1 6 -10 3 -11c-74 -18 -123 -41 -145 -41c-39 0 -45 17 -163 149l-148 174v-233c0 -58 10 -69 76 -69c4 0 4 -12 0 -12c-34 0 -75 2 -124 2c-47 0 -90 -2 -125 -2
c-4 0 -4 12 0 12c65 0 77 11 77 69v463c0 57 -11 69 -76 69c-4 0 -4 12 0 12c35 0 77 -3 124 -3c49 0 91 3 124 3c3 0 3 -12 0 -12c-65 0 -76 -14 -76 -71v-208l200 195c49 49 37 84 -31 84c-3 0 -3 12 0 12c34 0 63 -3 121 -3c62 0 92 3 126 3c4 0 4 -12 0 -12
c-56 0 -132 -32 -192 -90l-154 -149l152 -181c111 -125 157 -153 199 -153c9 0 21 1 32 3z" />
    <glyph glyph-name="Kcommaaccent.ss01" horiz-adv-x="654" 
d="M658 43c4 1 6 -10 3 -11c-74 -18 -123 -41 -145 -41c-39 0 -45 17 -163 149l-148 174v-233c0 -58 10 -69 76 -69c4 0 4 -12 0 -12c-34 0 -75 2 -124 2c-47 0 -90 -2 -125 -2c-4 0 -4 12 0 12c65 0 77 11 77 69v463c0 57 -11 69 -76 69c-4 0 -4 12 0 12c35 0 77 -3 124 -3
c49 0 91 3 124 3c3 0 3 -12 0 -12c-65 0 -76 -14 -76 -71v-208l200 195c49 49 37 84 -31 84c-3 0 -3 12 0 12c34 0 63 -3 121 -3c62 0 92 3 126 3c4 0 4 -12 0 -12c-56 0 -132 -32 -192 -90l-154 -149l152 -181c111 -125 157 -153 199 -153c9 0 21 1 32 3zM339 -75
c43 0 66 -30 66 -77c0 -54 -31 -91 -72 -123c-4 -3 -11 5 -7 8c26 23 47 47 47 76c0 15 -3 25 -9 31c-6 -11 -18 -17 -37 -17c-26 0 -45 20 -45 51c0 35 27 51 57 51z" />
    <glyph glyph-name="Q.ss01" horiz-adv-x="766" 
d="M766 -128c4 1 7 -10 4 -12c-100 -26 -126 -53 -151 -53c-19 0 -34 12 -189 186c-21 -3 -42 -5 -64 -5c-192 0 -317 148 -317 324c0 217 190 324 352 324c197 0 316 -156 316 -317c0 -139 -91 -256 -216 -305c131 -115 181 -147 225 -147c11 0 26 2 40 5zM157 347
c0 -193 100 -335 243 -335c118 0 209 99 209 278c0 185 -94 321 -249 321c-131 0 -203 -100 -203 -264z" />
    <glyph glyph-name="R.ss01" horiz-adv-x="671" 
d="M682 44c4 1 5 -11 3 -12c-72 -17 -124 -41 -149 -41c-31 0 -74 31 -232 326c-13 -2 -25 -3 -38 -3c-17 0 -36 0 -51 1v-234c0 -58 10 -69 76 -69c3 0 3 -12 0 -12c-35 0 -76 2 -125 2c-46 0 -90 -2 -124 -2c-4 0 -4 12 0 12c65 0 77 11 77 69v463c0 57 -11 69 -76 69
c-3 0 -3 12 0 12c34 0 77 -3 123 -3c38 0 89 6 129 6c119 0 185 -47 185 -127c0 -64 -43 -124 -103 -157c165 -264 213 -305 271 -305c12 0 24 2 34 5zM215 342c18 -2 42 -3 58 -3c78 0 108 29 108 126c0 115 -44 144 -103 144c-47 0 -63 -14 -63 -67v-200z" />
    <glyph glyph-name="Racute.ss01" horiz-adv-x="671" 
d="M183 678c-6 -2 -10 9 -5 11c53 33 94 69 138 100c11 9 111 -29 89 -33c-89 -23 -154 -47 -222 -78zM682 43c3 1 6 -10 2 -11c-71 -18 -123 -41 -147 -41c-32 0 -75 30 -232 325c-13 -2 -25 -3 -38 -3c-18 0 -37 2 -53 3v-235c0 -58 11 -69 76 -69c4 0 4 -12 0 -12
c-34 0 -75 2 -124 2c-47 0 -90 -2 -124 -2c-3 0 -3 12 0 12c64 0 77 11 77 69v463c0 57 -11 69 -76 69c-3 0 -3 12 0 12c34 0 76 -3 123 -3c39 0 89 6 129 6c119 0 185 -47 185 -126c0 -65 -44 -125 -104 -159c165 -263 214 -303 272 -303c12 0 23 1 34 3zM214 343
c19 -3 42 -4 60 -4c77 0 107 29 107 125c0 116 -44 145 -103 145c-46 0 -64 -14 -64 -67v-199z" />
    <glyph glyph-name="Rcaron.ss01" horiz-adv-x="671" 
d="M268 687l-103 109c-3 3 4 9 6 8l109 -46l108 46c3 2 8 -4 5 -8l-103 -109c-5 -6 -16 -6 -22 0zM682 43c3 1 6 -10 2 -11c-71 -18 -123 -41 -147 -41c-32 0 -75 30 -232 325c-13 -2 -25 -3 -38 -3c-18 0 -37 2 -53 3v-235c0 -58 11 -69 76 -69c4 0 4 -12 0 -12
c-34 0 -75 2 -124 2c-47 0 -90 -2 -124 -2c-3 0 -3 12 0 12c64 0 77 11 77 69v463c0 57 -11 69 -76 69c-3 0 -3 12 0 12c34 0 76 -3 123 -3c39 0 89 6 129 6c119 0 185 -47 185 -126c0 -65 -44 -125 -104 -159c165 -263 214 -303 272 -303c12 0 23 1 34 3zM214 343
c19 -3 42 -4 60 -4c77 0 107 29 107 125c0 116 -44 145 -103 145c-46 0 -64 -14 -64 -67v-199z" />
    <glyph glyph-name="Rcommaaccent.ss01" horiz-adv-x="671" 
d="M682 43c3 1 6 -10 2 -11c-71 -18 -123 -41 -147 -41c-32 0 -75 30 -232 325c-13 -2 -25 -3 -38 -3c-18 0 -37 2 -53 3v-235c0 -58 11 -69 76 -69c4 0 4 -12 0 -12c-34 0 -75 2 -124 2c-47 0 -90 -2 -124 -2c-3 0 -3 12 0 12c64 0 77 11 77 69v463c0 57 -11 69 -76 69
c-3 0 -3 12 0 12c34 0 76 -3 123 -3c39 0 89 6 129 6c119 0 185 -47 185 -126c0 -65 -44 -125 -104 -159c165 -263 214 -303 272 -303c12 0 23 1 34 3zM214 343c19 -3 42 -4 60 -4c77 0 107 29 107 125c0 116 -44 145 -103 145c-46 0 -64 -14 -64 -67v-199zM341 -75
c43 0 65 -30 65 -77c0 -54 -30 -91 -71 -123c-5 -3 -12 5 -7 8c26 23 47 47 47 76c0 16 -3 25 -9 32c-6 -12 -19 -18 -37 -18c-27 0 -46 20 -46 51c0 35 27 51 58 51z" />
    <glyph glyph-name="U.ss01" horiz-adv-x="759" 
d="M726 12c4 0 4 -12 0 -12c-28 0 -54 1 -85 1c-28 0 -41 -1 -65 -1c-17 0 -19 2 -19 19v72c-74 -69 -142 -103 -230 -103c-129 0 -230 76 -230 198v358c0 57 -11 69 -76 69c-3 0 -3 12 0 12c35 0 77 -3 124 -3c49 0 91 3 124 3c4 0 4 -12 0 -12c-65 0 -76 -14 -76 -71v-321
c0 -130 69 -197 170 -197c68 0 127 28 194 92v426c0 57 -10 71 -76 71c-3 0 -3 12 0 12c34 0 75 -3 121 -3c47 0 90 3 124 3c4 0 4 -12 0 -12c-65 0 -77 -12 -77 -69v-463c0 -58 12 -69 77 -69z" />
    <glyph glyph-name="Uacute.ss01" horiz-adv-x="759" 
d="M284 678c-6 -2 -9 9 -5 11c53 33 94 69 138 100c11 9 112 -29 89 -33c-89 -23 -154 -47 -222 -78zM726 12c4 0 4 -12 0 -12c-28 0 -53 1 -85 1c-28 0 -41 -1 -66 -1c-16 0 -18 2 -18 19v71c-73 -68 -142 -102 -230 -102c-129 0 -230 76 -230 198v358c0 57 -10 69 -76 69
c-3 0 -3 12 0 12c35 0 77 -3 124 -3c49 0 91 3 124 3c4 0 4 -12 0 -12c-64 0 -76 -14 -76 -71v-321c0 -130 69 -196 171 -196c67 0 126 28 193 91v426c0 57 -10 71 -76 71c-4 0 -4 12 0 12c34 0 76 -3 121 -3c47 0 90 3 124 3c4 0 4 -12 0 -12c-64 0 -77 -12 -77 -69v-463
c0 -58 13 -69 77 -69z" />
    <glyph glyph-name="Ubreve.ss01" horiz-adv-x="759" 
d="M381 690c-63 0 -99 42 -103 119c0 5 11 6 11 3c3 -28 43 -56 92 -56c48 0 88 28 91 56c0 3 11 2 11 -3c-4 -77 -39 -119 -102 -119zM726 12c4 0 4 -12 0 -12c-28 0 -53 1 -85 1c-28 0 -41 -1 -66 -1c-16 0 -18 2 -18 19v71c-73 -68 -142 -102 -230 -102
c-129 0 -230 76 -230 198v358c0 57 -10 69 -76 69c-3 0 -3 12 0 12c35 0 77 -3 124 -3c49 0 91 3 124 3c4 0 4 -12 0 -12c-64 0 -76 -14 -76 -71v-321c0 -130 69 -196 171 -196c67 0 126 28 193 91v426c0 57 -10 71 -76 71c-4 0 -4 12 0 12c34 0 76 -3 121 -3
c47 0 90 3 124 3c4 0 4 -12 0 -12c-64 0 -77 -12 -77 -69v-463c0 -58 13 -69 77 -69z" />
    <glyph glyph-name="uni01D3.ss01" horiz-adv-x="759" 
d="M267 796c-4 3 3 9 5 8l109 -46l108 46c3 2 8 -4 6 -8l-103 -109c-6 -6 -17 -6 -23 0zM726 12c4 0 4 -12 0 -12c-28 0 -53 1 -85 1c-28 0 -41 -1 -66 -1c-16 0 -18 2 -18 19v71c-73 -68 -142 -102 -230 -102c-129 0 -230 76 -230 198v358c0 57 -10 69 -76 69
c-3 0 -3 12 0 12c35 0 77 -3 124 -3c49 0 91 3 124 3c4 0 4 -12 0 -12c-64 0 -76 -14 -76 -71v-321c0 -130 69 -196 171 -196c67 0 126 28 193 91v426c0 57 -10 71 -76 71c-4 0 -4 12 0 12c34 0 76 -3 121 -3c47 0 90 3 124 3c4 0 4 -12 0 -12c-64 0 -77 -12 -77 -69v-463
c0 -58 13 -69 77 -69z" />
    <glyph glyph-name="Ucircumflex.ss01" horiz-adv-x="759" 
d="M274 691c-3 -1 -10 5 -6 7l103 110c5 6 16 6 22 0l103 -110c3 -2 -3 -9 -6 -7l-108 46zM726 12c4 0 4 -12 0 -12c-28 0 -53 1 -85 1c-28 0 -41 -1 -66 -1c-16 0 -18 2 -18 19v71c-73 -68 -142 -102 -230 -102c-129 0 -230 76 -230 198v358c0 57 -10 69 -76 69
c-3 0 -3 12 0 12c35 0 77 -3 124 -3c49 0 91 3 124 3c4 0 4 -12 0 -12c-64 0 -76 -14 -76 -71v-321c0 -130 69 -196 171 -196c67 0 126 28 193 91v426c0 57 -10 71 -76 71c-4 0 -4 12 0 12c34 0 76 -3 121 -3c47 0 90 3 124 3c4 0 4 -12 0 -12c-64 0 -77 -12 -77 -69v-463
c0 -58 13 -69 77 -69z" />
    <glyph glyph-name="Udieresis.ss01" horiz-adv-x="759" 
d="M295 708c-32 0 -52 17 -52 50c0 29 20 48 52 48c30 0 49 -19 49 -48c0 -33 -19 -50 -49 -50zM469 708c-32 0 -50 17 -50 50c0 29 18 47 50 47c30 0 48 -18 48 -47c0 -33 -18 -50 -48 -50zM726 12c4 0 4 -12 0 -12c-28 0 -53 1 -85 1c-28 0 -41 -1 -66 -1
c-16 0 -18 2 -18 19v71c-73 -68 -142 -102 -230 -102c-129 0 -230 76 -230 198v358c0 57 -10 69 -76 69c-3 0 -3 12 0 12c35 0 77 -3 124 -3c49 0 91 3 124 3c4 0 4 -12 0 -12c-64 0 -76 -14 -76 -71v-321c0 -130 69 -196 171 -196c67 0 126 28 193 91v426
c0 57 -10 71 -76 71c-4 0 -4 12 0 12c34 0 76 -3 121 -3c47 0 90 3 124 3c4 0 4 -12 0 -12c-64 0 -77 -12 -77 -69v-463c0 -58 13 -69 77 -69z" />
    <glyph glyph-name="uni01D7.ss01" horiz-adv-x="759" 
d="M254 820c-6 -2 -10 8 -5 10c68 34 120 68 177 100c10 8 112 -29 88 -34c-104 -22 -180 -46 -260 -76zM295 696c-32 0 -52 17 -52 50c0 29 20 48 52 48c30 0 49 -19 49 -48c0 -33 -19 -50 -49 -50zM469 793c30 0 48 -18 48 -47c0 -33 -18 -50 -48 -50c-32 0 -50 17 -50 50
c0 29 18 47 50 47zM726 12c4 0 4 -12 0 -12c-28 0 -53 1 -85 1c-28 0 -41 -1 -66 -1c-16 0 -18 2 -18 19v71c-73 -68 -142 -102 -230 -102c-129 0 -230 76 -230 198v358c0 57 -10 69 -76 69c-3 0 -3 12 0 12c35 0 77 -3 124 -3c49 0 91 3 124 3c4 0 4 -12 0 -12
c-64 0 -76 -14 -76 -71v-321c0 -130 69 -196 171 -196c67 0 126 28 193 91v426c0 57 -10 71 -76 71c-4 0 -4 12 0 12c34 0 76 -3 121 -3c47 0 90 3 124 3c4 0 4 -12 0 -12c-64 0 -77 -12 -77 -69v-463c0 -58 13 -69 77 -69z" />
    <glyph glyph-name="uni01D9.ss01" horiz-adv-x="759" 
d="M258 923c-3 2 4 8 6 7l121 -53l118 54c3 1 8 -4 6 -7l-114 -110c-6 -6 -16 -6 -22 0zM295 696c-32 0 -52 17 -52 50c0 29 20 48 52 48c30 0 49 -19 49 -48c0 -33 -19 -50 -49 -50zM469 793c30 0 48 -18 48 -47c0 -33 -18 -50 -48 -50c-32 0 -50 17 -50 50
c0 29 18 47 50 47zM726 12c4 0 4 -12 0 -12c-28 0 -53 1 -85 1c-28 0 -41 -1 -66 -1c-16 0 -18 2 -18 19v71c-73 -68 -142 -102 -230 -102c-129 0 -230 76 -230 198v358c0 57 -10 69 -76 69c-3 0 -3 12 0 12c35 0 77 -3 124 -3c49 0 91 3 124 3c4 0 4 -12 0 -12
c-64 0 -76 -14 -76 -71v-321c0 -130 69 -196 171 -196c67 0 126 28 193 91v426c0 57 -10 71 -76 71c-4 0 -4 12 0 12c34 0 76 -3 121 -3c47 0 90 3 124 3c4 0 4 -12 0 -12c-64 0 -77 -12 -77 -69v-463c0 -58 13 -69 77 -69z" />
    <glyph glyph-name="uni01DB.ss01" horiz-adv-x="759" 
d="M261 896c-23 5 79 42 90 34c55 -32 108 -66 175 -100c5 -2 1 -12 -5 -10c-79 30 -155 54 -260 76zM482 794c31 0 51 -19 51 -48c0 -33 -20 -50 -51 -50s-49 17 -49 50c0 29 18 48 49 48zM259 746c0 29 18 47 48 47c32 0 51 -18 51 -47c0 -33 -19 -50 -51 -50
c-30 0 -48 17 -48 50zM726 12c4 0 4 -12 0 -12c-28 0 -53 1 -85 1c-28 0 -41 -1 -66 -1c-16 0 -18 2 -18 19v71c-73 -68 -142 -102 -230 -102c-129 0 -230 76 -230 198v358c0 57 -10 69 -76 69c-3 0 -3 12 0 12c35 0 77 -3 124 -3c49 0 91 3 124 3c4 0 4 -12 0 -12
c-64 0 -76 -14 -76 -71v-321c0 -130 69 -196 171 -196c67 0 126 28 193 91v426c0 57 -10 71 -76 71c-4 0 -4 12 0 12c34 0 76 -3 121 -3c47 0 90 3 124 3c4 0 4 -12 0 -12c-64 0 -77 -12 -77 -69v-463c0 -58 13 -69 77 -69z" />
    <glyph glyph-name="uni01D5.ss01" horiz-adv-x="759" 
d="M257 841c-12 0 -12 34 0 34h246c11 0 11 -34 0 -34h-246zM295 696c-32 0 -52 17 -52 50c0 29 20 48 52 48c30 0 49 -19 49 -48c0 -33 -19 -50 -49 -50zM469 793c30 0 48 -18 48 -47c0 -33 -18 -50 -48 -50c-32 0 -50 17 -50 50c0 29 18 47 50 47zM726 12c4 0 4 -12 0 -12
c-28 0 -53 1 -85 1c-28 0 -41 -1 -66 -1c-16 0 -18 2 -18 19v71c-73 -68 -142 -102 -230 -102c-129 0 -230 76 -230 198v358c0 57 -10 69 -76 69c-3 0 -3 12 0 12c35 0 77 -3 124 -3c49 0 91 3 124 3c4 0 4 -12 0 -12c-64 0 -76 -14 -76 -71v-321c0 -130 69 -196 171 -196
c67 0 126 28 193 91v426c0 57 -10 71 -76 71c-4 0 -4 12 0 12c34 0 76 -3 121 -3c47 0 90 3 124 3c4 0 4 -12 0 -12c-64 0 -77 -12 -77 -69v-463c0 -58 13 -69 77 -69z" />
    <glyph glyph-name="uni1EE4.ss01" horiz-adv-x="759" 
d="M726 12c4 0 4 -12 0 -12c-28 0 -53 1 -85 1c-28 0 -41 -1 -66 -1c-16 0 -18 2 -18 19v71c-73 -68 -142 -102 -230 -102c-129 0 -230 76 -230 198v358c0 57 -10 69 -76 69c-3 0 -3 12 0 12c35 0 77 -3 124 -3c49 0 91 3 124 3c4 0 4 -12 0 -12c-64 0 -76 -14 -76 -71v-321
c0 -130 69 -196 171 -196c67 0 126 28 193 91v426c0 57 -10 71 -76 71c-4 0 -4 12 0 12c34 0 76 -3 121 -3c47 0 90 3 124 3c4 0 4 -12 0 -12c-64 0 -77 -12 -77 -69v-463c0 -58 13 -69 77 -69zM381 -95c34 0 53 -20 53 -51c0 -35 -19 -55 -53 -55s-55 20 -55 55
c0 31 21 51 55 51z" />
    <glyph glyph-name="Ugrave.ss01" horiz-adv-x="759" 
d="M258 756c-23 4 79 42 89 33c43 -31 86 -67 138 -100c5 -2 1 -13 -4 -11c-68 31 -134 55 -223 78zM726 12c4 0 4 -12 0 -12c-28 0 -53 1 -85 1c-28 0 -41 -1 -66 -1c-16 0 -18 2 -18 19v71c-73 -68 -142 -102 -230 -102c-129 0 -230 76 -230 198v358c0 57 -10 69 -76 69
c-3 0 -3 12 0 12c35 0 77 -3 124 -3c49 0 91 3 124 3c4 0 4 -12 0 -12c-64 0 -76 -14 -76 -71v-321c0 -130 69 -196 171 -196c67 0 126 28 193 91v426c0 57 -10 71 -76 71c-4 0 -4 12 0 12c34 0 76 -3 121 -3c47 0 90 3 124 3c4 0 4 -12 0 -12c-64 0 -77 -12 -77 -69v-463
c0 -58 13 -69 77 -69z" />
    <glyph glyph-name="uni1EE6.ss01" horiz-adv-x="759" 
d="M334 814c-3 -2 -10 6 -7 8c24 18 51 26 78 26c40 0 67 -21 67 -52c0 -58 -93 -95 -89 -145c0 -2 -10 -3 -11 0c-14 60 29 88 29 135c0 26 -13 37 -33 37c-10 0 -22 -3 -34 -9zM726 12c4 0 4 -12 0 -12c-28 0 -53 1 -85 1c-28 0 -41 -1 -66 -1c-16 0 -18 2 -18 19v71
c-73 -68 -142 -102 -230 -102c-129 0 -230 76 -230 198v358c0 57 -10 69 -76 69c-3 0 -3 12 0 12c35 0 77 -3 124 -3c49 0 91 3 124 3c4 0 4 -12 0 -12c-64 0 -76 -14 -76 -71v-321c0 -130 69 -196 171 -196c67 0 126 28 193 91v426c0 57 -10 71 -76 71c-4 0 -4 12 0 12
c34 0 76 -3 121 -3c47 0 90 3 124 3c4 0 4 -12 0 -12c-64 0 -77 -12 -77 -69v-463c0 -58 13 -69 77 -69z" />
    <glyph glyph-name="Uhorn.ss01" horiz-adv-x="759" 
d="M686 610c-32 -10 -37 -22 -37 -66v-463c0 -58 12 -69 77 -69c4 0 4 -12 0 -12c-28 0 -54 1 -85 1c-28 0 -41 -1 -65 -1c-17 0 -19 2 -19 19v72c-74 -69 -142 -103 -230 -103c-129 0 -230 76 -230 198v358c0 57 -11 69 -76 69c-3 0 -3 12 0 12c35 0 77 -3 124 -3
c49 0 91 3 124 3c4 0 4 -12 0 -12c-65 0 -76 -14 -76 -71v-321c0 -130 69 -197 170 -197c68 0 127 28 194 92v426c0 57 -10 71 -76 71c-3 0 -3 12 0 12c34 0 75 -3 121 -3c87 0 130 12 130 41c0 20 -21 25 -21 53c0 31 25 47 49 47c31 0 45 -25 45 -53
c0 -62 -71 -84 -119 -100z" />
    <glyph glyph-name="uni1EE8.ss01" horiz-adv-x="759" 
d="M283 678c-6 -2 -10 9 -5 11c53 33 94 69 138 100c11 9 111 -29 89 -33c-89 -23 -154 -47 -222 -78zM687 611c-33 -11 -38 -23 -38 -67v-463c0 -58 13 -69 77 -69c4 0 4 -12 0 -12c-28 0 -53 1 -85 1c-28 0 -41 -1 -66 -1c-16 0 -18 2 -18 19v71
c-73 -68 -142 -102 -230 -102c-129 0 -230 76 -230 198v358c0 57 -10 69 -76 69c-3 0 -3 12 0 12c35 0 77 -3 124 -3c49 0 91 3 124 3c4 0 4 -12 0 -12c-64 0 -76 -14 -76 -71v-321c0 -130 69 -196 171 -196c67 0 126 28 193 91v426c0 57 -10 71 -76 71c-4 0 -4 12 0 12
c34 0 76 -3 121 -3c87 0 130 12 130 41c0 20 -21 25 -21 54c0 30 26 46 49 46c31 0 45 -25 45 -53c0 -62 -70 -84 -118 -99z" />
    <glyph glyph-name="uni1EF0.ss01" horiz-adv-x="759" 
d="M687 611c-33 -11 -38 -23 -38 -67v-463c0 -58 13 -69 77 -69c4 0 4 -12 0 -12c-28 0 -53 1 -85 1c-28 0 -41 -1 -66 -1c-16 0 -18 2 -18 19v71c-73 -68 -142 -102 -230 -102c-129 0 -230 76 -230 198v358c0 57 -10 69 -76 69c-3 0 -3 12 0 12c35 0 77 -3 124 -3
c49 0 91 3 124 3c4 0 4 -12 0 -12c-64 0 -76 -14 -76 -71v-321c0 -130 69 -196 171 -196c67 0 126 28 193 91v426c0 57 -10 71 -76 71c-4 0 -4 12 0 12c34 0 76 -3 121 -3c87 0 130 12 130 41c0 20 -21 25 -21 54c0 30 26 46 49 46c31 0 45 -25 45 -53
c0 -62 -70 -84 -118 -99zM381 -95c34 0 53 -20 53 -51c0 -35 -19 -55 -53 -55s-55 20 -55 55c0 31 21 51 55 51z" />
    <glyph glyph-name="uni1EEA.ss01" horiz-adv-x="759" 
d="M257 756c-23 4 78 42 89 33c43 -31 85 -67 138 -100c5 -2 1 -13 -5 -11c-68 31 -133 55 -222 78zM687 611c-33 -11 -38 -23 -38 -67v-463c0 -58 13 -69 77 -69c4 0 4 -12 0 -12c-28 0 -53 1 -85 1c-28 0 -41 -1 -66 -1c-16 0 -18 2 -18 19v71
c-73 -68 -142 -102 -230 -102c-129 0 -230 76 -230 198v358c0 57 -10 69 -76 69c-3 0 -3 12 0 12c35 0 77 -3 124 -3c49 0 91 3 124 3c4 0 4 -12 0 -12c-64 0 -76 -14 -76 -71v-321c0 -130 69 -196 171 -196c67 0 126 28 193 91v426c0 57 -10 71 -76 71c-4 0 -4 12 0 12
c34 0 76 -3 121 -3c87 0 130 12 130 41c0 20 -21 25 -21 54c0 30 26 46 49 46c31 0 45 -25 45 -53c0 -62 -70 -84 -118 -99z" />
    <glyph glyph-name="uni1EEC.ss01" horiz-adv-x="759" 
d="M333 814c-3 -2 -10 5 -7 8c22 18 50 26 76 26c42 0 68 -21 68 -53c0 -57 -94 -94 -89 -144c0 -2 -10 -3 -12 0c-12 60 30 88 30 135c0 26 -12 36 -33 36c-9 0 -21 -2 -33 -8zM687 611c-33 -11 -38 -23 -38 -67v-463c0 -58 13 -69 77 -69c4 0 4 -12 0 -12
c-28 0 -53 1 -85 1c-28 0 -41 -1 -66 -1c-16 0 -18 2 -18 19v71c-73 -68 -142 -102 -230 -102c-129 0 -230 76 -230 198v358c0 57 -10 69 -76 69c-3 0 -3 12 0 12c35 0 77 -3 124 -3c49 0 91 3 124 3c4 0 4 -12 0 -12c-64 0 -76 -14 -76 -71v-321c0 -130 69 -196 171 -196
c67 0 126 28 193 91v426c0 57 -10 71 -76 71c-4 0 -4 12 0 12c34 0 76 -3 121 -3c87 0 130 12 130 41c0 20 -21 25 -21 54c0 30 26 46 49 46c31 0 45 -25 45 -53c0 -62 -70 -84 -118 -99z" />
    <glyph glyph-name="uni1EEE.ss01" horiz-adv-x="759" 
d="M254 712c-3 -2 -10 4 -7 7c16 27 49 74 86 74c29 0 77 -25 123 -25c23 0 34 10 50 27c3 3 10 -3 7 -7c-36 -59 -54 -73 -82 -73c-38 0 -80 24 -127 24c-28 0 -35 -12 -50 -27zM687 611c-33 -11 -38 -23 -38 -67v-463c0 -58 13 -69 77 -69c4 0 4 -12 0 -12
c-28 0 -53 1 -85 1c-28 0 -41 -1 -66 -1c-16 0 -18 2 -18 19v71c-73 -68 -142 -102 -230 -102c-129 0 -230 76 -230 198v358c0 57 -10 69 -76 69c-3 0 -3 12 0 12c35 0 77 -3 124 -3c49 0 91 3 124 3c4 0 4 -12 0 -12c-64 0 -76 -14 -76 -71v-321c0 -130 69 -196 171 -196
c67 0 126 28 193 91v426c0 57 -10 71 -76 71c-4 0 -4 12 0 12c34 0 76 -3 121 -3c87 0 130 12 130 41c0 20 -21 25 -21 54c0 30 26 46 49 46c31 0 45 -25 45 -53c0 -62 -70 -84 -118 -99z" />
    <glyph glyph-name="Uhungarumlaut.ss01" horiz-adv-x="759" 
d="M273 670c-6 -3 -12 6 -8 11c35 38 65 77 90 115c5 13 100 -23 81 -32c-64 -28 -112 -56 -163 -94zM415 670c-5 -3 -11 6 -8 11c35 37 65 78 90 115c6 13 100 -23 81 -32c-63 -28 -111 -56 -163 -94zM726 12c4 0 4 -12 0 -12c-28 0 -53 1 -85 1c-28 0 -41 -1 -66 -1
c-16 0 -18 2 -18 19v71c-73 -68 -142 -102 -230 -102c-129 0 -230 76 -230 198v358c0 57 -10 69 -76 69c-3 0 -3 12 0 12c35 0 77 -3 124 -3c49 0 91 3 124 3c4 0 4 -12 0 -12c-64 0 -76 -14 -76 -71v-321c0 -130 69 -196 171 -196c67 0 126 28 193 91v426
c0 57 -10 71 -76 71c-4 0 -4 12 0 12c34 0 76 -3 121 -3c47 0 90 3 124 3c4 0 4 -12 0 -12c-64 0 -77 -12 -77 -69v-463c0 -58 13 -69 77 -69z" />
    <glyph glyph-name="Umacron.ss01" horiz-adv-x="759" 
d="M255 716c-12 0 -12 34 0 34h251c12 0 12 -34 0 -34h-251zM726 12c4 0 4 -12 0 -12c-28 0 -53 1 -85 1c-28 0 -41 -1 -66 -1c-16 0 -18 2 -18 19v71c-73 -68 -142 -102 -230 -102c-129 0 -230 76 -230 198v358c0 57 -10 69 -76 69c-3 0 -3 12 0 12c35 0 77 -3 124 -3
c49 0 91 3 124 3c4 0 4 -12 0 -12c-64 0 -76 -14 -76 -71v-321c0 -130 69 -196 171 -196c67 0 126 28 193 91v426c0 57 -10 71 -76 71c-4 0 -4 12 0 12c34 0 76 -3 121 -3c47 0 90 3 124 3c4 0 4 -12 0 -12c-64 0 -77 -12 -77 -69v-463c0 -58 13 -69 77 -69z" />
    <glyph glyph-name="Uogonek.ss01" horiz-adv-x="758" 
d="M725 12c3 0 3 -12 0 -12c-33 0 -58 1 -92 1c-84 0 -111 -32 -111 -124c0 -74 34 -114 91 -114c22 0 34 7 46 15c3 2 10 -5 7 -8c-37 -32 -71 -45 -109 -45c-71 0 -120 39 -120 105c0 108 118 122 118 231v29c-76 -71 -143 -102 -224 -102c-136 0 -234 76 -234 198v358
c0 57 -11 69 -76 69c-3 0 -3 12 0 12c35 0 77 -3 124 -3c49 0 91 3 124 3c4 0 4 -12 0 -12c-65 0 -76 -14 -76 -71v-321c0 -130 67 -197 170 -197c66 0 122 23 192 87v431c0 57 -9 71 -76 71c-3 0 -3 12 0 12c35 0 76 -3 121 -3c47 0 91 3 125 3c3 0 3 -12 0 -12
c-65 0 -77 -12 -77 -69v-463c0 -58 12 -69 77 -69z" />
    <glyph glyph-name="Uring.ss01" horiz-adv-x="759" 
d="M375 677c-64 0 -100 39 -100 80c0 51 60 77 110 77c55 0 100 -35 100 -80c0 -49 -57 -77 -110 -77zM365 821c-19 0 -27 -14 -27 -44c0 -41 19 -87 53 -87c21 0 30 14 30 47c0 45 -25 84 -56 84zM726 12c4 0 4 -12 0 -12c-28 0 -53 1 -85 1c-28 0 -41 -1 -66 -1
c-16 0 -18 2 -18 19v71c-73 -68 -142 -102 -230 -102c-129 0 -230 76 -230 198v358c0 57 -10 69 -76 69c-3 0 -3 12 0 12c35 0 77 -3 124 -3c49 0 91 3 124 3c4 0 4 -12 0 -12c-64 0 -76 -14 -76 -71v-321c0 -130 69 -196 171 -196c67 0 126 28 193 91v426
c0 57 -10 71 -76 71c-4 0 -4 12 0 12c34 0 76 -3 121 -3c47 0 90 3 124 3c4 0 4 -12 0 -12c-64 0 -77 -12 -77 -69v-463c0 -58 13 -69 77 -69z" />
    <glyph glyph-name="Utilde.ss01" horiz-adv-x="759" 
d="M259 697c-2 -2 -9 4 -7 7c17 27 48 75 87 75c29 0 77 -25 122 -25c24 0 35 9 51 27c2 3 9 -3 7 -7c-36 -61 -55 -75 -82 -75c-38 0 -80 25 -127 25c-28 0 -35 -12 -51 -27zM726 12c4 0 4 -12 0 -12c-28 0 -53 1 -85 1c-28 0 -41 -1 -66 -1c-16 0 -18 2 -18 19v71
c-73 -68 -142 -102 -230 -102c-129 0 -230 76 -230 198v358c0 57 -10 69 -76 69c-3 0 -3 12 0 12c35 0 77 -3 124 -3c49 0 91 3 124 3c4 0 4 -12 0 -12c-64 0 -76 -14 -76 -71v-321c0 -130 69 -196 171 -196c67 0 126 28 193 91v426c0 57 -10 71 -76 71c-4 0 -4 12 0 12
c34 0 76 -3 121 -3c47 0 90 3 124 3c4 0 4 -12 0 -12c-64 0 -77 -12 -77 -69v-463c0 -58 13 -69 77 -69z" />
    <glyph glyph-name="Q.long.c2sc.ss01" horiz-adv-x="570" 
d="M1118 -186c4 1 7 -10 4 -12c-109 -35 -139 -57 -169 -57c-138 0 -425 122 -605 253c-23 -7 -48 -10 -73 -10c-146 0 -242 113 -242 245c0 162 144 247 268 247c146 0 237 -121 237 -240c0 -95 -57 -180 -141 -223c186 -120 447 -216 643 -216c27 0 58 6 78 13zM131 262
c0 -142 69 -253 168 -253c83 0 141 76 141 209c0 131 -66 238 -175 238c-86 0 -134 -68 -134 -194z" />
    <glyph glyph-name="R.short.c2sc.ss01" horiz-adv-x="540" 
d="M550 45c4 2 6 -10 3 -11c-81 -16 -107 -43 -131 -43c-28 0 -48 40 -162 235c-15 -3 -30 -4 -46 -4c-8 0 -17 0 -25 1v-142c0 -58 9 -69 66 -69c3 0 3 -12 0 -12c-31 0 -67 2 -112 2c-39 0 -80 -2 -111 -2c-4 0 -4 12 0 12c57 0 67 11 67 69v306c0 57 -10 69 -66 69
c-3 0 -3 12 0 12c31 0 71 -3 110 -3c37 0 88 6 123 6c99 0 152 -34 152 -97c0 -52 -35 -98 -89 -126c121 -178 151 -206 193 -206c9 0 18 2 28 3zM189 241c9 0 19 -1 32 -1c82 0 103 42 103 107c0 72 -27 106 -82 106c-45 0 -53 -15 -53 -68v-144z" />
    <glyph glyph-name="Racute.short.c2sc.ss01" horiz-adv-x="540" 
d="M149 522c-6 -3 -10 8 -5 10c53 33 94 69 138 101c11 8 111 -29 89 -34c-89 -22 -154 -47 -222 -77zM550 46c3 1 7 -11 3 -12c-80 -16 -107 -43 -131 -43c-28 0 -48 40 -162 235c-15 -3 -30 -4 -46 -4c-8 0 -17 0 -25 1v-142c0 -58 9 -69 66 -69c3 0 3 -12 0 -12
c-30 0 -67 2 -111 2c-40 0 -81 -2 -112 -2c-4 0 -4 12 0 12c57 0 67 11 67 69v306c0 57 -10 69 -66 69c-4 0 -4 12 0 12c31 0 71 -3 111 -3c36 0 86 6 123 6c98 0 151 -34 151 -97c0 -52 -35 -98 -89 -126c121 -179 151 -206 193 -206c9 0 18 1 28 4zM189 241
c9 -1 19 -1 32 -1c82 0 103 42 103 107c0 72 -27 107 -82 107c-46 0 -53 -17 -53 -69v-144z" />
    <glyph glyph-name="Rcaron.short.c2sc.ss01" horiz-adv-x="540" 
d="M127 640c-4 2 3 8 6 7l108 -46l108 46c4 2 8 -4 6 -7l-103 -110c-6 -6 -16 -6 -22 0zM550 46c3 1 7 -11 3 -12c-80 -16 -107 -43 -131 -43c-28 0 -48 40 -162 235c-15 -3 -30 -4 -46 -4c-8 0 -17 0 -25 1v-142c0 -58 9 -69 66 -69c3 0 3 -12 0 -12c-30 0 -67 2 -111 2
c-40 0 -81 -2 -112 -2c-4 0 -4 12 0 12c57 0 67 11 67 69v306c0 57 -10 69 -66 69c-4 0 -4 12 0 12c31 0 71 -3 111 -3c36 0 86 6 123 6c98 0 151 -34 151 -97c0 -52 -35 -98 -89 -126c121 -179 151 -206 193 -206c9 0 18 1 28 4zM189 241c9 -1 19 -1 32 -1
c82 0 103 42 103 107c0 72 -27 107 -82 107c-46 0 -53 -17 -53 -69v-144z" />
    <glyph glyph-name="Rcommaaccent.short.c2sc.ss01" horiz-adv-x="540" 
d="M550 46c3 1 7 -11 3 -12c-80 -16 -107 -43 -131 -43c-28 0 -48 40 -162 235c-15 -3 -30 -4 -46 -4c-8 0 -17 0 -25 1v-142c0 -58 9 -69 66 -69c3 0 3 -12 0 -12c-30 0 -67 2 -111 2c-40 0 -81 -2 -112 -2c-4 0 -4 12 0 12c57 0 67 11 67 69v306c0 57 -10 69 -66 69
c-4 0 -4 12 0 12c31 0 71 -3 111 -3c36 0 86 6 123 6c98 0 151 -34 151 -97c0 -52 -35 -98 -89 -126c121 -179 151 -206 193 -206c9 0 18 1 28 4zM189 241c9 -1 19 -1 32 -1c82 0 103 42 103 107c0 72 -27 107 -82 107c-46 0 -53 -17 -53 -69v-144zM267 -75
c43 0 65 -30 65 -77c0 -54 -30 -91 -71 -123c-5 -3 -12 5 -7 8c26 23 47 47 47 76c0 16 -3 25 -9 32c-6 -12 -19 -18 -37 -18c-27 0 -45 20 -45 51c0 35 26 51 57 51z" />
    <glyph glyph-name="uni1E5A.short.c2sc.ss01" horiz-adv-x="540" 
d="M550 46c3 1 7 -11 3 -12c-80 -16 -107 -43 -131 -43c-28 0 -48 40 -162 235c-15 -3 -30 -4 -46 -4c-8 0 -17 0 -25 1v-142c0 -58 9 -69 66 -69c3 0 3 -12 0 -12c-30 0 -67 2 -111 2c-40 0 -81 -2 -112 -2c-4 0 -4 12 0 12c57 0 67 11 67 69v306c0 57 -10 69 -66 69
c-4 0 -4 12 0 12c31 0 71 -3 111 -3c36 0 86 6 123 6c98 0 151 -34 151 -97c0 -52 -35 -98 -89 -126c121 -179 151 -206 193 -206c9 0 18 1 28 4zM189 241c9 -1 19 -1 32 -1c82 0 103 42 103 107c0 72 -27 107 -82 107c-46 0 -53 -17 -53 -69v-144zM274 -95
c34 0 52 -20 52 -51c0 -35 -18 -55 -52 -55s-55 20 -55 55c0 31 21 51 55 51z" />
    <glyph glyph-name="uni1E5C.short.c2sc.ss01" horiz-adv-x="540" 
d="M115 559c-12 0 -12 34 0 34h252c11 0 11 -34 0 -34h-252zM550 46c3 1 7 -11 3 -12c-80 -16 -107 -43 -131 -43c-28 0 -48 40 -162 235c-15 -3 -30 -4 -46 -4c-8 0 -17 0 -25 1v-142c0 -58 9 -69 66 -69c3 0 3 -12 0 -12c-30 0 -67 2 -111 2c-40 0 -81 -2 -112 -2
c-4 0 -4 12 0 12c57 0 67 11 67 69v306c0 57 -10 69 -66 69c-4 0 -4 12 0 12c31 0 71 -3 111 -3c36 0 86 6 123 6c98 0 151 -34 151 -97c0 -52 -35 -98 -89 -126c121 -179 151 -206 193 -206c9 0 18 1 28 4zM189 241c9 -1 19 -1 32 -1c82 0 103 42 103 107
c0 72 -27 107 -82 107c-46 0 -53 -17 -53 -69v-144zM274 -95c34 0 52 -20 52 -51c0 -35 -18 -55 -52 -55s-55 20 -55 55c0 31 21 51 55 51z" />
    <glyph glyph-name="uni1E5E.short.c2sc.ss01" horiz-adv-x="540" 
d="M550 46c3 1 7 -11 3 -12c-80 -16 -107 -43 -131 -43c-28 0 -48 40 -162 235c-15 -3 -30 -4 -46 -4c-8 0 -17 0 -25 1v-142c0 -58 9 -69 66 -69c3 0 3 -12 0 -12c-30 0 -67 2 -111 2c-40 0 -81 -2 -112 -2c-4 0 -4 12 0 12c57 0 67 11 67 69v306c0 57 -10 69 -66 69
c-4 0 -4 12 0 12c31 0 71 -3 111 -3c36 0 86 6 123 6c98 0 151 -34 151 -97c0 -52 -35 -98 -89 -126c121 -179 151 -206 193 -206c9 0 18 1 28 4zM189 241c9 -1 19 -1 32 -1c82 0 103 42 103 107c0 72 -27 107 -82 107c-46 0 -53 -17 -53 -69v-144zM398 -85
c11 0 11 -34 0 -34h-252c-11 0 -11 34 0 34h252z" />
    <glyph glyph-name="Uacute.loclHUN.ss01" horiz-adv-x="759" 
d="M332 670c-6 -2 -10 6 -7 11c34 38 65 80 90 119c7 11 103 -25 85 -33c-66 -28 -115 -59 -168 -97zM726 12c4 0 4 -12 0 -12c-28 0 -53 1 -85 1c-28 0 -41 -1 -66 -1c-16 0 -18 2 -18 19v71c-73 -68 -142 -102 -230 -102c-129 0 -230 76 -230 198v358c0 57 -10 69 -76 69
c-3 0 -3 12 0 12c35 0 77 -3 124 -3c49 0 91 3 124 3c4 0 4 -12 0 -12c-64 0 -76 -14 -76 -71v-321c0 -130 69 -196 171 -196c67 0 126 28 193 91v426c0 57 -10 71 -76 71c-4 0 -4 12 0 12c34 0 76 -3 121 -3c47 0 90 3 124 3c4 0 4 -12 0 -12c-64 0 -77 -12 -77 -69v-463
c0 -58 13 -69 77 -69z" />
    <glyph glyph-name="Q.long.ss01" horiz-adv-x="766" 
d="M1221 -173c4 1 7 -10 4 -11c-101 -35 -128 -67 -154 -67c-137 0 -379 104 -594 256c-35 -11 -73 -17 -111 -17c-192 0 -317 148 -317 324c0 217 190 324 352 324c197 0 316 -156 316 -317c0 -126 -74 -233 -181 -289c204 -136 417 -210 639 -210c14 0 31 4 46 7zM157 347
c0 -193 100 -335 243 -335c118 0 209 99 209 278c0 185 -94 321 -249 321c-131 0 -203 -100 -203 -264z" />
    <glyph glyph-name="R.short.ss01" horiz-adv-x="665" 
d="M671 44c4 1 6 -11 3 -12c-74 -17 -123 -41 -145 -41c-36 0 -66 34 -208 326c-40 5 -68 6 -106 6v-242c0 -58 10 -69 76 -69c3 0 3 -12 0 -12c-35 0 -76 2 -125 2c-46 0 -90 -2 -124 -2c-4 0 -4 12 0 12c65 0 77 11 77 69v463c0 57 -11 69 -76 69c-3 0 -3 12 0 12
c34 0 77 -3 123 -3c33 0 88 6 133 6c117 0 178 -40 178 -120c0 -51 -26 -108 -94 -163c153 -265 197 -306 255 -306c10 0 22 2 33 5zM215 348c48 -1 84 0 124 3c24 27 39 64 39 124c0 91 -38 133 -110 133c-38 0 -53 -5 -53 -66v-194z" />
    <glyph glyph-name="Racute.short.ss01" horiz-adv-x="671" 
d="M183 678c-6 -2 -10 9 -5 11c53 33 94 69 138 100c11 9 111 -29 89 -33c-89 -23 -154 -47 -222 -78zM682 43c3 1 6 -10 2 -11c-71 -18 -123 -41 -147 -41c-32 0 -75 30 -232 325c-13 -2 -25 -3 -38 -3c-18 0 -37 2 -53 3v-235c0 -58 11 -69 76 -69c4 0 4 -12 0 -12
c-34 0 -75 2 -124 2c-47 0 -90 -2 -124 -2c-3 0 -3 12 0 12c64 0 77 11 77 69v463c0 57 -11 69 -76 69c-3 0 -3 12 0 12c34 0 76 -3 123 -3c39 0 89 6 129 6c119 0 185 -47 185 -126c0 -65 -44 -125 -104 -159c165 -263 214 -303 272 -303c12 0 23 1 34 3zM214 343
c19 -3 42 -4 60 -4c77 0 107 29 107 125c0 116 -44 145 -103 145c-46 0 -64 -14 -64 -67v-199z" />
    </font>
</defs>
</svg>
